<svg width="17" height="16" viewBox="0 0 17 16" fill="none" xmlns="http://www.w3.org/2000/svg">
<g clip-path="url(#clip0_1344_32328)">
<path d="M4.33301 8C4.33301 7.80302 4.37181 7.60796 4.44719 7.42597C4.52257 7.24399 4.63306 7.07863 4.77235 6.93934C4.91164 6.80005 5.07699 6.68956 5.25898 6.61418C5.44097 6.5388 5.63602 6.5 5.83301 6.5C6.02999 6.5 6.22504 6.5388 6.40703 6.61418C6.58902 6.68956 6.75438 6.80005 6.89367 6.93934C7.03296 7.07863 7.14345 7.24399 7.21883 7.42597C7.29421 7.60796 7.33301 7.80302 7.33301 8C7.33301 8.39782 7.17497 8.77936 6.89367 9.06066C6.61236 9.34196 6.23083 9.5 5.83301 9.5C5.43518 9.5 5.05365 9.34196 4.77235 9.06066C4.49104 8.77936 4.33301 8.39782 4.33301 8ZM11.833 6.5C11.4352 6.5 11.0537 6.65804 10.7723 6.93934C10.491 7.22064 10.333 7.60218 10.333 8C10.333 8.39782 10.491 8.77936 10.7723 9.06066C11.0537 9.34196 11.4352 9.5 11.833 9.5C12.2308 9.5 12.6124 9.34196 12.8937 9.06066C13.175 8.77936 13.333 8.39782 13.333 8C13.333 7.60218 13.175 7.22064 12.8937 6.93934C12.6124 6.65804 12.2308 6.5 11.833 6.5Z" fill="white"/>
<path d="M0.333008 1.5C0.333008 1.36739 0.385686 1.24021 0.479454 1.14645C0.573223 1.05268 0.7004 1 0.833008 1H1.83301C1.96562 1 2.09279 1.05268 2.18656 1.14645C2.28033 1.24021 2.33301 1.36739 2.33301 1.5V4H15.833C15.9656 4 16.0928 4.05268 16.1866 4.14645C16.2803 4.24021 16.333 4.36739 16.333 4.5V11.5C16.333 11.6326 16.2803 11.7598 16.1866 11.8536C16.0928 11.9473 15.9656 12 15.833 12H2.33301V14.5C2.33301 14.6326 2.28033 14.7598 2.18656 14.8536C2.09279 14.9473 1.96562 15 1.83301 15C1.7004 15 1.57322 14.9473 1.47945 14.8536C1.38569 14.7598 1.33301 14.6326 1.33301 14.5V2H0.833008C0.7004 2 0.573223 1.94732 0.479454 1.85355C0.385686 1.75979 0.333008 1.63261 0.333008 1.5ZM5.83301 5.5C5.16997 5.5 4.53408 5.76339 4.06524 6.23223C3.5964 6.70107 3.33301 7.33696 3.33301 8C3.33301 8.66304 3.5964 9.29893 4.06524 9.76777C4.53408 10.2366 5.16997 10.5 5.83301 10.5C6.49605 10.5 7.13193 10.2366 7.60077 9.76777C8.06962 9.29893 8.33301 8.66304 8.33301 8C8.33301 7.33696 8.06962 6.70107 7.60077 6.23223C7.13193 5.76339 6.49605 5.5 5.83301 5.5ZM9.33301 8C9.33301 8.66304 9.5964 9.29893 10.0652 9.76777C10.5341 10.2366 11.17 10.5 11.833 10.5C12.496 10.5 13.1319 10.2366 13.6008 9.76777C14.0696 9.29893 14.333 8.66304 14.333 8C14.333 7.33696 14.0696 6.70107 13.6008 6.23223C13.1319 5.76339 12.496 5.5 11.833 5.5C11.17 5.5 10.5341 5.76339 10.0652 6.23223C9.5964 6.70107 9.33301 7.33696 9.33301 8Z" fill="white"/>
<path d="M3.33301 12.5H6.83301V13.5C6.83301 13.6326 6.78033 13.7598 6.68656 13.8536C6.59279 13.9473 6.46562 14 6.33301 14H3.83301C3.7004 14 3.57322 13.9473 3.47945 13.8536C3.38569 13.7598 3.33301 13.6326 3.33301 13.5V12.5ZM7.33301 13.5V12.5H11.333V13.5C11.333 13.6326 11.2803 13.7598 11.1866 13.8536C11.0928 13.9473 10.9656 14 10.833 14H7.83301C7.7004 14 7.57322 13.9473 7.47945 13.8536C7.38569 13.7598 7.33301 13.6326 7.33301 13.5Z" fill="white"/>
</g>
<defs>
<clipPath id="clip0_1344_32328">
<rect width="16" height="16" fill="white" transform="translate(0.333008)"/>
</clipPath>
</defs>
</svg>
