<svg width="115" height="122" viewBox="0 0 115 122" fill="none" xmlns="http://www.w3.org/2000/svg">
<path d="M17 67C17 88.3703 17 110.389 24.4688 117.028C31.9376 123.667 43.9584 123.667 68 123.667C92.0416 123.667 104.062 123.667 111.531 117.028C119 110.389 119 88.3703 119 67" stroke="#ED8181" stroke-width="2.5"/>
<path d="M83.0751 79.4775L118.195 68.9415C120.523 68.243 121.687 67.8938 122.549 67.2011C123.302 66.5963 123.888 65.8091 124.251 64.9143C124.667 63.8896 124.667 62.6742 124.667 60.2434C124.667 50.6816 124.667 45.9006 122.798 42.2518C121.173 39.0771 118.59 36.494 115.415 34.8684C111.766 33 106.985 33 97.4233 33H38.5767C29.0149 33 24.234 33 20.5852 34.8684C17.4104 36.494 14.8274 39.0771 13.2017 42.2518C11.3333 45.9006 11.3333 50.6816 11.3333 60.2434C11.3333 62.6742 11.3333 63.8896 11.7491 64.9143C12.1121 65.8091 12.6978 66.5963 13.4506 67.2011C14.3125 67.8938 15.4767 68.243 17.805 68.9415L52.9249 79.4775" stroke="#ED8181" stroke-width="2.5"/>
<path d="M79.3333 69.8335H56.6667C55.1019 69.8335 53.8333 71.102 53.8333 72.6668V84.9152C53.8333 86.0738 54.5387 87.1156 55.6144 87.5459L59.5818 89.1329C64.9858 91.2945 71.0142 91.2945 76.4182 89.1329L80.3856 87.5459C81.4613 87.1156 82.1667 86.0738 82.1667 84.9152V72.6668C82.1667 71.102 80.8981 69.8335 79.3333 69.8335Z" stroke="#ED8181" stroke-width="2.5" stroke-linecap="round"/>
<path d="M51.9684 21.6668C54.3022 15.0641 60.5992 10.3335 68.0011 10.3335C75.403 10.3335 81.7 15.0641 84.0338 21.6668" stroke="#ED8181" stroke-width="2.5" stroke-linecap="round"/>
</svg>
