<svg width="110" height="122" viewBox="0 0 110 122" fill="none" xmlns="http://www.w3.org/2000/svg">
<path d="M34.7696 51.9085C12.4996 53.4914 12.5541 85.7501 34.7696 87.333H87.4971C93.8833 87.3876 100.051 84.9861 104.8 80.674C120.411 67.0282 112.06 39.7363 91.4817 37.1163C84.113 -7.31453 19.7592 9.55185 34.9879 51.9085" stroke="#7187FF" stroke-width="2.5" stroke-miterlimit="10" stroke-linecap="round" stroke-linejoin="round"/>
<path d="M65.5 87.3335V103.708" stroke="#7187FF" stroke-width="2.5" stroke-miterlimit="10" stroke-linecap="round" stroke-linejoin="round"/>
<path d="M65.5 125.542C71.5291 125.542 76.4166 120.654 76.4166 114.625C76.4166 108.596 71.5291 103.708 65.5 103.708C59.4709 103.708 54.5833 108.596 54.5833 114.625C54.5833 120.654 59.4709 125.542 65.5 125.542Z" stroke="#7187FF" stroke-width="2.5" stroke-miterlimit="10" stroke-linecap="round" stroke-linejoin="round"/>
<path d="M98.25 114.625H76.4167" stroke="#7187FF" stroke-width="2.5" stroke-miterlimit="10" stroke-linecap="round" stroke-linejoin="round"/>
<path d="M54.5833 114.625H32.75" stroke="#7187FF" stroke-width="2.5" stroke-miterlimit="10" stroke-linecap="round" stroke-linejoin="round"/>
</svg>
