<svg width="116" height="80" viewBox="0 0 116 80" fill="none" xmlns="http://www.w3.org/2000/svg">
<path d="M46.1998 20.2875C37.4958 20.9061 37.5171 33.5141 46.1998 34.1328H66.8078C69.3038 34.1541 71.7145 33.2155 73.5705 31.5302C79.6719 26.1968 76.4079 15.5301 68.3652 14.5061C65.4852 -2.85926 40.3332 3.73279 46.2852 20.2875" stroke="white" stroke-width="2" stroke-miterlimit="10" stroke-linecap="round" stroke-linejoin="round"/>
<path fill-rule="evenodd" clip-rule="evenodd" d="M59.2091 34.1338C59.2091 33.5815 58.7614 33.1338 58.2091 33.1338C57.6568 33.1338 57.2091 33.5815 57.2091 34.1338V39.6292C55.1032 40.0344 53.4437 41.6939 53.0385 43.7998L40.2892 43.7998C39.7369 43.7998 39.2892 44.2475 39.2892 44.7998C39.2892 45.3521 39.7369 45.7998 40.2892 45.7998L53.0381 45.7998C53.5048 48.2308 55.643 50.0675 58.2101 50.0675C60.7773 50.0675 62.9154 48.2308 63.3822 45.7998H81.2492C81.8015 45.7998 82.2492 45.3521 82.2492 44.7998C82.2492 44.2475 81.8015 43.7998 81.2492 43.7998H63.3818C62.9765 41.6932 61.316 40.0333 59.2091 39.6288V34.1338ZM54.9435 44.8008C54.9435 42.9967 56.406 41.5342 58.2101 41.5342C60.0143 41.5342 61.4768 42.9967 61.4768 44.8008C61.4768 46.605 60.0143 48.0675 58.2101 48.0675C56.406 48.0675 54.9435 46.605 54.9435 44.8008Z" fill="white" fill-opacity="0.6"/>
<path d="M82.0397 45.8871C73.3357 46.5057 73.357 59.1137 82.0397 59.7324H102.648C105.144 59.7537 107.554 58.8151 109.41 57.1298C115.512 51.7964 112.248 41.1297 104.205 40.1057C101.325 22.7404 76.173 29.3324 82.125 45.8871" stroke="white" stroke-width="2" stroke-miterlimit="10" stroke-linecap="round" stroke-linejoin="round"/>
<path d="M10.36 45.8871C1.65597 46.5057 1.6773 59.1137 10.36 59.7324H30.968C33.464 59.7537 35.8747 58.8151 37.7307 57.1298C43.832 51.7964 40.568 41.1297 32.5253 40.1057C29.6453 22.7404 4.49332 29.3324 10.4453 45.8871" stroke="white" stroke-width="2" stroke-miterlimit="10" stroke-linecap="round" stroke-linejoin="round"/>
</svg>
