<svg width="100" height="100" viewBox="0 0 100 100" fill="none" xmlns="http://www.w3.org/2000/svg">
<path d="M26.5417 39.6251C9.54168 40.8334 9.58334 65.4584 26.5417 66.6667H66.7917C71.6667 66.7084 76.3751 64.8752 80.0001 61.5835C91.9167 51.1668 85.5417 30.3333 69.8334 28.3333C64.2084 -5.58336 15.0834 7.29173 26.7084 39.6251" stroke="#7187FF" stroke-width="2.5" stroke-miterlimit="10" stroke-linecap="round" stroke-linejoin="round"/>
<path d="M50 66.6665V79.1665" stroke="#7187FF" stroke-width="2.5" stroke-miterlimit="10" stroke-linecap="round" stroke-linejoin="round"/>
<path d="M50 95.8332C54.6024 95.8332 58.3333 92.1022 58.3333 87.4998C58.3333 82.8975 54.6024 79.1665 50 79.1665C45.3976 79.1665 41.6667 82.8975 41.6667 87.4998C41.6667 92.1022 45.3976 95.8332 50 95.8332Z" stroke="#7187FF" stroke-width="2.5" stroke-miterlimit="10" stroke-linecap="round" stroke-linejoin="round"/>
<path d="M75 87.5H58.3333" stroke="#7187FF" stroke-width="2.5" stroke-miterlimit="10" stroke-linecap="round" stroke-linejoin="round"/>
<path d="M41.6667 87.5H25" stroke="#7187FF" stroke-width="2.5" stroke-miterlimit="10" stroke-linecap="round" stroke-linejoin="round"/>
</svg>
