<svg width="16" height="16" viewBox="0 0 16 16" fill="none" xmlns="http://www.w3.org/2000/svg">
<path d="M14.4711 4.19564L12.1377 1.8623L11.1949 2.80511L12.3902 4.00038H9.99967C8.60835 4.00038 7.38294 4.71072 6.66633 5.78853C5.94972 4.71074 4.72432 4.00041 3.33301 4.00041H1.33301V5.33374H3.33301C4.80576 5.33374 5.99966 6.52763 5.99967 8.00038C5.99967 9.47314 4.80577 10.667 3.33301 10.667H1.33301V12.0004H3.33301C4.72432 12.0004 5.94972 11.29 6.66633 10.2123C7.38294 11.2901 8.60835 12.0004 9.99967 12.0004H12.3902L11.1949 13.1957L12.1377 14.1385L14.4711 11.8051C14.7314 11.5448 14.7314 11.1227 14.4711 10.8623L12.1377 8.529L11.1949 9.47181L12.3902 10.6671H9.99967C8.52692 10.6671 7.33301 9.47317 7.33301 8.00041C7.33301 8.0004 7.33301 8.00042 7.33301 8.00041C7.33301 6.52765 8.52692 5.33371 9.99967 5.33371L12.3902 5.33371L11.1949 6.52897L12.1377 7.47178L14.4711 5.13845C14.5961 5.01342 14.6663 4.84385 14.6663 4.66704C14.6663 4.49023 14.5961 4.32066 14.4711 4.19564Z" fill="white"/>
</svg>
