<svg width="118" height="122" viewBox="0 0 118 122" fill="none" xmlns="http://www.w3.org/2000/svg">
<path d="M34.25 60.7915C34.25 44.6459 34.25 36.5731 39.2658 31.5573C44.2816 26.5415 52.3544 26.5415 68.5 26.5415H85.625C101.771 26.5415 109.843 26.5415 114.859 31.5573C119.875 36.5731 119.875 44.6459 119.875 60.7915V89.3332C119.875 105.479 119.875 113.552 114.859 118.567C109.843 123.583 101.771 123.583 85.625 123.583H68.5C52.3544 123.583 44.2816 123.583 39.2658 118.567C34.25 113.552 34.25 105.479 34.25 89.3332V60.7915Z" stroke="#42E8E0" stroke-width="2.5"/>
<path d="M34.25 106.458C24.7921 106.458 17.125 98.791 17.125 89.3332V55.0832C17.125 33.5557 17.125 22.792 23.8127 16.1042C30.5005 9.4165 41.2642 9.4165 62.7917 9.4165H85.625C95.0829 9.4165 102.75 17.0836 102.75 26.5415" stroke="#42E8E0" stroke-width="2.5"/>
</svg>
