<svg width="100" height="100" viewBox="0 0 100 100" fill="none" xmlns="http://www.w3.org/2000/svg">
<path d="M25 45.8335C25 34.0484 25 28.1558 28.6612 24.4947C32.3223 20.8335 38.2149 20.8335 50 20.8335H62.5C74.2851 20.8335 80.1777 20.8335 83.8388 24.4947C87.5 28.1558 87.5 34.0484 87.5 45.8335V66.6668C87.5 78.4519 87.5 84.3445 83.8388 88.0057C80.1777 91.6668 74.2851 91.6668 62.5 91.6668H50C38.2149 91.6668 32.3223 91.6668 28.6612 88.0057C25 84.3445 25 78.4519 25 66.6668V45.8335Z" stroke="#42E8E0" stroke-width="2.5"/>
<path d="M25 79.1668C18.0964 79.1668 12.5 73.5704 12.5 66.6668V41.6668C12.5 25.9533 12.5 18.0966 17.3816 13.215C22.2631 8.3335 30.1198 8.3335 45.8333 8.3335H62.5C69.4036 8.3335 75 13.9299 75 20.8335" stroke="#42E8E0" stroke-width="2.5"/>
</svg>
