<svg width="80" height="80" viewBox="0 0 80 80" fill="none" xmlns="http://www.w3.org/2000/svg">
<path d="M27.0696 39.0344C26.4355 38.8782 25.7934 39.2633 25.6371 39.8975C22.6165 52.0288 31.8676 63.9087 44.425 63.9087C55.0567 63.9087 63.8036 55.2698 63.8036 44.552C63.8036 33.866 55.1024 25.1758 44.4469 25.1758C37.3687 25.1758 30.8611 29.024 27.4657 35.2191C27.1514 35.7916 27.3614 36.5112 27.9357 36.8256C28.5088 37.1393 29.2284 36.9293 29.5421 36.3568C32.5213 30.9192 38.2335 27.5427 44.4469 27.5427C58.3941 27.5427 66.4171 43.5468 58.0437 54.7205V54.7217C50.3344 64.9884 34.5775 63.3466 29.0972 51.8451L33.8073 54.1144C34.331 54.3683 34.9621 54.201 35.2935 53.7213L40.6286 45.9979L44.3841 49.1663C44.876 49.5825 45.6115 49.5276 46.0363 49.043L53.0706 41.037V43.0505C53.0706 43.7042 53.601 44.234 54.2541 44.234C54.9077 44.234 55.4375 43.7042 55.4375 43.0505C55.4375 41.9189 55.4388 37.9712 55.4363 37.865C55.4192 37.2162 54.8858 36.7126 54.2541 36.7126H49.0996C48.446 36.7126 47.9162 37.2424 47.9162 37.8961C47.9162 38.5498 48.446 39.0796 49.0996 39.0796H51.6399L45.0249 46.6101L41.159 43.3484C40.9032 43.1323 40.5688 43.0359 40.2386 43.0786C39.9077 43.1226 39.6111 43.3057 39.4213 43.5803L33.9208 51.5442L27.9503 48.6676C27.2722 45.9747 27.2661 43.1628 27.9326 40.4688C28.0907 39.8346 27.7038 39.1919 27.0696 39.0344Z" fill="white"/>
<path d="M78.028 7.73193H46.5229L45.6128 1.67908C45.4657 0.706787 44.6473 0 43.6622 0H26.2012C25.2179 0 24.3976 0.705566 24.2524 1.67908L23.3436 7.71729L22.4347 1.67908C22.2895 0.705566 21.4692 0 20.4859 0H3.02495C2.04045 0 1.22136 0.705566 1.07488 1.67908C-0.024977 9.00208 4.74056e-05 8.78723 4.74056e-05 8.91541V77.8699C4.74056e-05 78.9587 0.885057 79.8425 1.9727 79.8425H78.028C79.115 79.8425 80 78.9587 80 77.8699V9.70398C80 8.61694 79.115 7.73193 78.028 7.73193ZM26.5424 2.36694H43.3216L44.1297 7.73193H25.7343L26.5424 2.36694ZM3.36431 2.36694H20.1453L20.9534 7.73193H2.55803L3.36431 2.36694ZM77.6331 77.4756H2.36699V19.7253H77.6331V77.4756ZM77.6331 17.3584H2.36699V10.0989H77.6331V17.3584Z" fill="white" fill-opacity="0.6"/>
<path d="M57.1464 14.8328H68.2444C68.8981 14.8328 69.4279 14.3024 69.4279 13.6493C69.4279 12.9956 68.8981 12.4658 68.2444 12.4658H57.1464C56.4927 12.4658 55.9629 12.9956 55.9629 13.6493C55.9629 14.3024 56.4927 14.8328 57.1464 14.8328Z" fill="white"/>
<path d="M5.23425 14.8328H52.4132C53.0669 14.8328 53.5967 14.3024 53.5967 13.6493C53.5967 12.9956 53.0669 12.4658 52.4132 12.4658H5.23425C4.58057 12.4658 4.05078 12.9956 4.05078 13.6493C4.05078 14.3024 4.58057 14.8328 5.23425 14.8328Z" fill="white"/>
<path d="M74.7665 13.6497C74.7665 14.5206 74.0597 15.2274 73.1887 15.2274C72.3171 15.2274 71.6104 14.5206 71.6104 13.6497C71.6104 12.7781 72.3171 12.0713 73.1887 12.0713C74.0597 12.0713 74.7665 12.7781 74.7665 13.6497Z" fill="white"/>
<path d="M7.15897 63.7401C17.1431 57.6635 16.9533 57.9882 17.2292 57.4932L21.1787 50.4558C23.2454 58.5527 29.4386 65.2849 38.0403 67.6677C38.6702 67.8429 39.3233 67.4736 39.4966 66.8438C39.6718 66.2145 39.3025 65.5608 38.6733 65.3875C30.6014 63.1493 24.9141 56.6832 23.2777 49.0435C21.1311 39.0093 26.3716 28.7731 35.8864 24.6788C46.9051 19.9321 59.5985 25.0658 64.3001 35.9929C70.6783 50.8184 59.1237 67.1434 43.0916 66.1309C42.4379 66.09 41.8764 66.585 41.8355 67.2386C41.7946 67.8899 42.2896 68.452 42.9414 68.4929C48.3974 68.8372 53.647 67.2966 57.9506 64.3682L68.4438 74.915C71.3472 77.8337 76.3338 75.7646 76.3442 71.6643C76.3472 70.4259 75.8705 69.2626 75.0014 68.3904L64.4484 57.7837C74.9745 41.8969 63.5725 20.5449 44.4246 20.5449C30.3706 20.5449 19.2268 32.6683 20.5385 46.7571L15.3188 56.0619L5.93766 61.7125C5.37797 62.0488 5.19791 62.7758 5.53544 63.3361C5.87479 63.9031 6.60905 64.0721 7.15897 63.7401ZM73.3241 70.0597C74.7225 71.4635 73.7447 73.9067 71.7226 73.9067C71.6969 73.9012 70.8296 73.9556 70.1222 73.2457L59.8567 62.9259C61.0194 61.9542 62.0796 60.8763 63.0299 59.7118L73.3241 70.0597Z" fill="white"/>
</svg>
