<svg width="80" height="80" viewBox="0 0 80 80" fill="none" xmlns="http://www.w3.org/2000/svg">
<path d="M36.5029 28.5992H46.551C47.1964 28.5992 47.7197 28.0761 47.7197 27.4305C47.7197 26.785 47.1964 26.2617 46.551 26.2617H36.5029C35.8574 26.2617 35.3341 26.7848 35.3341 27.4305C35.3343 28.0759 35.8575 28.5992 36.5029 28.5992Z" fill="white" fill-opacity="0.4"/>
<path d="M65.1264 47.0373C64.3522 47.0373 63.7246 46.4097 63.7246 45.6355C63.7246 44.8612 64.3522 44.2336 65.1264 44.2336C65.9007 44.2336 66.5283 44.8612 66.5283 45.6355C66.5283 46.4097 65.9007 47.0373 65.1264 47.0373Z" fill="white"/>
<path d="M41.5437 17.3144C37.0553 17.3144 33.4038 13.6628 33.4038 9.17436C33.4038 4.68593 37.0553 1.03436 41.5437 1.03436C42.8536 1.03436 44.1559 1.35327 45.3102 1.95671C45.8822 2.25577 46.1034 2.96186 45.8044 3.53389C45.5055 4.10577 44.7994 4.32718 44.2272 4.02811C43.3941 3.59264 42.4913 3.37171 41.5436 3.37171C38.3441 3.37171 35.7411 5.97483 35.7411 9.17421C35.7411 12.3736 38.3441 14.9767 41.5436 14.9767C44.7431 14.9767 47.3461 12.3736 47.3461 9.17421C47.3461 8.71999 47.2936 8.26827 47.1903 7.83155C47.0416 7.20358 47.4302 6.57389 48.0583 6.42514C48.6863 6.27624 49.3161 6.66499 49.4648 7.29311C49.61 7.90593 49.6836 8.53874 49.6836 9.17421C49.6836 13.6628 46.0322 17.3144 41.5437 17.3144Z" fill="white" fill-opacity="0.4"/>
<path d="M0.0410919 46.6177C0.209999 45.9948 0.852028 45.6261 1.47485 45.7956C1.65375 45.8441 1.84 45.8686 2.02859 45.8686C2.85938 45.8686 3.64031 45.545 4.22766 44.9578L4.90735 44.278C4.00922 43.3906 2.91719 42.0533 2.91719 40.7967C2.91719 38.7634 4.57125 37.1092 6.60453 37.1092C8.63782 37.1092 10.2919 38.7633 10.2919 40.7967C10.2919 42.0508 9.20438 43.3852 8.30718 44.2725L8.99234 44.9577C9.57969 45.545 10.3606 45.8686 11.1914 45.8686C11.405 45.8686 11.6148 45.8506 11.8211 45.8186C11.9863 41.045 13.6731 36.427 16.7269 32.4173C17.118 31.9037 17.8514 31.8048 18.3647 32.1956C18.8781 32.5867 18.9773 33.32 18.5864 33.8334C15.9364 37.313 14.4261 41.2886 14.1803 45.3984C14.3789 45.5037 14.5492 45.6675 14.6628 45.8808C14.9663 46.4505 14.7505 47.1583 14.1809 47.4617C14.1758 47.4645 14.1705 47.4667 14.1653 47.4694C14.4987 55.0389 19.1395 62.0509 26.7267 66.3601C26.9341 66.478 27.1003 66.6562 27.2034 66.8712L31.5763 75.9962C31.6011 76.048 31.6275 76.0983 31.6556 76.1467C31.9834 75.4894 32.6402 75.0822 33.3769 75.0822C33.3769 75.0822 33.3769 75.0822 33.377 75.0822C34.1139 75.0822 34.7706 75.4892 35.0984 76.1467C35.1266 76.0981 35.1531 76.048 35.1778 75.9962L37.605 70.9316C37.8216 70.4797 38.302 70.2153 38.7992 70.2764C41.5802 70.6125 44.4277 70.6111 47.1941 70.2756C47.6916 70.215 48.172 70.4789 48.3886 70.9308L50.8161 75.9962C50.8409 76.048 50.8673 76.0983 50.8955 76.1467C51.2233 75.4894 51.88 75.0822 52.6167 75.0822C52.6167 75.0822 52.6167 75.0822 52.6169 75.0822C53.3538 75.0822 54.0105 75.4892 54.3383 76.1467C54.3664 76.0981 54.393 76.048 54.4177 75.9962L58.7966 66.8587C58.8995 66.6441 59.0655 66.4658 59.2725 66.3481C63.7187 63.8183 67.2163 60.3266 69.3875 56.2505C69.8667 55.3511 70.7914 54.7923 71.8009 54.7923H72.9369V49.1367C72.9369 48.4912 73.4602 47.968 74.1056 47.968C74.7511 47.968 75.2744 48.4911 75.2744 49.1367V54.7923H76.8934C77.3175 54.7923 77.6625 54.4473 77.6625 54.0233V42.7602C77.6625 42.3361 77.3175 41.9909 76.8933 41.9909H75.2742V43.5758C75.2742 44.2212 74.7509 44.7445 74.1055 44.7445C73.46 44.7445 72.9367 44.2214 72.9367 43.5758V41.9586C71.9425 41.8056 71.1008 41.1141 70.773 40.1411C69.4961 36.3534 67.1112 32.8964 63.8302 30.0527V38.6892C63.8302 39.2752 63.5705 39.8247 63.1175 40.197C62.6672 40.5683 62.0766 40.7147 61.5114 40.6025C55.945 39.5033 51.9048 34.5822 51.9048 28.9012C51.9048 27.2119 52.2645 25.5909 52.913 24.1164C49.7413 23.1503 46.4078 22.6598 42.99 22.6598C35.0347 22.6598 27.6245 25.293 22.1245 30.0739C21.9033 30.2662 21.6302 30.3606 21.3583 30.3606C21.0317 30.3606 20.7069 30.2244 20.4758 29.9587C20.0523 29.4716 20.1039 28.7334 20.5911 28.31C26.5164 23.1592 34.4711 20.3225 42.99 20.3225C46.8166 20.3225 50.5477 20.8998 54.0878 22.0356C55.8072 19.5967 58.4236 17.8098 61.5109 17.2003C62.0812 17.0877 62.6666 17.2352 63.117 17.6053C63.5702 17.9777 63.83 18.5273 63.83 19.1134V27.0469C68.2177 30.3687 71.3841 34.6375 72.9878 39.3952C73.0402 39.55 73.1872 39.6542 73.3538 39.6542H76.8934C78.6064 39.6534 80 41.047 80 42.76V54.0231C80 55.7359 78.6064 57.1297 76.8934 57.1297H71.8009C71.6569 57.1297 71.5225 57.2139 71.4505 57.3494C69.1236 61.7173 65.4277 65.4614 60.7483 68.1953L56.5259 77.0064C56.21 77.6658 55.7581 78.2134 55.1831 78.6342C54.7705 78.9361 54.25 79.0378 53.755 78.9137C53.2623 78.79 52.8537 78.4562 52.6342 77.9981L52.6172 77.9625L52.6002 77.998C52.3806 78.4561 51.9722 78.7898 51.4795 78.9137C50.9847 79.0378 50.4641 78.9361 50.0511 78.6342C49.4761 78.2134 49.0242 77.6658 48.7083 77.0064L46.6388 72.6878C44.2261 72.9244 41.7773 72.9256 39.3552 72.6884L37.2858 77.0064C36.9698 77.6658 36.5181 78.2134 35.9431 78.6342C35.5306 78.9361 35.01 79.0378 34.515 78.9137C34.0223 78.79 33.6138 78.4562 33.3942 77.9981L33.3772 77.9625L33.3603 77.998C33.1408 78.4561 32.7323 78.7898 32.2397 78.9137C31.7484 79.0375 31.2245 78.9372 30.8112 78.6342C30.2362 78.2134 29.7844 77.6658 29.4684 77.0064L25.2522 68.2084C17.3392 63.5937 12.4317 56.2094 11.8627 48.168C11.6398 48.1917 11.4159 48.2059 11.1912 48.2059C9.73609 48.2059 8.36828 47.6394 7.33937 46.6103L6.60985 45.8806L5.88016 46.6105C4.85125 47.6394 3.48328 48.2059 2.02828 48.2059C1.63328 48.2059 1.24125 48.1539 0.862968 48.0512C0.240158 47.8827 -0.127968 47.2406 0.0410919 46.6177ZM61.493 19.5983C57.2636 20.6577 54.2425 24.495 54.2425 28.9009C54.2425 33.3069 57.2638 37.1441 61.493 38.2036V19.5983ZM6.60453 39.4467C5.86016 39.4467 5.25453 40.0523 5.25453 40.7967C5.25797 41.1247 5.84953 41.9184 6.60422 42.6628C7.35234 41.9223 7.95125 41.1198 7.95469 40.7969C7.95453 40.0525 7.34891 39.4467 6.60453 39.4467Z" fill="white"/>
</svg>
