<svg width="89" height="84" viewBox="0 0 89 84" fill="none" xmlns="http://www.w3.org/2000/svg">
<path d="M49.2149 43.3793C52.4859 38.2715 54.4139 32.1079 54.4139 25.4482C54.4139 16.163 50.6809 7.83046 44.7587 1.99997C38.8367 7.83046 35.1035 16.163 35.1035 25.4482C35.1035 32.1079 37.0315 38.2715 40.3025 43.3793H49.2149Z" stroke="white" stroke-width="2.4" stroke-miterlimit="10" stroke-linecap="round" stroke-linejoin="round"/>
<path d="M50.2757 48.8966H39.2412L40.6205 43.3795H48.8964L50.2757 48.8966Z" stroke="white" stroke-width="2.4" stroke-miterlimit="10" stroke-linecap="round" stroke-linejoin="round"/>
<path d="M35.1032 32.3449L29.1656 39.4699C28.546 40.2136 28.2065 41.1508 28.2065 42.1189V46.138L38.0314 40.5943" stroke="white" stroke-width="2.4" stroke-miterlimit="10" stroke-linecap="round" stroke-linejoin="round"/>
<path d="M54.4136 32.3449L60.3511 39.4699C60.9707 40.2136 61.3102 41.1508 61.3102 42.1189V46.138L51.4854 40.5943" stroke="white" stroke-width="2.4" stroke-miterlimit="10" stroke-linecap="round" stroke-linejoin="round"/>
<path d="M37.8618 13.0345H51.6549" stroke="white" stroke-width="2.4" stroke-miterlimit="10" stroke-linecap="round" stroke-linejoin="round"/>
<path d="M73.3189 76.4824C73.5794 75.6078 73.724 74.6831 73.724 73.7238C73.724 68.3913 69.4011 64.0686 64.0688 64.0686C62.9619 64.0686 61.9028 64.2641 60.9124 64.607C59.9846 61.8941 57.4411 59.9306 54.4136 59.9306C52.7254 59.9306 51.1992 60.5611 50.0004 61.5683C50.1632 61.0477 50.2757 60.505 50.2757 59.9306C50.2757 56.8835 47.8057 54.4135 44.7586 54.4135C41.7114 54.4135 39.2412 56.8835 39.2412 59.9306C39.2412 60.505 39.3538 61.0477 39.5165 61.5683C38.3177 60.5611 36.7915 59.9306 35.1034 59.9306C32.0758 59.9306 29.5323 61.8941 28.6046 64.607C27.6141 64.2641 26.5551 64.0686 25.4482 64.0686C20.1158 64.0686 15.793 68.3913 15.793 73.7238C15.793 74.6831 15.9377 75.6078 16.198 76.4824" stroke="white" stroke-width="2.4" stroke-miterlimit="10" stroke-linecap="round" stroke-linejoin="round"/>
<path d="M48.8965 24.069C48.8965 26.3543 47.0439 28.2069 44.7586 28.2069C42.4733 28.2069 40.6206 26.3543 40.6206 24.069C40.6206 21.7838 42.4733 19.9312 44.7586 19.9312C47.0439 19.9312 48.8965 21.7838 48.8965 24.069Z" stroke="white" stroke-width="2.4" stroke-miterlimit="10" stroke-linecap="round" stroke-linejoin="round"/>
<path d="M59.9316 24.0691H76.4828C78.7682 24.0691 80.6208 25.9218 80.6208 28.207V76.483" stroke="#AAB7FF" stroke-width="2.4" stroke-miterlimit="10" stroke-linecap="round" stroke-linejoin="round"/>
<path d="M8.89648 76.482V28.206C8.89648 25.9208 10.7491 24.0681 13.0344 24.0681H29.5862" stroke="#AAB7FF" stroke-width="2.4" stroke-miterlimit="10" stroke-linecap="round" stroke-linejoin="round"/>
<path d="M25.4488 76.4824H87.5173V79.241C87.5173 80.7646 86.2822 81.9996 84.7585 81.9996H4.75858C3.23492 81.9996 2 80.7646 2 79.241V76.4824H19.9304" stroke="#AAB7FF" stroke-width="2.4" stroke-miterlimit="10" stroke-linecap="round" stroke-linejoin="round"/>
</svg>
