<svg width="125" height="122" viewBox="0 0 125 122" fill="none" xmlns="http://www.w3.org/2000/svg">
<path d="M40.5417 35.3335H23.1667C16.7958 35.3335 11.5833 30.121 11.5833 23.7502V12.1668C11.5833 5.796 16.7958 0.583496 23.1667 0.583496H40.5417C46.9125 0.583496 52.125 5.796 52.125 12.1668V23.7502C52.125 30.121 46.9125 35.3335 40.5417 35.3335Z" stroke="#EDDB38" stroke-width="2.5" stroke-linecap="round" stroke-linejoin="round"/>
<path d="M120.467 29.5417H99.6166C95.7941 29.5417 92.6667 26.4141 92.6667 22.5916V13.3251C92.6667 9.50257 95.7941 6.375 99.6166 6.375H120.467C124.289 6.375 127.417 9.50257 127.417 13.3251V22.5916C127.417 26.4141 124.289 29.5417 120.467 29.5417Z" stroke="#EDDB38" stroke-width="2.5" stroke-linecap="round" stroke-linejoin="round"/>
<path d="M120.467 72.9792H99.6166C95.7941 72.9792 92.6667 69.8516 92.6667 66.0291V56.7626C92.6667 52.9401 95.7941 49.8125 99.6166 49.8125H120.467C124.289 49.8125 127.417 52.9401 127.417 56.7626V66.0291C127.417 69.8516 124.289 72.9792 120.467 72.9792Z" stroke="#EDDB38" stroke-width="2.5" stroke-linecap="round" stroke-linejoin="round"/>
<path d="M52.125 17.9585H92.6667" stroke="#EDDB38" stroke-width="2.5" stroke-miterlimit="10" stroke-linecap="round" stroke-linejoin="round"/>
<path d="M72.3958 17.9585V93.2502C72.3958 99.621 77.6083 104.833 83.9792 104.833H92.6667" stroke="#EDDB38" stroke-width="2.5" stroke-miterlimit="10" stroke-linecap="round" stroke-linejoin="round"/>
<path d="M72.3958 61.396H92.6667" stroke="#EDDB38" stroke-width="2.5" stroke-miterlimit="10" stroke-linecap="round" stroke-linejoin="round"/>
<path d="M120.467 116.417H99.6166C95.7941 116.417 92.6667 113.289 92.6667 109.467V100.2C92.6667 96.3776 95.7941 93.25 99.6166 93.25H120.467C124.289 93.25 127.417 96.3776 127.417 100.2V109.467C127.417 113.289 124.289 116.417 120.467 116.417Z" stroke="#EDDB38" stroke-width="2.5" stroke-linecap="round" stroke-linejoin="round"/>
</svg>
