<svg width="80" height="80" viewBox="0 0 80 80" fill="none" xmlns="http://www.w3.org/2000/svg">
<path d="M47.1153 8.83674C52.6062 8.83674 57.3214 12.7519 58.3395 18.1458C58.4244 18.5822 58.8001 18.8852 59.2365 18.8852C59.2971 18.8852 59.3456 18.8852 59.4062 18.8731C59.9032 18.7761 60.2304 18.3034 60.1335 17.8064C58.9577 11.5519 53.4911 7.01855 47.1274 7.01855C46.6304 7.01855 46.2183 7.43068 46.2183 7.92765C46.2183 8.42462 46.6183 8.83674 47.1153 8.83674Z" fill="white" fill-opacity="0.6"/>
<path d="M40.0122 41.4795C35.588 41.4795 31.988 45.0795 31.988 49.5037C31.988 53.9159 35.588 57.5037 40.0122 57.5037C44.4244 57.5037 48.0123 53.9159 48.0123 49.5037C48.0123 45.0674 44.4244 41.4795 40.0122 41.4795ZM40.0122 55.6855C36.5941 55.6855 33.8062 52.9098 33.8062 49.5037C33.8062 46.0856 36.5819 43.2977 40.0122 43.2977C43.4183 43.2977 46.1941 46.0734 46.1941 49.5037C46.1941 52.9098 43.4183 55.6855 40.0122 55.6855Z" fill="white" fill-opacity="0.6"/>
<path d="M60.8729 43.6853C60.9577 43.6974 61.0304 43.7096 61.1153 43.6974C68.2547 42.7277 73.6365 36.5702 73.6365 29.3702C73.6365 23.8065 70.4365 18.752 65.4426 16.3399C63.6001 7.72168 55.9759 1.51562 47.1153 1.51562C40.691 1.51562 34.691 4.84896 31.2607 10.2793C30.1213 9.93987 28.9698 9.75805 27.8062 9.75805C21.1638 9.75805 15.7456 15.1641 15.7456 21.8187V21.855C10.4123 22.6793 6.36377 27.3096 6.36377 32.7883C6.36377 38.8853 11.3335 43.855 17.4304 43.855H25.6607C25.5032 44.2429 25.3577 44.6308 25.2365 45.0429L22.5092 45.4308C22.0607 45.4914 21.7335 45.8793 21.7335 46.3277V48.5944H16.1577C15.6607 48.5944 15.2486 49.0065 15.2486 49.5035V61.0065C13.0789 61.4308 11.4426 63.3459 11.4426 65.6368C11.4426 68.2429 13.5638 70.352 16.1577 70.352C18.7638 70.352 20.8729 68.2308 20.8729 65.6368C20.8729 63.3459 19.2365 61.4308 17.0668 61.0065V50.4126H21.7335V52.6793C21.7335 53.1277 22.0607 53.5156 22.5092 53.5762L25.2486 53.9641C25.5516 54.958 25.9395 55.8914 26.4001 56.7641L24.7516 58.9702C24.485 59.3338 24.5213 59.8429 24.8365 60.158L29.3213 64.655C29.6365 64.9702 30.1456 65.0065 30.5092 64.7399L32.7274 63.0914C33.6365 63.5762 34.5698 63.9641 35.5274 64.255L35.9274 66.9944C35.988 67.4429 36.3759 67.7702 36.8244 67.7702H39.091V69.152C36.9213 69.5762 35.285 71.4914 35.285 73.7823C35.285 76.3883 37.4062 78.4974 40.0001 78.4974C42.6062 78.4974 44.7153 76.3762 44.7153 73.7823C44.7153 71.4914 43.0789 69.5762 40.9092 69.152V67.758H43.1759C43.6244 67.758 44.0123 67.4308 44.0729 66.9823L44.4729 64.2429C45.4304 63.952 46.3638 63.5641 47.2729 63.0793L49.491 64.7399C49.8547 65.0065 50.3638 64.9702 50.6789 64.655L55.1638 60.158C55.4789 59.8429 55.5153 59.3338 55.2486 58.9702L53.6001 56.7641C54.0729 55.8914 54.4607 54.958 54.7516 53.9641L57.491 53.5762C57.9395 53.5156 58.2668 53.1277 58.2668 52.6793V50.4126H62.9213V61.0065C60.7516 61.4308 59.1153 63.3459 59.1153 65.6368C59.1153 68.2429 61.2365 70.352 63.8304 70.352C66.4365 70.352 68.5456 68.2308 68.5456 65.6368C68.5456 63.3459 66.9092 61.4308 64.7395 61.0065V49.5035C64.7395 49.0065 64.3274 48.5944 63.8304 48.5944H58.2668V46.3277C58.2668 45.8793 57.9395 45.4914 57.491 45.4308L54.7638 45.0429C54.6304 44.5944 54.4607 44.1459 54.291 43.7096H60.885V43.6853H60.8729ZM19.0668 65.6247C19.0668 67.2247 17.7698 68.5217 16.1698 68.5217C14.5698 68.5217 13.2729 67.2247 13.2729 65.6247C13.2729 64.0247 14.5698 62.7277 16.1698 62.7277C17.7698 62.7156 19.0668 64.0247 19.0668 65.6247ZM42.8971 73.7702C42.8971 75.3702 41.6001 76.6671 40.0001 76.6671C38.4001 76.6671 37.1032 75.3702 37.1032 73.7702C37.1032 72.1702 38.4001 70.8732 40.0001 70.8732C41.6001 70.8732 42.8971 72.1702 42.8971 73.7702ZM66.7274 65.6247C66.7274 67.2247 65.4304 68.5217 63.8304 68.5217C62.2304 68.5217 60.9335 67.2247 60.9335 65.6247C60.9335 64.0247 62.2304 62.7277 63.8304 62.7277C65.4304 62.7156 66.7274 64.0247 66.7274 65.6247ZM8.18195 32.7762C8.18195 27.952 11.9516 23.9035 16.7638 23.5641C17.0062 23.552 17.2244 23.4187 17.382 23.2368C17.5395 23.055 17.6123 22.8005 17.6001 22.558C17.5759 22.3156 17.5638 22.0732 17.5638 21.8308C17.5638 16.1823 22.1577 11.5884 27.8062 11.5884C29.0062 11.5884 30.1941 11.8065 31.3577 12.2308C31.7698 12.3884 32.2426 12.2187 32.4607 11.8308C35.4789 6.59441 41.1032 3.34593 47.1274 3.34593C55.2607 3.34593 62.2668 9.15199 63.7577 17.1399C63.8183 17.4308 64.0123 17.6853 64.2789 17.8065C68.8607 19.8308 71.8183 24.3762 71.8183 29.3823C71.8183 35.6732 67.1153 41.0671 60.8729 41.9156H53.8426L55.2486 40.0368C55.5153 39.6732 55.4789 39.1641 55.1638 38.849L50.6789 34.352C50.3638 34.0368 49.8547 34.0005 49.491 34.2671L47.2729 35.8914C46.388 35.4187 45.4547 35.0308 44.4729 34.7277L44.0729 31.9883C44.0123 31.5399 43.6244 31.2126 43.1759 31.2126H36.8244C36.3759 31.2126 35.988 31.5399 35.9274 31.9883L35.5274 34.7277C34.5456 35.0187 33.6123 35.4065 32.7274 35.8914L30.5213 34.2308C30.1577 33.9641 29.6486 34.0005 29.3335 34.3156L24.8486 38.8126C24.5335 39.1277 24.4971 39.6368 24.7638 40.0005L26.2668 42.0126H17.4426C12.3395 42.0247 8.18195 37.8793 8.18195 32.7762ZM56.4486 47.1035V51.8793L53.9153 52.2429C53.5517 52.2914 53.2607 52.558 53.1638 52.9096C52.8365 54.158 52.3517 55.3217 51.7335 56.3641C51.5395 56.6793 51.5638 57.0793 51.782 57.3702L53.3214 59.4187L49.9395 62.8005L47.891 61.2611C47.6001 61.0429 47.2123 61.0187 46.885 61.2005C45.782 61.8429 44.6183 62.3277 43.4183 62.6308C43.0668 62.7277 42.8001 63.0187 42.7517 63.3823L42.3759 65.9277H37.6001L37.2244 63.3823C37.1759 63.0187 36.9092 62.7277 36.5577 62.6308C35.3698 62.3156 34.1941 61.8308 33.091 61.2005C32.7759 61.0187 32.388 61.0429 32.085 61.2611L30.0365 62.8005L26.6547 59.4187L28.1941 57.3702C28.4123 57.0793 28.4365 56.6793 28.2426 56.3641C27.6244 55.3217 27.1395 54.158 26.8123 52.9096C26.7153 52.558 26.4244 52.2914 26.0607 52.2429L23.5274 51.8793V47.1035L26.0607 46.7399C26.4244 46.6914 26.7153 46.4247 26.8123 46.0732C27.1395 44.8368 27.6123 43.6732 28.2426 42.6187C28.4365 42.3035 28.4123 41.9035 28.1941 41.6126L26.6547 39.5641L30.0365 36.1823L32.085 37.7217C32.3759 37.9399 32.7759 37.9641 33.091 37.7823C34.1577 37.152 35.3213 36.6793 36.5456 36.352C36.8971 36.255 37.1638 35.9641 37.2123 35.6005L37.588 33.055H42.3638L42.7395 35.6005C42.788 35.9641 43.0547 36.255 43.4062 36.352C44.6426 36.6793 45.7941 37.152 46.8607 37.7823C47.1759 37.9641 47.5759 37.952 47.8668 37.7217L49.9153 36.1823L53.2971 39.5641L51.7577 41.6126C51.5395 41.9035 51.5153 42.3035 51.7092 42.6187C52.3395 43.6611 52.8123 44.8247 53.1395 46.0732C53.2365 46.4247 53.5274 46.6914 53.891 46.7399L56.4486 47.1035Z" fill="white"/>
</svg>
