<svg width="105" height="100" viewBox="0 0 105 100" fill="none" xmlns="http://www.w3.org/2000/svg">
<path d="M70.0605 33.1338C71.6283 33.1338 73.1961 33.7217 74.372 34.9256L77.8995 38.4531L74.372 34.9256C73.1961 33.7217 71.6283 33.1338 70.0605 33.1338Z" fill="url(#paint0_linear_1475_33706)"/>
<path d="M35.5693 37.389C39.4887 33.4695 45.8719 33.4695 49.7913 37.389L52.7589 40.3566L61.9697 31.1458C66.4211 26.6944 73.7001 26.6944 78.1515 31.1458L81.679 34.6734L90.5259 25.8265L71.2365 6.53714C65.6932 0.993886 56.5944 0.993886 51.0232 6.53714L11.2405 46.3758C6.50917 51.0791 5.83726 58.3582 9.14081 63.8454L9.2528 63.7334L35.5693 37.389Z" fill="url(#paint1_linear_1475_33706)"/>
<path d="M87.5583 72.0483C83.6388 75.9678 77.2557 75.9678 73.3362 72.0483L69.8367 68.5208L58.2182 80.1392C53.7668 84.5906 46.4878 84.5906 42.0364 80.1392L39.0408 77.1436L30.418 85.7665L48.1396 103.488C53.6828 109.031 62.7816 109.031 68.3529 103.488L108.191 63.6774C112.335 59.534 113.399 53.4028 111.355 48.2795L110.067 49.5673L87.5583 72.0483Z" fill="url(#paint2_linear_1475_33706)"/>
<path d="M54.4385 76.3601C53.8505 76.948 53.1506 77.3959 52.4227 77.7039C51.6948 78.0119 50.9109 78.1518 50.1271 78.1518C48.5593 78.1518 46.9915 77.5639 45.8156 76.3601L42.82 73.3645L39.3765 69.9209C38.1727 68.7171 37.5847 67.1773 37.5847 65.6095C37.5847 64.8256 37.7247 64.0417 38.0327 63.3138C38.3406 62.5859 38.7886 61.886 39.3765 61.2981L56.5382 44.1364L65.7489 34.9257C66.6448 34.0298 67.7367 33.4699 68.9125 33.2459C69.3045 33.1619 69.6964 33.1339 70.0884 33.1339C71.6562 33.1339 73.2239 33.7218 74.3998 34.9257L77.9273 38.4532L81.7068 34.6737L78.1793 31.1462C73.7279 26.6948 66.4489 26.6948 61.9974 31.1462L52.7587 40.3569L35.597 57.5186C34.7571 58.3585 34.0852 59.2824 33.5533 60.2902C33.3853 60.6262 33.2173 60.9622 33.0773 61.2981C31.8175 64.4057 31.9855 67.9332 33.5533 70.9288C34.0852 71.9367 34.7571 72.8606 35.597 73.7004L39.0405 77.144L42.0361 80.1396C46.4875 84.591 53.7666 84.591 58.218 80.1396L69.8364 68.5211L66.0569 64.7416L54.4385 76.3601Z" fill="white"/>
<path d="M9.25261 63.7051L9.14062 63.8171C9.22461 63.957 9.28061 64.097 9.36459 64.209C9.3366 64.069 9.28061 63.9011 9.25261 63.7051Z" fill="#5B2D82"/>
<path d="M65.9449 50.4355L77.9273 38.4531L74.3997 34.9256C73.1959 33.7217 71.6561 33.1338 70.0883 33.1338C69.6964 33.1338 69.3044 33.1618 68.9125 33.2458C67.7646 33.4697 66.6448 34.0297 65.7489 34.9256L56.5381 44.1363L57.1821 44.7802C61.1015 48.6997 61.1015 55.0828 57.1821 59.0023L42.792 73.3924L45.7876 76.388C46.9914 77.5918 48.5312 78.1797 50.099 78.1797C50.8829 78.1797 51.6668 78.0398 52.3947 77.7318C53.1226 77.4238 53.8225 76.9759 54.4104 76.388L66.0289 64.7695L65.9169 64.6575C62.0254 60.7381 62.0254 54.3549 65.9449 50.4355Z" fill="url(#paint3_linear_1475_33706)"/>
<path d="M65.9449 50.4355L77.9273 38.4531L74.3997 34.9256C73.1959 33.7217 71.6561 33.1338 70.0883 33.1338C69.6964 33.1338 69.3044 33.1618 68.9125 33.2458C67.7646 33.4697 66.6448 34.0297 65.7489 34.9256L56.5381 44.1363L57.1821 44.7802C61.1015 48.6997 61.1015 55.0828 57.1821 59.0023L42.792 73.3924L45.7876 76.388C46.9914 77.5918 48.5312 78.1797 50.099 78.1797C50.8829 78.1797 51.6668 78.0398 52.3947 77.7318C53.1226 77.4238 53.8225 76.9759 54.4104 76.388L66.0289 64.7695L65.9169 64.6575C62.0254 60.7381 62.0254 54.3549 65.9449 50.4355Z" fill="url(#paint4_linear_1475_33706)"/>
<path d="M54.4386 76.3594C53.8507 76.9473 53.1508 77.3952 52.4229 77.7032C53.1508 77.4232 53.8507 76.9753 54.4386 76.3594Z" fill="white"/>
<path d="M54.4386 76.3594C53.8507 76.9473 53.1508 77.3952 52.4229 77.7032C53.1508 77.4232 53.8507 76.9753 54.4386 76.3594Z" fill="url(#paint5_linear_1475_33706)"/>
<path d="M42.8203 73.3926L45.8159 76.3882C47.0197 77.592 48.5595 78.1799 50.1273 78.1799C48.5595 78.1799 46.9918 77.592 45.8159 76.3882L42.8203 73.3926Z" fill="white"/>
<path d="M42.8203 73.3926L45.8159 76.3882C47.0197 77.592 48.5595 78.1799 50.1273 78.1799C48.5595 78.1799 46.9918 77.592 45.8159 76.3882L42.8203 73.3926Z" fill="url(#paint6_linear_1475_33706)"/>
<path d="M65.749 34.9249C66.6449 34.029 67.7368 33.4691 68.9126 33.2451C67.7368 33.4691 66.6169 34.029 65.749 34.9249Z" fill="white"/>
<path d="M65.749 34.9249C66.6449 34.029 67.7368 33.4691 68.9126 33.2451C67.7368 33.4691 66.6169 34.029 65.749 34.9249Z" fill="url(#paint7_linear_1475_33706)"/>
<path d="M11.2407 66.5613C10.5128 65.8334 9.89687 65.0495 9.36494 64.2376C9.28095 64.0977 9.19696 63.9577 9.14097 63.8457L5.36148 67.6252C1.44201 71.5447 1.44201 77.9278 5.36148 81.8473L12.7245 89.2383C15.8881 92.4019 20.6474 93.0178 24.4269 91.086C25.3228 90.6101 26.1907 90.0222 26.9466 89.2383L29.2983 86.8866L30.1381 86.0467L30.4181 85.7668L11.2407 66.5613Z" fill="#2C256C"/>
<path d="M35.5974 73.7001C34.7575 72.8602 34.0856 71.9363 33.5537 70.9285C31.9859 67.9329 31.8179 64.4053 33.0777 61.2978C33.2177 60.9618 33.3857 60.6258 33.5537 60.2899C34.0856 59.282 34.7575 58.3582 35.5974 57.5183L52.7591 40.3566L49.7915 37.389C45.872 33.4695 39.4889 33.4695 35.5694 37.389L9.25293 63.7054C9.28093 63.8734 9.33692 64.0414 9.36491 64.2374C9.89684 65.0493 10.5128 65.8331 11.2407 66.561L30.4461 85.7665L39.0689 77.1436L35.5974 73.7001Z" fill="#5B2D82"/>
<path d="M33.0773 61.2974C31.8175 64.405 31.9855 67.9325 33.5533 70.9281C31.9855 67.9325 31.8175 64.405 33.0773 61.2974ZM42.82 73.3918L57.2101 59.0017C61.1296 55.0823 61.1296 48.6991 57.2101 44.7797L56.5662 44.1357L39.4045 61.2974C38.8166 61.8854 38.3686 62.5853 38.0607 63.3132C37.7527 64.0411 37.6127 64.825 37.6127 65.6089C37.6127 67.1766 38.2007 68.7444 39.4045 69.9203L42.82 73.3918Z" fill="#5B2D82"/>
<path d="M39.3484 69.9207C38.1446 68.7168 37.5566 67.1771 37.5566 65.6093C37.5846 67.1771 38.1726 68.7448 39.3484 69.9207L42.7919 73.3642L39.3484 69.9207ZM39.3764 61.2979C38.7885 61.8858 38.3405 62.5857 38.0326 63.3136C38.3125 62.5857 38.7605 61.8858 39.3764 61.2979Z" fill="#5B2D82"/>
<path d="M77.9278 38.4531L65.9455 50.4355C62.026 54.355 62.026 60.7381 65.9455 64.6576L66.0574 64.7696L80.8115 50.0156C81.7073 49.1197 82.2673 48.0278 82.4912 46.852C82.5752 46.46 82.6032 46.0681 82.6032 45.6762C82.6032 44.1084 82.0153 42.5406 80.8115 41.3647L77.9278 38.4531Z" fill="#2C256C"/>
<path d="M80.8115 49.9868C81.7074 49.0909 82.2673 47.9991 82.4913 46.8232C82.2673 47.9991 81.7074 49.0909 80.8115 49.9868Z" fill="#2C256C"/>
<path d="M80.811 41.3647C82.0149 42.5686 82.6028 44.1084 82.6028 45.6762C82.6028 44.1084 82.0149 42.5406 80.811 41.3647L77.8994 38.4531L80.811 41.3647ZM84.5905 53.7671C85.7104 52.6472 86.5503 51.3594 87.1102 49.9876C86.5503 51.3594 85.7104 52.6472 84.5905 53.7671Z" fill="#623393"/>
<path d="M87.1098 49.9868C87.2498 49.6509 87.3618 49.2869 87.4738 48.951C88.6216 45.0595 87.6697 40.6641 84.5902 37.6125L81.6785 34.7009L77.899 38.4804L80.8107 41.392C82.0145 42.5958 82.6024 44.1356 82.6024 45.7034C82.6024 46.0954 82.5744 46.4873 82.4904 46.8792C82.2665 48.0271 81.7065 49.1469 80.8107 50.0428L66.0566 64.7968L69.8361 68.5763L84.5902 53.8223C85.71 52.6465 86.5499 51.3586 87.1098 49.9868ZM117.794 27.5618L110.403 20.1708C106.707 16.4753 100.856 16.2514 96.9085 19.5269C96.6565 19.7229 96.4046 19.9469 96.1806 20.1988L91.4212 24.9582L90.5813 25.7981L90.5533 25.8261L108.191 43.4637C108.639 43.9116 109.059 44.4156 109.423 44.9195C110.207 45.9554 110.851 47.0752 111.327 48.2791L117.794 41.8119C121.713 37.8645 121.713 31.5093 117.794 27.5618Z" fill="#623393"/>
<path d="M84.5909 37.5852C87.6705 40.6648 88.6224 45.0322 87.4745 48.9237C87.3626 49.2877 87.2506 49.6236 87.1106 49.9596C86.5507 51.3314 85.7108 52.6192 84.5909 53.7391L69.8369 68.5211L73.3364 72.0206C77.2559 75.9401 83.6391 75.9401 87.5585 72.0206L110.04 49.5396C109.9 47.9718 109.704 46.4321 109.424 44.8923C109.032 44.3883 108.64 43.9124 108.192 43.4365L90.5541 25.7988L81.7073 34.6456L84.5909 37.5852Z" fill="#2C256C"/>
<path d="M84.5903 37.5845C87.6699 40.664 88.6218 45.0315 87.4739 48.9229C88.6218 45.0315 87.6699 40.664 84.5903 37.5845L81.6787 34.6729L84.5903 37.5845Z" fill="#2C256C"/>
<defs>
<linearGradient id="paint0_linear_1475_33706" x1="27.2187" y1="82.5855" x2="87.2369" y2="22.5652" gradientUnits="userSpaceOnUse">
<stop stop-color="#623393"/>
<stop offset="0.574" stop-color="#452B7C"/>
<stop offset="1" stop-color="#2C256C"/>
</linearGradient>
<linearGradient id="paint1_linear_1475_33706" x1="15.8233" y1="71.1903" x2="75.8416" y2="11.17" gradientUnits="userSpaceOnUse">
<stop stop-color="#754FA0"/>
<stop offset="0.181" stop-color="#6E4A99"/>
<stop offset="0.457" stop-color="#5C3F8B"/>
<stop offset="0.791" stop-color="#413079"/>
<stop offset="1" stop-color="#2C256C"/>
</linearGradient>
<linearGradient id="paint2_linear_1475_33706" x1="44.3421" y1="99.708" x2="104.36" y2="39.6879" gradientUnits="userSpaceOnUse">
<stop stop-color="#754FA0"/>
<stop offset="0.181" stop-color="#6E4A99"/>
<stop offset="0.457" stop-color="#5C3F8B"/>
<stop offset="0.791" stop-color="#413079"/>
<stop offset="1" stop-color="#2C256C"/>
</linearGradient>
<linearGradient id="paint3_linear_1475_33706" x1="30.1962" y1="85.5632" x2="90.2145" y2="25.5429" gradientUnits="userSpaceOnUse">
<stop stop-color="#623393"/>
<stop offset="0.574" stop-color="#452B7C"/>
<stop offset="1" stop-color="#2C256C"/>
</linearGradient>
<linearGradient id="paint4_linear_1475_33706" x1="24.5063" y1="91.2534" x2="96.5858" y2="19.1713" gradientUnits="userSpaceOnUse">
<stop stop-color="#754FA0"/>
<stop offset="0.181" stop-color="#6E4A99"/>
<stop offset="0.457" stop-color="#5C3F8B"/>
<stop offset="0.791" stop-color="#413079"/>
<stop offset="1" stop-color="#2C256C"/>
</linearGradient>
<linearGradient id="paint5_linear_1475_33706" x1="31.8773" y1="98.6235" x2="103.957" y2="26.5415" gradientUnits="userSpaceOnUse">
<stop stop-color="#623393"/>
<stop offset="0.574" stop-color="#452B7C"/>
<stop offset="1" stop-color="#2C256C"/>
</linearGradient>
<linearGradient id="paint6_linear_1475_33706" x1="27.759" y1="94.5059" x2="99.8384" y2="22.4238" gradientUnits="userSpaceOnUse">
<stop stop-color="#623393"/>
<stop offset="0.574" stop-color="#452B7C"/>
<stop offset="1" stop-color="#2C256C"/>
</linearGradient>
<linearGradient id="paint7_linear_1475_33706" x1="17.3346" y1="84.0813" x2="89.4142" y2="11.9992" gradientUnits="userSpaceOnUse">
<stop stop-color="#623393"/>
<stop offset="0.574" stop-color="#452B7C"/>
<stop offset="1" stop-color="#2C256C"/>
</linearGradient>
</defs>
</svg>
