<svg width="92" height="100" viewBox="0 0 92 100" fill="none" xmlns="http://www.w3.org/2000/svg">
<path d="M30.0361 26.6496C29.9103 26.5303 29.7733 26.4018 29.6379 26.2718C26.8622 23.6051 24.7141 20.5218 23.4166 16.8773C23.0534 15.8573 22.7792 14.817 22.8279 13.7184C22.8325 13.6142 22.8322 13.5096 22.8394 13.4055C22.9373 11.9874 23.8864 11.2708 25.2722 11.6067C25.7093 11.7199 26.1323 11.882 26.5331 12.0899C28.049 12.8501 29.2845 13.9739 30.4206 15.2064C32.4386 17.3539 34.057 19.8445 35.1995 22.5609C35.2244 22.6256 35.253 22.6889 35.2852 22.7503C35.3008 22.7786 35.3341 22.7971 35.4082 22.8645C40.8168 19.6196 46.9349 17.7423 53.2326 17.3951C53.1938 17.2024 53.1706 17.055 53.1341 16.9111C52.4915 14.2519 52.2943 11.5045 52.5505 8.7807C52.6632 7.14847 52.992 5.53841 53.5283 3.99266C53.7877 3.17852 54.1962 2.41972 54.7331 1.75496C54.9359 1.51752 55.17 1.3087 55.429 1.13423C55.687 0.951806 55.9947 0.852826 56.3107 0.850624C56.6266 0.848421 56.9357 0.943101 57.1962 1.12191C57.7466 1.49473 58.1896 2.00539 58.481 2.60292C59.0238 3.61631 59.4139 4.70434 59.6387 5.83176C60.1512 8.2158 60.3086 10.6625 60.1057 13.0925C60.0053 14.5757 59.7478 16.044 59.3378 17.4729C60.9046 17.7615 62.4639 17.9852 63.9902 18.3479C65.5131 18.702 67.0146 19.143 68.4871 19.6686C69.9717 20.2135 71.4239 20.8429 72.8366 21.5539C74.2326 22.25 75.5614 23.0808 76.9545 23.8723C76.9997 23.777 77.0654 23.6633 77.1098 23.5418C78.5608 19.5279 81.0601 15.9757 84.3479 13.2541C85.1155 12.5952 85.9969 12.082 86.9488 11.7399C87.2109 11.6485 87.4823 11.5861 87.758 11.5539C89.1361 11.3961 89.7146 12.2633 89.8164 13.2989C89.8928 14.0624 89.8352 14.8333 89.6462 15.577C89.1429 17.4978 88.3466 19.3297 87.2856 21.0082C85.7918 23.422 84.0186 25.5963 81.7651 27.3509C81.6986 27.4027 81.6402 27.4649 81.5276 27.5688C83.7317 29.6018 85.6947 31.8814 87.378 34.3629C87.256 34.3944 87.1318 34.4163 87.0064 34.4284C84.6754 34.4317 82.3444 34.4244 80.0135 34.4385C79.8762 34.4352 79.7416 34.3999 79.6204 34.3354C79.4992 34.2708 79.3948 34.1788 79.3155 34.0667C74.2297 28.5103 67.3733 24.8909 59.9164 23.8261C57.7112 23.5052 55.4783 23.419 53.2549 23.5688C46.6254 23.9736 40.2831 26.418 35.0967 30.5672C33.7575 31.6235 32.5083 32.7893 31.362 34.0524C31.2602 34.1786 31.1304 34.2793 30.9828 34.3464C30.8352 34.4135 30.674 34.4452 30.512 34.439C28.2855 34.4235 26.0588 34.4313 23.8322 34.4313H23.3587C23.4947 33.9016 24.8636 32.025 26.4131 30.3497C27.5686 29.1004 28.7928 27.9145 30.0361 26.6496Z" fill="white"/>
<path d="M86.7962 76.5408C85.2476 78.7083 83.4803 80.7108 81.522 82.5168C81.6781 82.6467 81.8049 82.7523 81.9317 82.8579C85.3306 85.6384 87.8951 89.3039 89.342 93.45C89.727 94.4611 89.8921 95.5425 89.8265 96.6224C89.8062 96.8991 89.7509 97.172 89.6619 97.4347C89.5501 97.8068 89.3056 98.1249 88.9747 98.3286C88.6439 98.5323 88.2498 98.6074 87.8672 98.5398C87.3509 98.4728 86.8487 98.3238 86.3794 98.0984C85.6626 97.7448 84.9855 97.3159 84.3594 96.8191C81.0619 94.1097 78.5583 90.5593 77.1135 86.5435C77.0723 86.4305 77.0272 86.319 76.9546 86.1306C75.1986 87.2916 73.3594 88.3217 71.4519 89.2123C69.5537 90.0775 67.5907 90.7928 65.5808 91.3516C63.5386 91.9058 61.4568 92.3021 59.3538 92.537C59.3908 92.7218 59.412 92.8692 59.45 93.012C60.1171 95.6287 60.338 98.3393 60.1036 101.029C60.0157 102.716 59.6881 104.381 59.1306 105.974C58.8652 106.634 58.5592 107.277 58.2143 107.898C58.0746 108.139 57.9014 108.359 57.6998 108.552C56.8242 109.456 55.7787 109.464 54.9253 108.536C54.588 108.161 54.2992 107.746 54.0657 107.3C53.3888 106.029 53.0405 104.647 52.7917 103.239C52.4716 101.315 52.3713 99.3621 52.4928 97.4163C52.5589 95.9913 52.7716 94.5769 53.1274 93.1955C53.1582 93.0783 53.1863 92.9602 53.2091 92.8412C53.2149 92.811 53.1951 92.7758 53.1715 92.6788C46.8748 92.323 40.7601 90.4355 35.3584 87.1802C35.2683 87.3802 35.1908 87.5486 35.1161 87.7183C33.6023 91.2505 31.2724 94.3734 28.3178 96.8307C27.5357 97.4992 26.6373 98.0181 25.6675 98.3617C25.213 98.5441 24.717 98.5974 24.2341 98.5158C23.9675 98.468 23.7178 98.3519 23.5095 98.1788C23.3011 98.0057 23.1412 97.7815 23.0454 97.5282C22.7339 96.7749 22.7891 95.9915 22.8949 95.2145C23.0684 94.1316 23.3872 93.0771 23.8425 92.0794C25.1918 88.9369 27.1777 86.1081 29.675 83.7715C29.776 83.6759 29.8796 83.583 29.9788 83.4856C30.0103 83.4404 30.0372 83.3921 30.0592 83.3415C27.7062 81.3008 25.6038 78.9881 23.796 76.4518C24.0126 76.4341 24.1575 76.4122 24.3024 76.412C26.6156 76.4099 28.9288 76.4181 31.2419 76.4025C31.3957 76.3978 31.5487 76.4274 31.6896 76.4893C31.8306 76.5512 31.956 76.6438 32.0566 76.7602C34.5713 79.3473 37.5013 81.4952 40.7252 83.1149C44.1359 84.87 47.8445 85.9723 51.6601 86.3651C62.0266 87.3728 70.9439 84.2301 78.412 76.9371C78.5791 76.7566 78.7837 76.6148 79.0115 76.522C79.2393 76.4291 79.4847 76.3873 79.7304 76.3995C81.8867 76.4262 84.0435 76.4105 86.2002 76.4105H86.7575L86.7962 76.5408Z" fill="white"/>
<path d="M77.1621 43.5075C77.7753 43.5075 78.3656 43.5491 78.9474 43.4964C79.6063 43.4368 80.078 43.6724 80.5586 44.1153C83.3334 46.6722 86.1372 49.1976 88.9315 51.7333C89.072 51.8608 89.2154 51.9851 89.3957 52.1447C89.5639 52.0002 89.7216 51.8712 89.872 51.7343C92.7523 49.1123 95.6305 46.488 98.5066 43.8613C98.6259 43.7383 98.7702 43.6424 98.9297 43.58C99.0892 43.5175 99.2603 43.49 99.4314 43.4992C100.14 43.5279 100.85 43.5075 101.596 43.5075V66.6886C101.217 66.7994 96.1238 66.8214 95.5158 66.702V54.9624L95.3978 54.9064C93.4154 56.7144 91.433 58.5223 89.4055 60.3714C87.3758 58.5429 85.3702 56.7362 83.3647 54.9295L83.2493 54.9718C83.2443 55.9515 83.2476 56.9316 83.247 57.9115C83.2464 58.8852 83.2464 59.859 83.2469 60.8328V66.7447H77.2127C77.0996 66.3546 77.0471 44.819 77.1621 43.5075Z" fill="white"/>
<path d="M21.4796 43.5341H27.4775C27.5986 43.9197 27.6223 66.1878 27.4983 66.7496H21.4951C21.462 65.2749 21.4847 63.8052 21.4805 62.3361C21.4764 60.8792 21.4796 59.4222 21.4796 57.9274H14.0463V66.6704C13.5933 66.8057 8.47291 66.8187 7.96387 66.6974V43.5368H14.0223V51.7183C14.4552 51.8434 20.8254 51.8664 21.4741 51.7468C21.4759 51.0918 21.4785 50.421 21.4794 49.7501C21.4803 49.0544 21.4804 48.3587 21.4796 47.663C21.4796 46.9847 21.4796 46.3064 21.4796 45.628C21.4796 44.9508 21.4796 44.2736 21.4796 43.5341Z" fill="white"/>
<path d="M34.667 66.7407V43.6025C35.0227 43.486 48.2069 43.4406 49.0687 43.5575V48.4886C48.8754 48.5025 48.6758 48.5289 48.4763 48.5292C46.1283 48.5321 43.7804 48.5328 41.4325 48.5311H40.7796V52.3665H48.1158V57.4687H40.8452C40.7234 57.9054 40.69 60.9484 40.7888 61.7908C40.9747 61.8033 41.1738 61.8281 41.373 61.8283C43.7209 61.831 46.0688 61.8316 48.4168 61.8301H49.0701V66.7407H34.667Z" fill="white"/>
<path d="M55.9425 66.7499C55.8324 66.129 55.8546 43.9576 55.964 43.5361H61.9396V60.6443C62.1974 60.6577 62.3997 60.6772 62.602 60.6773C64.9674 60.6795 67.3329 60.68 69.6983 60.6788C69.902 60.6788 70.1056 60.6788 70.3379 60.6788V66.75L55.9425 66.7499Z" fill="white"/>
</svg>
