<svg width="92" height="100" viewBox="0 0 92 100" fill="none" xmlns="http://www.w3.org/2000/svg">
<path d="M79.8976 23.5292L79.4859 23.2716L50.7709 2.34961L2.65527 38.525L11.8153 45.2757L51.2855 74.1336L99.4526 37.9066L79.8976 23.5292ZM15.7777 31.6713L41.7138 12.1407L48.9183 17.3969L22.9822 36.9791L15.7777 31.6713ZM58.3356 52.181L51.1826 57.5403L25.0406 38.4219L50.9767 18.9429L67.8558 31.3105L49.0727 45.4303L58.3356 52.181ZM69.8628 32.7534L77.0673 38.0097L60.3426 50.6865L53.1381 45.4303L69.8628 32.7534ZM80.5151 38.5765L80.9783 38.1643L81.1326 38.0612L71.8697 31.3105L79.0228 25.9512L95.4901 37.9582L69.554 57.4887L62.401 52.2325L80.5151 38.5765ZM69.8628 29.7646L43.7208 10.6462L50.8224 5.28693L76.9643 24.4053L69.8628 29.7646ZM13.7708 33.1657L20.9752 38.4219L13.8737 43.7813L6.6692 38.4735L13.7708 33.1657ZM23.0337 39.9679L49.2271 59.1378L42.1255 64.4456L15.9321 45.2757L23.0337 39.9679ZM60.394 53.6754L67.5471 58.9316L51.2855 71.1447L44.1325 65.8885L60.394 53.6754Z" fill="#00B0AD"/>
<path d="M51.0801 107.989C50.8228 107.989 50.5655 107.886 50.3082 107.732L2.913 73.7208C2.03817 72.9478 1.88379 71.608 2.6557 70.7319L2.913 70.4743L26.5849 53.4688L28.0772 56.7153L6.66963 72.0718L51.0286 103.918L95.3876 72.0718L74.0315 56.7153L75.5239 53.4688L99.1957 70.4743C100.071 71.2473 100.225 72.5871 99.453 73.4631L99.1957 73.7208L51.8005 107.732C51.6462 107.886 51.3374 107.989 51.0801 107.989Z" fill="url(#paint0_linear_1475_5743)"/>
<path d="M51.0801 73.9785C50.8228 73.9785 50.5655 73.8754 50.3082 73.7208L2.913 39.7098C2.03817 38.9368 1.88379 37.5969 2.6557 36.7209L2.913 36.4632L50.3082 2.45218C50.7713 2.09146 51.3889 2.09146 51.8005 2.45218L99.1957 36.4632C100.071 37.2362 100.225 38.576 99.453 39.4521L99.1957 39.7098L51.8005 73.7208C51.6462 73.8754 51.3374 73.9785 51.0801 73.9785ZM6.77255 38.1123L51.1316 69.959L95.4906 38.1123L51.1316 6.26554L6.77255 38.1123Z" fill="url(#paint1_linear_1475_5743)"/>
<path d="M2.19238 38.1123H5.22856V72.1234H2.19238V38.1123Z" fill="url(#paint2_linear_1475_5743)"/>
<defs>
<linearGradient id="paint0_linear_1475_5743" x1="51.0899" y1="136.914" x2="51.0899" y2="33.3249" gradientUnits="userSpaceOnUse">
<stop stop-color="#D1E1D7"/>
<stop offset="1" stop-color="#00B0AD"/>
</linearGradient>
<linearGradient id="paint1_linear_1475_5743" x1="51.0899" y1="136.914" x2="51.0899" y2="33.3249" gradientUnits="userSpaceOnUse">
<stop stop-color="#D1E1D7"/>
<stop offset="1" stop-color="#00B0AD"/>
</linearGradient>
<linearGradient id="paint2_linear_1475_5743" x1="3.71664" y1="136.908" x2="3.71664" y2="33.3193" gradientUnits="userSpaceOnUse">
<stop stop-color="#D1E1D7"/>
<stop offset="1" stop-color="#00B0AD"/>
</linearGradient>
</defs>
</svg>
