<svg width="92" height="100" viewBox="0 0 92 100" fill="none" xmlns="http://www.w3.org/2000/svg">
<path d="M71.5003 38.4997V25.6663C71.5003 21.2903 69.7619 17.0934 66.6676 13.9991C63.5732 10.9047 59.3764 9.16634 55.0003 9.16634C50.6243 9.16634 46.4274 10.9047 43.3331 13.9991C40.2387 17.0934 38.5003 21.2903 38.5003 25.6663V38.4997H31.167V25.6663C31.167 19.3453 33.678 13.2832 38.1476 8.81363C42.6172 4.34401 48.6793 1.83301 55.0003 1.83301C58.1302 1.83301 61.2294 2.44948 64.1209 3.64721C67.0125 4.84495 69.6399 6.6005 71.853 8.81363C74.0662 11.0268 75.8217 13.6541 77.0195 16.5457C78.2172 19.4373 78.8337 22.5365 78.8337 25.6663V38.4997H71.5003Z" fill="#86A9AF"/>
<path d="M93.5 49.4993V68.7494C93.5 89.6274 77.2603 107.409 56.3952 108.146C51.2248 108.333 46.0697 107.477 41.2378 105.627C36.4058 103.778 31.9962 100.974 28.2724 97.3819C24.5485 93.7901 21.5868 89.4846 19.5641 84.7226C17.5414 79.9606 16.4993 74.8398 16.5 69.666V49.4993C16.5 46.0957 17.8521 42.8315 20.2588 40.4248C22.6655 38.0181 25.9297 36.666 29.3333 36.666H80.6667C84.0703 36.666 87.3345 38.0181 89.7412 40.4248C92.1479 42.8315 93.5 46.0957 93.5 49.4993Z" fill="#89D461"/>
<path d="M54.9993 58.6667C56.5518 58.713 58.0391 59.3013 59.2032 60.3295C59.549 60.6635 60.0121 60.8482 60.4928 60.8441C60.9734 60.8399 61.4333 60.6471 61.7732 60.3072C62.1131 59.9673 62.3059 59.5074 62.3101 59.0267C62.3143 58.546 62.1295 58.0829 61.7955 57.7372C59.9416 56.0235 57.5234 55.0496 54.9993 55C53.0544 55 51.1892 55.7726 49.8139 57.1479C48.4386 58.5232 47.666 60.3884 47.666 62.3333C47.666 64.2783 48.4386 66.1435 49.8139 67.5188C51.1892 68.894 53.0544 69.6667 54.9993 69.6667C55.9718 69.6667 56.9044 70.053 57.5921 70.7406C58.2797 71.4282 58.666 72.3609 58.666 73.3333C58.666 74.3058 58.2797 75.2384 57.5921 75.9261C56.9044 76.6137 55.9718 77 54.9993 77C53.4414 76.9535 51.9492 76.3618 50.7827 75.328C50.4358 74.9951 49.9719 74.8117 49.4912 74.8175C49.0104 74.8233 48.5511 75.0178 48.2123 75.359C47.8735 75.7002 47.6823 76.1608 47.6799 76.6416C47.6775 77.1224 47.8641 77.585 48.1995 77.9295C50.0543 79.644 52.474 80.618 54.9993 80.6667C56.9443 80.6667 58.8095 79.894 60.1848 78.5188C61.5601 77.1435 62.3327 75.2783 62.3327 73.3333C62.3327 71.3884 61.5601 69.5232 60.1848 68.1479C58.8095 66.7726 56.9443 66 54.9993 66C54.0269 66 53.0943 65.6137 52.4066 64.9261C51.719 64.2384 51.3327 63.3058 51.3327 62.3333C51.3327 61.3609 51.719 60.4282 52.4066 59.7406C53.0943 59.053 54.0269 58.6667 54.9993 58.6667Z" fill="white"/>
<path d="M36.6663 58.6667C38.2188 58.713 39.7061 59.3013 40.8702 60.3295C41.2159 60.6635 41.679 60.8482 42.1597 60.8441C42.6404 60.8399 43.1003 60.6471 43.4402 60.3072C43.7801 59.9673 43.9729 59.5074 43.9771 59.0267C43.9813 58.546 43.7965 58.0829 43.4625 57.7372C41.6086 56.0235 39.1904 55.0496 36.6663 55C34.7214 55 32.8562 55.7726 31.4809 57.1479C30.1056 58.5232 29.333 60.3884 29.333 62.3333C29.333 64.2783 30.1056 66.1435 31.4809 67.5188C32.8562 68.894 34.7214 69.6667 36.6663 69.6667C37.6388 69.6667 38.5714 70.053 39.2591 70.7406C39.9467 71.4282 40.333 72.3609 40.333 73.3333C40.333 74.3058 39.9467 75.2384 39.2591 75.9261C38.5714 76.6137 37.6388 77 36.6663 77C35.1084 76.9535 33.6161 76.3618 32.4497 75.328C32.1028 74.9951 31.6389 74.8117 31.1581 74.8175C30.6774 74.8233 30.2181 75.0178 29.8793 75.359C29.5405 75.7002 29.3493 76.1608 29.3469 76.6416C29.3445 77.1224 29.5311 77.585 29.8665 77.9295C31.7213 79.644 34.141 80.618 36.6663 80.6667C38.6113 80.6667 40.4765 79.894 41.8518 78.5188C43.2271 77.1435 43.9997 75.2783 43.9997 73.3333C43.9997 71.3884 43.2271 69.5232 41.8518 68.1479C40.4765 66.7726 38.6113 66 36.6663 66C35.6939 66 34.7613 65.6137 34.0736 64.9261C33.386 64.2384 32.9997 63.3058 32.9997 62.3333C32.9997 61.3609 33.386 60.4282 34.0736 59.7406C34.7613 59.053 35.6939 58.6667 36.6663 58.6667Z" fill="white"/>
<path d="M78.8333 77H69.6667V56.8333C69.6667 56.3471 69.4735 55.8808 69.1297 55.537C68.7859 55.1932 68.3196 55 67.8333 55C67.3471 55 66.8808 55.1932 66.537 55.537C66.1932 55.8808 66 56.3471 66 56.8333V78.8333C66 79.3196 66.1932 79.7859 66.537 80.1297C66.8808 80.4735 67.3471 80.6667 67.8333 80.6667H78.8333C79.3196 80.6667 79.7859 80.4735 80.1297 80.1297C80.4735 79.7859 80.6667 79.3196 80.6667 78.8333C80.6667 78.3471 80.4735 77.8808 80.1297 77.537C79.7859 77.1932 79.3196 77 78.8333 77Z" fill="white"/>
</svg>
