<svg width="95" height="100" viewBox="0 0 95 100" fill="none" xmlns="http://www.w3.org/2000/svg">
<path d="M56.3082 2.91153C55.3588 2.95935 54.4287 3.19473 53.5723 3.60386L16.2388 21.4422C15.2726 21.9036 14.4235 22.5751 13.7548 23.4066C13.0861 24.2382 12.6148 25.2085 12.3761 26.2455L3.16569 66.3149C2.95301 67.2381 2.92921 68.1942 3.09569 69.1267C3.26218 70.0592 3.61557 70.9491 4.13496 71.7437C4.26089 71.938 4.39634 72.126 4.54081 72.3071L30.3815 104.436C31.0504 105.267 31.8995 105.939 32.8658 106.4C33.8321 106.861 34.8908 107.101 35.9631 107.1L77.4028 107.091C78.4748 107.092 79.5332 106.853 80.4995 106.393C81.4658 105.932 82.3151 105.262 82.9845 104.431L108.816 72.2976C109.485 71.4658 109.956 70.4951 110.195 69.4577C110.434 68.4202 110.434 67.3428 110.196 66.3053L100.971 26.236C100.732 25.199 100.261 24.2287 99.5921 23.3971C98.9233 22.5655 98.0743 21.8941 97.108 21.4326L59.7698 3.60386C58.6926 3.08921 57.5023 2.85115 56.3082 2.91153Z" fill="#326CE5"/>
<path d="M56.6785 16.5479C55.4445 16.548 54.4438 17.6595 54.444 19.0307C54.444 19.0517 54.4483 19.0719 54.4487 19.0928C54.4469 19.2791 54.4379 19.5035 54.444 19.6657C54.4734 20.4566 54.6458 21.0619 54.7495 21.7905C54.9375 23.35 55.095 24.6427 54.9978 25.8442C54.9033 26.2973 54.5696 26.7117 54.2721 26.9997L54.2196 27.9451C52.8785 28.0562 51.5286 28.2596 50.1802 28.5658C44.378 29.8832 39.3824 32.8719 35.5791 36.9072C35.3323 36.7388 34.9006 36.4291 34.7722 36.3342C34.3732 36.3881 33.97 36.5112 33.4448 36.2053C32.4448 35.5322 31.534 34.603 30.432 33.4837C29.927 32.9483 29.5613 32.4385 28.9614 31.9224C28.8251 31.8052 28.6172 31.6467 28.4648 31.5261C27.9957 31.1521 27.4425 30.9571 26.9082 30.9388C26.2213 30.9153 25.56 31.1839 25.1273 31.7266C24.3579 32.6916 24.6042 34.1664 25.6764 35.0212C25.6872 35.0299 25.6988 35.0366 25.7098 35.0451C25.8571 35.1645 26.0375 35.3175 26.1729 35.4175C26.8096 35.8876 27.3912 36.1282 28.0255 36.5014C29.362 37.3267 30.4699 38.0111 31.3487 38.8362C31.6919 39.202 31.7519 39.8466 31.7975 40.1254L32.5137 40.7652C28.6797 46.5351 26.9053 53.6621 27.9539 60.924L27.0181 61.1961C26.7714 61.5146 26.4229 62.0158 26.0583 62.1654C24.9086 62.5275 23.6146 62.6605 22.0524 62.8243C21.3189 62.8853 20.6861 62.8489 19.9085 62.9962C19.7374 63.0286 19.4989 63.0907 19.3117 63.1347C19.3052 63.136 19.2991 63.138 19.2926 63.1394C19.2824 63.1418 19.269 63.1468 19.2592 63.149C17.9421 63.4672 17.096 64.6778 17.3684 65.8706C17.6408 67.0636 18.9273 67.7891 20.2523 67.5035C20.2619 67.5013 20.2757 67.501 20.2857 67.4987C20.3007 67.4953 20.3138 67.4881 20.3287 67.4844C20.5134 67.4439 20.7449 67.3988 20.9064 67.3555C21.6709 67.1508 22.2245 66.8501 22.9118 66.5868C24.3903 66.0565 25.6149 65.6135 26.808 65.4408C27.3062 65.4018 27.8312 65.7483 28.0924 65.8944L29.0664 65.7273C31.3079 72.6767 36.0053 78.2936 41.9533 81.8181L41.5475 82.7921C41.6938 83.1704 41.8551 83.6821 41.7461 84.0556C41.3124 85.1803 40.5695 86.3675 39.7235 87.691C39.3139 88.3024 38.8947 88.777 38.5251 89.4767C38.4366 89.6442 38.324 89.9014 38.2386 90.0783C37.6643 91.3071 38.0856 92.7224 39.1888 93.2535C40.2989 93.788 41.6769 93.2243 42.2732 91.993C42.2742 91.9912 42.2772 91.99 42.278 91.9882C42.2786 91.9869 42.2774 91.9848 42.278 91.9835C42.3629 91.8089 42.4833 91.5794 42.5549 91.4153C42.8715 90.69 42.9769 90.0684 43.1995 89.3669C43.7908 87.8818 44.1156 86.3235 44.9295 85.3525C45.1524 85.0866 45.5157 84.9843 45.8925 84.8835L46.3986 83.9667C51.584 85.9571 57.3883 86.4912 63.1864 85.1747C64.5091 84.8744 65.7861 84.4857 67.0205 84.0192C67.1628 84.2716 67.4271 84.7566 67.498 84.8787C67.8808 85.0033 68.2987 85.0676 68.6392 85.571C69.2481 86.6114 69.6645 87.8421 70.1718 89.3287C70.3945 90.0302 70.5046 90.6518 70.8212 91.3771C70.8934 91.5424 71.0131 91.7751 71.0981 91.95C71.6932 93.1853 73.0756 93.7509 74.1874 93.2153C75.2904 92.6839 75.7122 91.2688 75.1375 90.0402C75.0521 89.8632 74.9347 89.606 74.8463 89.4385C74.4766 88.7388 74.0575 88.269 73.6478 87.6576C72.8018 86.3341 72.1001 85.2347 71.6663 84.11C71.4849 83.5299 71.6969 83.1691 71.8382 82.7922C71.7536 82.6952 71.5725 82.1474 71.4658 81.8897C77.6473 78.2398 82.2067 72.4135 84.3479 65.6844C84.6371 65.7298 85.1396 65.8187 85.3029 65.8515C85.6389 65.6298 85.948 65.3406 86.5538 65.3883C87.7469 65.5609 88.9714 66.0041 90.45 66.5343C91.1373 66.7975 91.6909 67.1031 92.4554 67.3078C92.617 67.351 92.8484 67.3914 93.0331 67.4319C93.048 67.4356 93.0611 67.4428 93.0761 67.4462C93.0861 67.4485 93.1 67.4488 93.1095 67.451C94.4346 67.7363 95.7213 67.0112 95.9934 65.8181C96.2655 64.6252 95.4198 63.4143 94.1027 63.0965C93.9111 63.0529 93.6394 62.9789 93.4533 62.9437C92.6757 62.7964 92.0429 62.8327 91.3095 62.7718C89.7472 62.6081 88.4533 62.475 87.3035 62.1129C86.8347 61.931 86.5012 61.3732 86.339 61.1436L85.4366 60.881C85.9045 57.496 85.7783 53.9731 84.9687 50.4483C84.1515 46.8906 82.7073 43.6367 80.7812 40.7699C81.0127 40.5595 81.4499 40.1724 81.5738 40.0585C81.6101 39.6576 81.5789 39.2372 81.994 38.7932C82.8728 37.968 83.9808 37.2838 85.3172 36.4584C85.9515 36.0852 86.5379 35.8446 87.1746 35.3745C87.3185 35.2682 87.5151 35.0999 87.6664 34.9782C88.7382 34.1232 88.985 32.6484 88.2154 31.6837C87.4459 30.7189 85.9546 30.6281 84.8827 31.4831C84.7301 31.604 84.5231 31.7616 84.3861 31.8794C83.7862 32.3956 83.4157 32.9053 82.9108 33.4408C81.8087 34.5601 80.8979 35.4939 79.8979 36.1671C79.4646 36.4194 78.8299 36.3321 78.5419 36.3151L77.692 36.9215C72.8456 31.8396 66.2473 28.5906 59.1423 27.9594C59.1224 27.6617 59.0964 27.1235 59.0898 26.9615C58.7989 26.6832 58.4475 26.4455 58.3592 25.8442C58.262 24.6427 58.4243 23.35 58.6123 21.7905C58.716 21.0619 58.8884 20.4566 58.9179 19.6657C58.9246 19.486 58.9138 19.2251 58.9131 19.0307C58.913 17.6595 57.9126 16.5477 56.6785 16.5479H56.6785ZM53.8806 33.88L53.2169 45.6019L53.1691 45.6258C53.1246 46.6745 52.2616 47.5118 51.2019 47.5118C50.7679 47.5118 50.3673 47.3724 50.0417 47.1346L50.0226 47.1442L40.4111 40.3307C43.3651 37.4259 47.1435 35.2793 51.498 34.2907C52.2934 34.1101 53.0885 33.976 53.8806 33.88ZM59.4813 33.88C64.5652 34.5053 69.2668 36.8073 72.8696 40.3354L63.3201 47.106L63.2867 47.0917C62.4391 47.7107 61.2449 47.5571 60.5842 46.7288C60.3136 46.3894 60.1716 45.9904 60.1545 45.5876L60.145 45.5829L59.4813 33.88ZM36.9256 44.7091L45.7015 52.5587L45.6919 52.6064C46.4841 53.2951 46.6009 54.49 45.9402 55.3185C45.6696 55.6578 45.3073 55.8854 44.9184 55.9917L44.9089 56.0299L33.6597 59.2767C33.0871 54.0413 34.321 48.9521 36.9256 44.7091ZM76.3694 44.7138C77.6734 46.8273 78.6608 49.1879 79.2486 51.747C79.8293 54.2754 79.9751 56.7993 79.7356 59.2385L68.4291 55.9821L68.4195 55.9344C67.4071 55.6577 66.7848 54.6278 67.0205 53.5948C67.1171 53.1716 67.3417 52.8136 67.646 52.5491L67.6413 52.5253L76.3694 44.7138H76.3694ZM54.8785 53.1651H58.4738L60.7084 55.9583L59.9062 59.4438L56.6785 60.9956L53.4413 59.439L52.6391 55.9535L54.8785 53.1651ZM66.4046 62.724C66.5574 62.7163 66.7095 62.7301 66.8582 62.7575L66.8773 62.7336L78.5133 64.7008C76.8103 69.4851 73.5517 73.6299 69.1978 76.4036L64.6809 65.4934L64.6953 65.4743C64.2803 64.5102 64.6956 63.3796 65.6502 62.9198C65.8946 62.8021 66.15 62.7369 66.4046 62.724H66.4046ZM46.8617 62.7718C47.7497 62.7842 48.5462 63.4006 48.7525 64.3045C48.8491 64.7276 48.8021 65.1469 48.6427 65.5172L48.6761 65.5602L44.207 76.3606C40.0286 73.6793 36.7005 69.6647 34.9202 64.739L46.4559 62.7813L46.475 62.8052C46.604 62.7815 46.7349 62.77 46.8617 62.7718ZM56.6069 67.5035C56.9162 67.4921 57.2301 67.5556 57.5284 67.6993C57.9195 67.8876 58.2216 68.1841 58.4118 68.5396H58.4547L64.1414 78.8148C63.4034 79.0622 62.6446 79.2736 61.8686 79.4498C57.5195 80.4373 53.1842 80.1381 49.2586 78.8005L54.931 68.5444H54.9405C55.2809 67.9081 55.9264 67.5285 56.6069 67.5035Z" fill="white"/>
</svg>
