<svg width="92" height="100" viewBox="0 0 92 100" fill="none" xmlns="http://www.w3.org/2000/svg">
<g clip-path="url(#clip0_1475_33657)">
<path d="M21.4834 43.227C21.4834 43.227 29.3887 36.3545 52.7854 36.3545C74.2488 36.3545 80.2813 41.217 86.408 43.227L54.446 58.8238L21.4834 43.227Z" fill="#C9781F"/>
<path d="M18.1466 63.9118C18.2915 66.8929 21.2734 65.5137 22.6242 64.5818C23.9059 63.6969 24.2814 64.4323 24.3939 62.6862C24.4675 61.539 24.6001 60.3907 24.5348 59.2383C22.5954 59.0627 20.4868 59.5238 18.8972 60.677C18.0789 61.2748 16.5431 63.1674 18.1499 63.9118" fill="#F6D2A2"/>
<path d="M18.1465 63.9119C18.5807 63.7512 19.0407 63.6361 19.3347 63.2441L18.1465 63.9119Z" fill="#C6B198"/>
<path d="M25.0385 28.3974C13.6106 25.1838 22.1082 10.6695 31.2851 16.6411L25.0385 28.3974ZM75.8123 15.5515C84.858 9.2066 93.032 23.5218 82.5196 27.1239L75.8123 15.5515Z" fill="#37ABC8"/>
<path d="M25.5155 24.3868C24.0081 23.5947 22.9021 22.5092 23.8239 20.7675C24.6777 19.1555 26.264 19.3304 27.7717 20.1267L25.5155 24.3868ZM80.1381 22.8735C81.6458 22.0776 82.7519 20.9954 81.8297 19.2538C80.9758 17.6414 79.3896 17.8167 77.8819 18.6129L80.1381 22.8735Z" fill="#077E91"/>
<path d="M90.5161 63.5336C90.3712 66.5147 87.3893 65.1355 86.0385 64.2036C84.7568 63.3188 84.3813 64.0541 84.2688 62.308C84.1952 61.1608 84.0626 60.0125 84.1279 58.8602C86.0673 58.6845 88.1759 59.1456 89.7654 60.2988C90.5838 60.8966 92.1195 62.7893 90.5128 63.5336" fill="#F6D2A2"/>
<path d="M90.5164 63.534C90.0822 63.3733 89.6222 63.2582 89.3281 62.8662L90.5164 63.534Z" fill="#C6B198"/>
<path d="M53.1861 9.52124C64.6271 9.52124 75.352 11.1553 80.9428 22.1325C85.9612 34.4362 84.1766 47.704 84.9418 60.7072C85.5995 71.8724 87.0568 84.7721 81.8695 95.1193C76.4133 106.005 62.7789 108.743 51.545 108.342C42.7216 108.027 32.0628 105.152 27.0829 97.1016C21.2406 87.6572 24.0065 73.6129 24.4306 63.1043C24.9332 50.6556 21.0542 38.1695 25.1492 25.988C29.3978 13.3521 40.8544 10.4958 53.1854 9.52199" fill="#37ABC8"/>
<path d="M55.2053 24.8595C57.2593 36.7843 76.7778 33.6313 73.9746 21.6086C71.4609 10.8238 54.523 13.809 55.2053 24.8595ZM31.881 26.7876C34.5434 37.1692 51.1869 34.5113 50.5599 24.0972C49.8125 11.6249 29.3356 14.0317 31.881 26.7876ZM58.9943 38.7599C59.0032 40.3535 59.3679 41.911 59.0533 43.6997C58.6572 44.4478 57.88 44.527 57.2093 44.8289C56.7539 44.7579 56.3242 44.5719 55.9606 44.2887C55.5971 44.0055 55.3117 43.6343 55.1313 43.2102C54.8933 41.3277 55.2199 39.5049 55.28 37.6217L58.9943 38.7599Z" fill="white"/>
<path d="M36.4725 28.1351C38.0246 28.1351 39.2828 26.7739 39.2828 25.0949C39.2828 23.4159 38.0246 22.0547 36.4725 22.0547C34.9203 22.0547 33.6621 23.4159 33.6621 25.0949C33.6621 26.7739 34.9203 28.1351 36.4725 28.1351Z" fill="black"/>
<path d="M37.7504 26.5533C38.1163 26.5533 38.4129 26.2074 38.4129 25.7806C38.4129 25.3538 38.1163 25.0078 37.7504 25.0078C37.3845 25.0078 37.0879 25.3538 37.0879 25.7806C37.0879 26.2074 37.3845 26.5533 37.7504 26.5533Z" fill="white"/>
<path d="M60.0205 27.3772C61.5468 27.3772 62.7841 26.0161 62.7841 24.337C62.7841 22.658 61.5468 21.2969 60.0205 21.2969C58.4942 21.2969 57.2568 22.658 57.2568 24.337C57.2568 26.0161 58.4942 27.3772 60.0205 27.3772Z" fill="black"/>
<path d="M61.2777 25.7963C61.6376 25.7963 61.9293 25.4503 61.9293 25.0235C61.9293 24.5968 61.6376 24.2508 61.2777 24.2508C60.9177 24.2508 60.626 24.5968 60.626 25.0235C60.626 25.4503 60.9177 25.7963 61.2777 25.7963Z" fill="white"/>
<path d="M50.9635 38.9998C49.7371 41.9678 51.6473 47.9024 54.9744 43.5212C54.7364 41.6386 55.063 39.8159 55.1231 37.9326L50.9635 38.9998Z" fill="white"/>
<path d="M50.7688 33.284C48.4834 33.4783 46.6151 36.1922 47.8034 38.3397C49.3772 41.1796 52.8897 38.0882 55.0772 38.3782C57.5949 38.4298 59.6583 41.0368 61.6798 38.849C63.9293 36.4164 60.7113 34.0466 58.1973 32.9873L50.7688 33.284Z" fill="#F6D2A2"/>
<path d="M21.484 43.2275C21.484 43.2275 22.2074 51.0551 22.1581 54.4293C22.1088 57.8035 25.3455 55.6729 25.5137 60.9797C25.6818 66.2865 23.5526 65.2795 22.4309 67.8768C21.3092 70.4742 20.5469 82.6367 20.5469 82.6367C20.5469 82.6367 21.6978 84.9093 25.2924 86.9555C28.8871 89.0017 34.6715 90.1511 39.673 89.9246C44.6745 89.6982 48.2535 88.6273 49.1477 88.035C50.0419 87.4428 51.525 85.5699 52.0832 84.1212C52.6415 82.6725 53.8069 70.741 53.7258 63.9133C53.6448 57.0857 52.5152 50.7864 52.5152 50.7864L21.484 43.2275Z" fill="#EF9325"/>
<path d="M53.1894 76.4705C38.4494 78.1139 21.3463 73.5708 21.3463 73.5708C21.3463 73.5708 21.5974 68.9635 22.7038 67.3418C38.0342 72.0851 53.5003 70.5815 53.5003 70.5815C53.7297 72.7323 53.5675 74.4422 53.1901 76.4705H53.1894ZM51.3379 85.5513C36.5978 87.1947 20.55 82.4693 20.55 82.4693C20.55 82.4693 20.4984 78.044 21.0843 76.1005C36.4147 80.8439 52.7888 79.6616 52.7888 79.6616C52.6506 81.997 52.3217 84.295 51.3379 85.5506V85.5513Z" fill="#E5E5E5"/>
<path d="M86.4075 43.2275L86.3578 54.4293C86.4078 57.8035 84.396 55.6729 84.2253 60.9797C84.0545 66.2865 86.2109 65.2795 87.3465 67.8768C88.4821 70.4742 89.2541 82.6367 89.2541 82.6367C89.2541 82.6367 88.0882 84.9093 84.4487 86.9555C80.8092 89.0017 74.9553 90.1511 69.8869 89.9246C64.8185 89.6982 61.1992 88.6273 60.2934 88.035C59.3876 87.4428 57.8862 85.5699 57.3213 84.1212C56.7563 82.6725 55.5755 70.741 55.6584 63.9133C55.7414 57.0857 56.8841 50.7864 56.8841 50.7864L86.4075 43.2275Z" fill="#EF9325"/>
<path d="M56.2016 76.4704C71.1269 78.1137 88.449 73.5707 88.449 73.5707C88.449 73.5707 88.1949 68.9634 87.0747 67.3417C71.5518 72.085 55.8914 70.5814 55.8914 70.5814C55.659 72.7322 55.8227 74.4421 56.2061 76.4704H56.2016ZM58.08 85.5512C73.0054 87.1946 89.255 82.4692 89.255 82.4692C89.255 82.4692 89.3073 78.0439 88.7143 76.1004C73.1914 80.8437 56.6115 79.6615 56.6115 79.6615C56.7512 81.9969 57.0842 84.2949 58.0807 85.5504L58.08 85.5512Z" fill="#E5E5E5"/>
<path d="M92.3618 57.5834C91.8985 58.4578 90.98 58.8793 90.3115 58.525L89.7757 58.2418C89.1068 57.8879 88.9405 56.8928 89.4046 56.0185L99.8493 36.3307C100.313 35.4563 101.231 35.0348 101.9 35.3891L102.435 35.6723C103.104 36.0262 103.271 37.0213 102.807 37.8956L92.3618 57.5834Z" fill="#D2E261"/>
<path d="M87.429 66.8813C87.1588 67.3906 86.3977 67.5165 85.7288 67.1627L85.193 66.8794C84.5241 66.5256 84.2009 65.8257 84.4718 65.3167L89.3721 56.0797C89.6422 55.5704 90.4034 55.4445 91.0722 55.7983L91.6081 56.0816C92.2769 56.4354 92.6002 57.1353 92.3293 57.6443L87.429 66.8813Z" fill="black"/>
<path d="M91.7864 55.7453L91.2506 55.462C90.5817 55.1082 89.8979 55.0891 89.7223 55.4191L89.4092 56.0095C89.5848 55.6791 90.2686 55.6986 90.9375 56.0524L91.4733 56.3357C92.1422 56.6895 92.542 57.2437 92.3671 57.574L92.6803 56.9836C92.8559 56.6537 92.4549 56.0991 91.7864 55.7453Z" fill="#9B9B9B"/>
<path d="M86.7534 62.7518C87.9435 63.1947 89.1856 62.8083 89.5278 61.8889C89.87 60.9694 89.1827 59.865 87.9927 59.4221C86.8026 58.9792 85.5605 59.3655 85.2183 60.285C84.8761 61.2044 85.5634 62.3089 86.7534 62.7518Z" fill="#F6D2A2"/>
<path d="M16.678 57.901C17.101 58.7955 17.9989 59.2589 18.6831 58.936L19.2313 58.6775C19.9151 58.3546 20.1273 57.3678 19.7043 56.4736L10.1743 36.3285C9.75134 35.4339 8.85342 34.9706 8.16923 35.2934L7.62144 35.552C6.93763 35.8748 6.72539 36.8617 7.14838 37.7559L16.678 57.901Z" fill="#D2E261"/>
<path d="M21.1783 67.415C21.425 67.9359 22.1798 68.0965 22.8598 67.7737L23.408 67.5151C24.0918 67.1923 24.4468 66.5081 24.2002 65.9868L19.733 56.536C19.4864 56.0152 18.7316 55.8545 18.0515 56.1773L17.5033 56.4359C16.8195 56.7587 16.4645 57.4429 16.7112 57.9642L21.1783 67.415Z" fill="black"/>
<path d="M17.3379 56.0917L17.8861 55.8331C18.5699 55.5103 19.2544 55.5222 19.4181 55.86L19.704 56.4643C19.544 56.1265 18.8595 56.1145 18.1719 56.437L17.6238 56.6956C16.9399 57.0184 16.514 57.5539 16.6739 57.8913L16.388 57.2871C16.2285 56.9497 16.6533 56.4138 17.3379 56.0913V56.0917Z" fill="#9B9B9B"/>
<path d="M21.3443 59.6791C20.1542 60.122 19.4669 61.2264 19.8091 62.1459C20.1513 63.0654 21.3935 63.4517 22.5835 63.0088C23.7736 62.5659 24.4609 61.4615 24.1187 60.542C23.7765 59.6225 22.5343 59.2362 21.3443 59.6791Z" fill="#F6D2A2"/>
<path d="M26.3792 32.8717C25.9248 33.6967 24.8532 33.9792 23.9851 33.5024L22.9867 32.9542C22.1187 32.4774 21.7835 31.4222 22.2379 30.5971L32.6273 11.7285C33.0817 10.9034 34.1533 10.6209 35.0214 11.0977L36.0198 11.6459C36.8878 12.1227 37.1117 13.0143 36.7686 14.003C33.1291 24.4896 26.3792 32.8717 26.3792 32.8717Z" fill="#960000"/>
<path d="M29.1279 22.0942C32.2872 16.3562 34.3592 11.4212 33.8686 10.8618L33.8798 10.8409C33.8663 10.8334 33.8518 10.8285 33.8387 10.8211L33.8335 10.8185C28.9784 8.19158 22.4467 10.793 19.2201 16.6536C15.9935 22.5142 17.292 29.4158 22.1145 32.1025L22.113 32.1055C22.1332 32.113 22.1448 32.1231 22.1579 32.1302L22.1691 32.1092C22.9071 32.2266 25.9678 27.8322 29.1268 22.095L29.1279 22.0942Z" fill="#595959"/>
<path d="M81.1914 32.9116C81.6211 33.7493 82.685 34.0625 83.5665 33.6111L84.5802 33.088C85.4621 32.6366 85.8271 31.5914 85.397 30.7537L75.5573 11.5935C75.1276 10.7558 74.0637 10.4426 73.1823 10.894L72.1685 11.4172C71.2866 11.8685 71.0374 12.7538 71.3517 13.7515C74.6866 24.3386 81.1914 32.9116 81.1914 32.9116Z" fill="#960000"/>
<path d="M78.7556 22.0631C75.7633 16.2365 73.8307 11.2436 74.3415 10.6984L74.3303 10.6771C74.3441 10.6696 74.3587 10.6659 74.3722 10.6584L74.3778 10.6561C79.3102 8.17014 85.7604 10.9551 88.8162 16.9102C91.8721 22.8653 90.3744 29.7225 85.4768 32.2694L85.4783 32.2724C85.4581 32.2799 85.4461 32.2888 85.4323 32.2959L85.4211 32.2746C84.6801 32.3703 81.7472 27.89 78.7549 22.0634L78.7556 22.0631Z" fill="#595959"/>
<path d="M88.4981 19.6016C88.4981 19.6016 84.8624 10.5088 80.6466 5.70125C76.4309 0.893658 35.1808 -0.745617 28.4069 5.70125C21.6331 12.1481 19.0791 19.6016 19.0791 19.6016V17.5839C19.0791 17.5839 22.2123 8.73169 28.4069 3.68345C34.6016 -1.36478 75.3088 -1.09948 80.5603 3.68345C85.8118 8.46638 88.4981 17.5839 88.4981 17.5839V19.6016Z" fill="#353535"/>
<path d="M86.8607 14.1232C86.161 14.482 86.3034 16.1564 87.1786 17.8631C88.0538 19.5698 89.3304 20.6625 90.0301 20.3037C90.7297 19.9449 90.5874 18.2705 89.7122 16.5638C88.837 14.8571 87.5603 13.7644 86.8607 14.1232Z" fill="#960000"/>
<path d="M17.9128 20.0194C18.6018 20.3982 19.9095 19.3428 20.8336 17.6621C21.7577 15.9814 21.9482 14.3118 21.2593 13.933C20.5703 13.5542 19.2626 14.6096 18.3385 16.2903C17.4144 17.971 17.2238 19.6406 17.9128 20.0194Z" fill="#960000"/>
<path opacity="0.6" d="M72.9548 17.683H34.4806C27.5726 17.683 27.5965 36.0151 34.0823 37.0714L47.4932 36.2101C49.1149 36.2101 52.3523 29.9385 52.9599 29.4456C53.5675 28.9528 55.5681 28.8926 56.3554 29.4456C57.1427 29.9987 58.9348 35.5779 60.5565 35.5779L73.9674 37.0711C80.232 34.1923 78.6525 17.6826 72.9585 17.6826L72.9548 17.683Z" fill="white"/>
<path opacity="0.5" d="M44.6963 21.4739C40.4589 21.3794 33.8285 21.4179 30.2066 21.4478C29.5994 23.4357 28.9223 25.9534 29.2582 28.398L44.783 28.414C47.8448 28.414 50.419 28.991 52.8168 29.6161C52.8758 29.5414 52.9252 29.4853 52.964 29.4539C53.5716 28.9607 55.5722 28.9009 56.3595 29.4539C56.5632 29.5971 56.8356 30.0795 57.1532 30.7121C58.3751 30.9699 59.6 31.1474 60.8719 31.1631L77.6839 31.178C78.349 28.957 77.8588 26.576 77.7101 24.3384C72.608 24.3384 64.4995 24.2234 60.6118 24.2234C55.1339 24.223 50.3517 21.6002 44.7004 21.4743L44.6963 21.4739Z" fill="white"/>
<path d="M50.4805 33.1646C50.3112 29.2104 57.8604 28.7161 58.752 32.026C59.6413 35.3281 50.8527 36.099 50.4805 33.1646C50.1838 30.8247 50.4805 33.1646 50.4805 33.1646Z" fill="black"/>
</g>
<defs>
<clipPath id="clip0_1475_33657">
<rect width="110" height="110" fill="white"/>
</clipPath>
</defs>
</svg>
