<svg width="92" height="100" viewBox="0 0 92 100" fill="none" xmlns="http://www.w3.org/2000/svg">
<g clip-path="url(#clip0_1475_33738)">
<path d="M100.517 106.207H87.2409C84.0988 106.207 81.5513 103.659 81.5513 100.517V89.1377C81.5513 88.0904 80.7021 87.2412 79.6547 87.2412H68.2754V83.4481H79.6547C82.7968 83.4481 85.3444 85.9956 85.3444 89.1377V100.517C85.3444 101.564 86.1935 102.414 87.2409 102.414H100.517V106.207Z" fill="#FF9C71"/>
<path d="M79.6547 34.1377H68.2754V30.3446H79.6547C80.7021 30.3446 81.5513 29.4954 81.5513 28.4481V11.3791C81.5513 8.23702 84.0988 5.68945 87.2409 5.68945H100.517V9.48256H87.2409C86.1935 9.48256 85.3444 10.3317 85.3444 11.3791V28.4481C85.3444 31.5902 82.7968 34.1377 79.6547 34.1377Z" fill="#FF9C71"/>
<path d="M68.2754 53.1035H100.517V56.8966H68.2754V53.1035Z" fill="#FF9C71"/>
<path d="M34.1379 54.9995C52.9914 54.9995 68.2758 49.0561 68.2758 41.7237V13.2754C68.2758 20.6079 52.9914 26.5512 34.1379 26.5512C15.2845 26.5512 0 20.6079 0 13.2754V41.7237C0 49.0561 15.2845 54.9995 34.1379 54.9995Z" fill="#9BC9FF"/>
<path d="M34.1379 55.0005C15.2845 55.0005 0 49.0571 0 41.7246V68.2763C0 75.6088 15.2845 81.5522 34.1379 81.5522C52.9914 81.5522 68.2758 75.6088 68.2758 68.2763V41.7246C68.2758 49.0571 52.9914 55.0005 34.1379 55.0005Z" fill="#57A4FF"/>
<path d="M34.1379 81.5512C15.2845 81.5512 0 75.6079 0 68.2754V96.7237C0 104.056 15.2845 110 34.1379 110C52.9914 110 68.2758 104.056 68.2758 96.7237V68.2754C68.2758 75.6079 52.9914 81.5512 34.1379 81.5512Z" fill="#2488FF"/>
<path d="M68.2758 13.2759C68.2758 5.94339 52.9914 0 34.1379 0C15.2845 0 0 5.94339 0 13.2759C0 20.6083 15.2845 26.5517 34.1379 26.5517C52.9914 26.5517 68.2758 20.6083 68.2758 13.2759Z" fill="#BDDBFF"/>
<path d="M68.2759 13.2755C68.2759 20.6153 52.9896 26.5513 34.1379 26.5513C15.2863 26.5513 2.07352e-05 20.6153 2.07352e-05 13.2755C-0.00183137 12.6263 0.120407 11.9827 0.360254 11.3789C2.69298 17.8085 16.9366 22.7582 34.1379 22.7582C51.3393 22.7582 65.5829 17.8085 67.9156 11.3789C68.1555 11.9827 68.2777 12.6263 68.2759 13.2755Z" fill="#57A4FF"/>
<path d="M68.2758 37.9307V41.7238C68.2758 49.0636 52.9895 54.9996 34.1379 54.9996C15.2863 54.9996 0 49.0636 0 41.7238V37.9307C0 45.2705 15.2863 51.2065 34.1379 51.2065C52.9895 51.2065 68.2758 45.2705 68.2758 37.9307Z" fill="#2488FF"/>
<path d="M68.2758 64.4824V68.2755C68.2758 75.6154 52.9895 81.5514 34.1379 81.5514C15.2863 81.5514 0 75.6154 0 68.2755V64.4824C0 71.8223 15.2863 77.7583 34.1379 77.7583C52.9895 77.7583 68.2758 71.8223 68.2758 64.4824Z" fill="#006DF0"/>
<path d="M68.2758 92.9307V96.7238C68.2758 104.064 52.9895 110 34.1379 110C15.2863 110 0 104.064 0 96.7238V92.9307C0 100.271 15.2863 106.207 34.1379 106.207C52.9895 106.207 68.2758 100.271 68.2758 92.9307Z" fill="#006DF0"/>
</g>
<defs>
<clipPath id="clip0_1475_33738">
<rect width="110" height="110" fill="white"/>
</clipPath>
</defs>
</svg>
