<svg width="16" height="16" viewBox="0 0 16 16" fill="none" xmlns="http://www.w3.org/2000/svg">
<path d="M2 1.99967C2 1.63148 2.29848 1.33301 2.66667 1.33301H13.3333C13.7015 1.33301 14 1.63148 14 1.99967V5.99967H12.6667V2.66634H3.33333V3.17563L3.92962 4.3682C4.02346 4.55588 4.02346 4.7768 3.92962 4.96448L3.41202 5.99967L3.92962 7.03487C4.02346 7.22255 4.02346 7.44347 3.92962 7.63115L3.41202 8.66634L3.92962 9.70153C4.02346 9.88922 4.02346 10.1101 3.92962 10.2978L3.33333 11.4904V11.9997H6.66667V13.333H2.66667C2.29848 13.333 2 13.0345 2 12.6663V11.333C2 11.2295 2.0241 11.1274 2.07038 11.0349L2.58798 9.99967L2.07038 8.96448C1.97654 8.7768 1.97654 8.55588 2.07038 8.3682L2.58798 7.33301L2.07038 6.29782C1.97654 6.11013 1.97654 5.88922 2.07038 5.70153L2.58798 4.66634L2.07038 3.63115C2.0241 3.53858 2 3.4365 2 3.33301V1.99967Z" fill="white"/>
<path fill-rule="evenodd" clip-rule="evenodd" d="M10.6667 15.333C9.79585 15.333 9.05503 14.7765 8.78047 13.9997H8V12.6663H8.78047C9.05503 11.8895 9.79585 11.333 10.6667 11.333C11.5375 11.333 12.2783 11.8895 12.5529 12.6663H16V13.9997H12.5529C12.2783 14.7765 11.5375 15.333 10.6667 15.333ZM10.6667 12.6663C10.2985 12.6663 10 12.9648 10 13.333C10 13.7012 10.2985 13.9997 10.6667 13.9997C11.0349 13.9997 11.3333 13.7012 11.3333 13.333C11.3333 12.9648 11.0349 12.6663 10.6667 12.6663Z" fill="white"/>
<path fill-rule="evenodd" clip-rule="evenodd" d="M15.2195 8.66634C14.945 7.88955 14.2041 7.33301 13.3333 7.33301C12.4625 7.33301 11.7217 7.88955 11.4471 8.66634H8V9.99967H11.4471C11.7217 10.7765 12.4625 11.333 13.3333 11.333C14.2041 11.333 14.945 10.7765 15.2195 9.99967H16V8.66634H15.2195ZM14 9.33301C14 9.7012 13.7015 9.99967 13.3333 9.99967C12.9651 9.99967 12.6667 9.7012 12.6667 9.33301C12.6667 8.96482 12.9651 8.66634 13.3333 8.66634C13.7015 8.66634 14 8.96482 14 9.33301Z" fill="white"/>
</svg>
