<svg width="112" height="70" viewBox="0 0 112 70" fill="none" xmlns="http://www.w3.org/2000/svg">
<path fill-rule="evenodd" clip-rule="evenodd" d="M31.9838 6.5705C29.5875 8.17818 27.914 9.82708 26.4615 12.3245C25.5516 13.3897 19.3735 13.6236 15.6958 15.6984C12.3307 17.3164 9.98449 19.03 7.36791 21.7279C5.80878 23.4165 4.67961 24.9506 3.52727 26.95C3.19293 27.5418 1.99644 29.8181 1.89861 30.3647C0.535514 33.9618 0.0121376 36.8697 0 40.7288C0.101515 44.5661 0.698451 47.4365 2.1546 50.9822C3.64385 54.3358 5.235 56.688 7.78243 59.3089C10.3957 61.8553 12.7283 63.4343 16.0526 64.904C19.5412 66.3271 22.3847 66.8953 26.1448 66.9487C27.4009 66.9406 28.5452 66.86 29.7902 66.6886C30.2739 66.6305 30.6472 66.6783 31.0989 66.863C33.9324 68.0252 36.2275 68.4942 39.284 68.5435C41.7443 68.5163 43.6378 68.2147 45.9789 67.4592C46.6199 67.2933 47.2894 67.3047 47.8845 67.6067C51.1436 69.2364 53.8363 69.918 57.464 69.9993C57.4692 69.9993 57.4997 70 57.4997 70C61.1178 69.9647 63.801 69.3284 67.0748 67.7545C70.1798 66.1244 72.2572 64.381 74.442 61.6122C75.0761 60.8063 76.0181 60.5139 76.9946 60.8328C80.1213 61.9174 82.6684 62.3507 85.9753 62.4221C89.5927 62.4033 92.3608 61.9311 95.7715 60.7044C98.9332 59.4656 101.216 58.1114 103.788 55.8711C106.204 53.6455 107.748 51.6339 109.21 48.6727C110.593 45.6398 111.165 43.1769 111.249 39.8365C111.205 35.834 110.45 32.9099 108.587 29.3845C106.581 25.8951 104.465 23.6383 101.217 21.3111C100.809 21.0268 100.573 20.6311 100.501 20.1404C100.047 17.1494 98.9858 15.0547 96.8525 12.9391C96.836 12.9222 96.6852 12.7806 96.6804 12.7795C94.2929 10.7135 92.0203 9.83111 88.8803 9.709C87.1339 9.63323 87.0008 10.0077 86.3387 9.27977C83.6328 6.26596 81.1387 4.3699 77.5198 2.58457C73.6839 0.834906 70.5436 0.118066 66.3374 0C59.1147 0.120273 53.8378 2.01854 48.2376 6.62606C48.2056 6.63195 47.8745 6.89749 47.6995 6.85224C47.4858 6.86438 47.3206 6.81987 47.1378 6.70843C44.6662 5.16952 42.5685 4.49867 39.6662 4.40083C36.6976 4.43246 34.5301 5.0452 31.9838 6.5705Z" fill="#7187FF"/>
<path d="M12 32.238H20.84V34.856H17.78V44.138H15.06V34.856H12V32.238Z" fill="white"/>
<path d="M31.414 42.591C30.2127 43.781 28.7507 44.376 27.028 44.376C25.3053 44.376 23.8433 43.781 22.642 42.591C21.4407 41.401 20.84 39.9333 20.84 38.188C20.84 36.4427 21.4407 34.975 22.642 33.785C23.8433 32.595 25.3053 32 27.028 32C28.7507 32 30.2127 32.595 31.414 33.785C32.6153 34.975 33.216 36.4427 33.216 38.188C33.216 39.9333 32.6153 41.401 31.414 42.591ZM23.56 38.188C23.56 39.2307 23.8887 40.0807 24.546 40.738C25.2033 41.3953 26.0307 41.724 27.028 41.724C28.014 41.724 28.8357 41.3953 29.493 40.738C30.1617 40.0693 30.496 39.2193 30.496 38.188C30.496 37.1567 30.1617 36.3067 29.493 35.638C28.8357 34.9807 28.014 34.652 27.028 34.652C26.0307 34.652 25.2033 34.9807 24.546 35.638C23.8887 36.2953 23.56 37.1453 23.56 38.188Z" fill="white"/>
<path d="M34.7475 32.238H39.2525C40.4311 32.238 41.4171 32.6347 42.2105 33.428C43.0151 34.2327 43.4175 35.196 43.4175 36.318C43.4175 37.44 43.0151 38.4033 42.2105 39.208C41.4171 40.0013 40.4311 40.398 39.2525 40.398H37.4675V44.138H34.7475V32.238ZM37.4675 37.848H39.2525C39.6718 37.848 40.0175 37.7007 40.2895 37.406C40.5615 37.1113 40.6975 36.7487 40.6975 36.318C40.6975 35.8873 40.5615 35.5247 40.2895 35.23C40.0175 34.9353 39.6718 34.788 39.2525 34.788H37.4675V37.848Z" fill="white"/>
<path d="M50.3698 44.376C48.5905 44.376 47.1115 43.7867 45.9328 42.608C44.7655 41.4293 44.1818 39.956 44.1818 38.188C44.1818 36.42 44.7655 34.9523 45.9328 33.785C47.1001 32.595 48.5791 32 50.3698 32C51.4351 32 52.4211 32.2493 53.3278 32.748C54.2345 33.2353 54.9485 33.904 55.4698 34.754L53.1238 36.114C52.8631 35.6493 52.4891 35.2923 52.0018 35.043C51.5258 34.7823 50.9818 34.652 50.3698 34.652C49.3045 34.652 48.4601 34.975 47.8368 35.621C47.2135 36.2557 46.9018 37.1113 46.9018 38.188C46.9018 39.2647 47.2135 40.1203 47.8368 40.755C48.4601 41.401 49.3045 41.724 50.3698 41.724C50.9705 41.724 51.5145 41.5937 52.0018 41.333C52.5005 41.0723 52.8745 40.7153 53.1238 40.262L55.4698 41.622C54.9598 42.472 54.2515 43.1463 53.3448 43.645C52.4381 44.1323 51.4465 44.376 50.3698 44.376Z" fill="white"/>
<path d="M59.4645 32.238V41.52H63.7145V44.138H56.7445V32.238H59.4645Z" fill="white"/>
<path d="M74.2958 42.591C73.0945 43.781 71.6325 44.376 69.9098 44.376C68.1872 44.376 66.7252 43.781 65.5238 42.591C64.3225 41.401 63.7218 39.9333 63.7218 38.188C63.7218 36.4427 64.3225 34.975 65.5238 33.785C66.7252 32.595 68.1872 32 69.9098 32C71.6325 32 73.0945 32.595 74.2958 33.785C75.4972 34.975 76.0978 36.4427 76.0978 38.188C76.0978 39.9333 75.4972 41.401 74.2958 42.591ZM66.4418 38.188C66.4418 39.2307 66.7705 40.0807 67.4278 40.738C68.0852 41.3953 68.9125 41.724 69.9098 41.724C70.8958 41.724 71.7175 41.3953 72.3748 40.738C73.0435 40.0693 73.3778 39.2193 73.3778 38.188C73.3778 37.1567 73.0435 36.3067 72.3748 35.638C71.7175 34.9807 70.8958 34.652 69.9098 34.652C68.9125 34.652 68.0852 34.9807 67.4278 35.638C66.7705 36.2953 66.4418 37.1453 66.4418 38.188Z" fill="white"/>
<path d="M77.4613 40.296V32.238H80.1813V40.058C80.1813 41.1687 80.8046 41.724 82.0513 41.724C83.298 41.724 83.9213 41.1687 83.9213 40.058V32.238H86.6413V40.296C86.6413 41.554 86.2106 42.5457 85.3493 43.271C84.4766 44.0077 83.3773 44.376 82.0513 44.376C80.7253 44.376 79.626 44.0077 78.7533 43.271C77.892 42.5457 77.4613 41.554 77.4613 40.296Z" fill="white"/>
<path d="M88.6029 32.238H93.3629C94.9949 32.238 96.3663 32.8103 97.4769 33.955C98.5876 35.0997 99.1429 36.5107 99.1429 38.188C99.1429 39.8767 98.5876 41.2933 97.4769 42.438C96.3776 43.5713 95.0063 44.138 93.3629 44.138H88.6029V32.238ZM91.3229 41.52H93.3629C94.3036 41.52 95.0629 41.2197 95.6409 40.619C96.2303 40.0183 96.5249 39.208 96.5249 38.188C96.5249 37.168 96.2303 36.3633 95.6409 35.774C95.0629 35.162 94.3036 34.856 93.3629 34.856H91.3229V41.52Z" fill="white"/>
<path d="M12 32.238H20.84V34.856H17.78V44.138H15.06V34.856H12V32.238Z" fill="white"/>
<path d="M31.414 42.591C30.2127 43.781 28.7507 44.376 27.028 44.376C25.3053 44.376 23.8433 43.781 22.642 42.591C21.4407 41.401 20.84 39.9333 20.84 38.188C20.84 36.4427 21.4407 34.975 22.642 33.785C23.8433 32.595 25.3053 32 27.028 32C28.7507 32 30.2127 32.595 31.414 33.785C32.6153 34.975 33.216 36.4427 33.216 38.188C33.216 39.9333 32.6153 41.401 31.414 42.591ZM23.56 38.188C23.56 39.2307 23.8887 40.0807 24.546 40.738C25.2033 41.3953 26.0307 41.724 27.028 41.724C28.014 41.724 28.8357 41.3953 29.493 40.738C30.1617 40.0693 30.496 39.2193 30.496 38.188C30.496 37.1567 30.1617 36.3067 29.493 35.638C28.8357 34.9807 28.014 34.652 27.028 34.652C26.0307 34.652 25.2033 34.9807 24.546 35.638C23.8887 36.2953 23.56 37.1453 23.56 38.188Z" fill="white"/>
<path d="M34.7475 32.238H39.2525C40.4311 32.238 41.4171 32.6347 42.2105 33.428C43.0151 34.2327 43.4175 35.196 43.4175 36.318C43.4175 37.44 43.0151 38.4033 42.2105 39.208C41.4171 40.0013 40.4311 40.398 39.2525 40.398H37.4675V44.138H34.7475V32.238ZM37.4675 37.848H39.2525C39.6718 37.848 40.0175 37.7007 40.2895 37.406C40.5615 37.1113 40.6975 36.7487 40.6975 36.318C40.6975 35.8873 40.5615 35.5247 40.2895 35.23C40.0175 34.9353 39.6718 34.788 39.2525 34.788H37.4675V37.848Z" fill="white"/>
<path d="M50.3698 44.376C48.5905 44.376 47.1115 43.7867 45.9328 42.608C44.7655 41.4293 44.1818 39.956 44.1818 38.188C44.1818 36.42 44.7655 34.9523 45.9328 33.785C47.1001 32.595 48.5791 32 50.3698 32C51.4351 32 52.4211 32.2493 53.3278 32.748C54.2345 33.2353 54.9485 33.904 55.4698 34.754L53.1238 36.114C52.8631 35.6493 52.4891 35.2923 52.0018 35.043C51.5258 34.7823 50.9818 34.652 50.3698 34.652C49.3045 34.652 48.4601 34.975 47.8368 35.621C47.2135 36.2557 46.9018 37.1113 46.9018 38.188C46.9018 39.2647 47.2135 40.1203 47.8368 40.755C48.4601 41.401 49.3045 41.724 50.3698 41.724C50.9705 41.724 51.5145 41.5937 52.0018 41.333C52.5005 41.0723 52.8745 40.7153 53.1238 40.262L55.4698 41.622C54.9598 42.472 54.2515 43.1463 53.3448 43.645C52.4381 44.1323 51.4465 44.376 50.3698 44.376Z" fill="white"/>
<path d="M59.4645 32.238V41.52H63.7145V44.138H56.7445V32.238H59.4645Z" fill="white"/>
<path d="M74.2958 42.591C73.0945 43.781 71.6325 44.376 69.9098 44.376C68.1872 44.376 66.7252 43.781 65.5238 42.591C64.3225 41.401 63.7218 39.9333 63.7218 38.188C63.7218 36.4427 64.3225 34.975 65.5238 33.785C66.7252 32.595 68.1872 32 69.9098 32C71.6325 32 73.0945 32.595 74.2958 33.785C75.4972 34.975 76.0978 36.4427 76.0978 38.188C76.0978 39.9333 75.4972 41.401 74.2958 42.591ZM66.4418 38.188C66.4418 39.2307 66.7705 40.0807 67.4278 40.738C68.0852 41.3953 68.9125 41.724 69.9098 41.724C70.8958 41.724 71.7175 41.3953 72.3748 40.738C73.0435 40.0693 73.3778 39.2193 73.3778 38.188C73.3778 37.1567 73.0435 36.3067 72.3748 35.638C71.7175 34.9807 70.8958 34.652 69.9098 34.652C68.9125 34.652 68.0852 34.9807 67.4278 35.638C66.7705 36.2953 66.4418 37.1453 66.4418 38.188Z" fill="white"/>
<path d="M77.4613 40.296V32.238H80.1813V40.058C80.1813 41.1687 80.8046 41.724 82.0513 41.724C83.298 41.724 83.9213 41.1687 83.9213 40.058V32.238H86.6413V40.296C86.6413 41.554 86.2106 42.5457 85.3493 43.271C84.4766 44.0077 83.3773 44.376 82.0513 44.376C80.7253 44.376 79.626 44.0077 78.7533 43.271C77.892 42.5457 77.4613 41.554 77.4613 40.296Z" fill="white"/>
<path d="M88.6029 32.238H93.3629C94.9949 32.238 96.3663 32.8103 97.4769 33.955C98.5876 35.0997 99.1429 36.5107 99.1429 38.188C99.1429 39.8767 98.5876 41.2933 97.4769 42.438C96.3776 43.5713 95.0063 44.138 93.3629 44.138H88.6029V32.238ZM91.3229 41.52H93.3629C94.3036 41.52 95.0629 41.2197 95.6409 40.619C96.2303 40.0183 96.5249 39.208 96.5249 38.188C96.5249 37.168 96.2303 36.3633 95.6409 35.774C95.0629 35.162 94.3036 34.856 93.3629 34.856H91.3229V41.52Z" fill="white"/>
</svg>
