<svg width="2650" height="2205" viewBox="0 0 2650 2205" fill="none" xmlns="http://www.w3.org/2000/svg">
<g opacity="0.8" filter="url(#filter0_f_1453_34602)">
<rect x="1409" y="500" width="555" height="666.381" fill="#FF9C71"/>
</g>
<g opacity="0.8" filter="url(#filter1_f_1453_34602)">
<rect x="1250" y="700.406" width="555" height="666.381" fill="#42E8E0"/>
</g>
<g opacity="0.8" filter="url(#filter2_f_1453_34602)">
<rect x="1673" y="717.619" width="555" height="666.381" fill="#7187FF"/>
</g>
<g opacity="0.4" filter="url(#filter3_f_1453_34602)">
<path d="M2150 887.408L2150 500L820.925 500L1594.16 819.928L2150 887.408Z" fill="#FF03B8"/>
<path d="M820.925 500L500 500L500 1223L500 1464L1594.16 819.928L820.925 500Z" fill="#6254FF"/>
<path d="M500 1464L500 1705L1825.16 1705L1594.16 819.928L500 1464Z" fill="#37413D"/>
<path d="M2150 1705L2150 887.408L1594.16 819.928L1825.16 1705L2150 1705Z" fill="#6254FF"/>
</g>
<defs>
<filter id="filter0_f_1453_34602" x="1159" y="250" width="1055" height="1166.38" filterUnits="userSpaceOnUse" color-interpolation-filters="sRGB">
<feFlood flood-opacity="0" result="BackgroundImageFix"/>
<feBlend mode="normal" in="SourceGraphic" in2="BackgroundImageFix" result="shape"/>
<feGaussianBlur stdDeviation="125" result="effect1_foregroundBlur_1453_34602"/>
</filter>
<filter id="filter1_f_1453_34602" x="1000" y="450.406" width="1055" height="1166.38" filterUnits="userSpaceOnUse" color-interpolation-filters="sRGB">
<feFlood flood-opacity="0" result="BackgroundImageFix"/>
<feBlend mode="normal" in="SourceGraphic" in2="BackgroundImageFix" result="shape"/>
<feGaussianBlur stdDeviation="125" result="effect1_foregroundBlur_1453_34602"/>
</filter>
<filter id="filter2_f_1453_34602" x="1423" y="467.619" width="1055" height="1166.38" filterUnits="userSpaceOnUse" color-interpolation-filters="sRGB">
<feFlood flood-opacity="0" result="BackgroundImageFix"/>
<feBlend mode="normal" in="SourceGraphic" in2="BackgroundImageFix" result="shape"/>
<feGaussianBlur stdDeviation="125" result="effect1_foregroundBlur_1453_34602"/>
</filter>
<filter id="filter3_f_1453_34602" x="0" y="0" width="2650" height="2205" filterUnits="userSpaceOnUse" color-interpolation-filters="sRGB">
<feFlood flood-opacity="0" result="BackgroundImageFix"/>
<feBlend mode="normal" in="SourceGraphic" in2="BackgroundImageFix" result="shape"/>
<feGaussianBlur stdDeviation="250" result="effect1_foregroundBlur_1453_34602"/>
</filter>
</defs>
</svg>
