<svg width="16" height="16" viewBox="0 0 16 16" fill="none" xmlns="http://www.w3.org/2000/svg">
<path fill-rule="evenodd" clip-rule="evenodd" d="M7.99967 1.33301C6.15873 1.33301 4.66634 2.82539 4.66634 4.66634C4.66634 6.50729 6.15873 7.99967 7.99967 7.99967C9.84062 7.99967 11.333 6.50729 11.333 4.66634C11.333 2.82539 9.84062 1.33301 7.99967 1.33301ZM5.99967 4.66634C5.99967 3.56177 6.89511 2.66634 7.99967 2.66634C9.10424 2.66634 9.99967 3.56177 9.99967 4.66634C9.99967 5.77091 9.10424 6.66634 7.99967 6.66634C6.89511 6.66634 5.99967 5.77091 5.99967 4.66634Z" fill="white"/>
<path d="M7.99974 8.66634C4.39279 8.66634 2.33301 11.7319 2.33301 14.6663H3.66634C3.66634 12.2675 5.31506 9.99967 7.99974 9.99967C10.6844 9.99967 12.333 12.2674 12.333 14.6663H13.6663C13.6663 11.7319 11.6067 8.66634 7.99974 8.66634Z" fill="white"/>
</svg>
