<svg width="123" height="122" viewBox="0 0 123 122" fill="none" xmlns="http://www.w3.org/2000/svg">
<g filter="url(#filter0_d_1259_31612)">
<path d="M36 120.5C34.8065 120.5 33.6619 120.026 32.818 119.182C31.9741 118.338 31.5 117.193 31.5 116V91.9811C29.0312 93.1587 26.2952 93.6632 23.5688 93.4436C21.2602 93.2739 19.0174 92.5976 17.0001 91.4625C14.9827 90.3275 13.2403 88.7618 11.8968 86.8768C10.5534 84.9917 9.642 82.8338 9.22747 80.5564C8.81294 78.2791 8.90547 75.9384 9.4985 73.7009C10.0915 71.4634 11.1704 69.3841 12.6585 67.611C14.1465 65.8379 16.0071 64.4146 18.1078 63.4424C20.2085 62.4702 22.4977 61.973 24.8124 61.9861C27.1271 61.9993 29.4105 62.5225 31.5 63.5185V39.4998C31.5 38.3063 31.9741 37.1617 32.818 36.3178C33.6619 35.4739 34.8065 34.9998 36 34.9998H62.2687C61.0911 32.531 60.5866 29.795 60.8062 27.0686C60.9759 24.76 61.6522 22.5172 62.7873 20.4999C63.9223 18.4825 65.488 16.7401 67.373 15.3966C69.2581 14.0532 71.416 13.1418 73.6934 12.7273C75.9707 12.3127 78.3114 12.4053 80.5489 12.9983C82.7864 13.5913 84.8657 14.6703 86.6388 16.1583C88.4119 17.6463 89.8352 19.5069 90.8074 21.6076C91.7796 23.7083 92.2768 25.9975 92.2637 28.3122C92.2505 30.6269 91.7273 32.9103 90.7313 34.9998H117C118.193 34.9998 119.338 35.4739 120.182 36.3178C121.026 37.1617 121.5 38.3063 121.5 39.4998V63.5185C119.031 62.3409 116.295 61.8364 113.569 62.056C111.26 62.2257 109.017 62.902 107 64.0371C104.983 65.1721 103.24 66.7378 101.897 68.6228C100.553 70.5079 99.642 72.6658 99.2275 74.9432C98.8129 77.2205 98.9055 79.5612 99.4985 81.7987C100.092 84.0362 101.17 86.1155 102.658 87.8886C104.147 89.6617 106.007 91.085 108.108 92.0572C110.209 93.0294 112.498 93.5266 114.812 93.5135C117.127 93.5003 119.41 92.9771 121.5 91.9811V116C121.5 117.193 121.026 118.338 120.182 119.182C119.338 120.026 118.193 120.5 117 120.5H36Z" stroke="#83CC49" stroke-width="2.5" stroke-linecap="round" stroke-linejoin="round"/>
</g>
<defs>
<filter id="filter0_d_1259_31612" x="-4" y="-1" width="152" height="152" filterUnits="userSpaceOnUse" color-interpolation-filters="sRGB">
<feFlood flood-opacity="0" result="BackgroundImageFix"/>
<feColorMatrix in="SourceAlpha" type="matrix" values="0 0 0 0 0 0 0 0 0 0 0 0 0 0 0 0 0 0 127 0" result="hardAlpha"/>
<feOffset dy="4"/>
<feGaussianBlur stdDeviation="2"/>
<feComposite in2="hardAlpha" operator="out"/>
<feColorMatrix type="matrix" values="0 0 0 0 0 0 0 0 0 0 0 0 0 0 0 0 0 0 0.25 0"/>
<feBlend mode="normal" in2="BackgroundImageFix" result="effect1_dropShadow_1259_31612"/>
<feBlend mode="normal" in="SourceGraphic" in2="effect1_dropShadow_1259_31612" result="shape"/>
</filter>
</defs>
</svg>
