<svg width="100" height="100" viewBox="0 0 100 100" fill="none" xmlns="http://www.w3.org/2000/svg">
<path d="M25 84.3748C24.1712 84.3748 23.3763 84.0456 22.7903 83.4595C22.2042 82.8735 21.875 82.0786 21.875 81.2498V64.5701C20.1606 65.3879 18.2605 65.7383 16.3672 65.5857C14.764 65.468 13.2066 64.9982 11.8056 64.21C10.4046 63.4218 9.19462 62.3345 8.26169 61.0255C7.32876 59.7164 6.69583 58.2178 6.40796 56.6364C6.12009 55.0549 6.18436 53.4294 6.59618 51.8755C7.008 50.3217 7.75726 48.8778 8.79062 47.6465C9.82399 46.4152 11.1161 45.4268 12.5749 44.7516C14.0337 44.0765 15.6234 43.7312 17.2308 43.7403C18.8383 43.7495 20.424 44.1128 21.875 44.8045V28.1248C21.875 27.296 22.2042 26.5012 22.7903 25.9151C23.3763 25.329 24.1712 24.9998 25 24.9998H43.2422C42.4244 23.2854 42.074 21.3853 42.2266 19.492C42.3444 17.8888 42.8141 16.3314 43.6023 14.9304C44.3905 13.5294 45.4778 12.3194 46.7868 11.3865C48.0959 10.4536 49.5945 9.82064 51.176 9.53277C52.7574 9.2449 54.3829 9.30917 55.9368 9.72099C57.4906 10.1328 58.9345 10.8821 60.1658 11.9154C61.3972 12.9488 62.3855 14.2409 63.0607 15.6997C63.7358 17.1585 64.0811 18.7482 64.072 20.3556C64.0628 21.9631 63.6995 23.5488 63.0078 24.9998H81.25C82.0788 24.9998 82.8737 25.329 83.4597 25.9151C84.0458 26.5012 84.375 27.296 84.375 28.1248V44.8045C82.6606 43.9867 80.7605 43.6363 78.8672 43.7889C77.264 43.9067 75.7066 44.3764 74.3056 45.1646C72.9046 45.9528 71.6946 47.0401 70.7617 48.3491C69.8288 49.6582 69.1958 51.1568 68.908 52.7383C68.6201 54.3197 68.6844 55.9452 69.0962 57.4991C69.508 59.0529 70.2573 60.4968 71.2906 61.7282C72.324 62.9595 73.6161 63.9479 75.0749 64.623C76.5337 65.2981 78.1234 65.6434 79.7308 65.6343C81.3383 65.6252 82.924 65.2618 84.375 64.5701V81.2498C84.375 82.0786 84.0458 82.8735 83.4597 83.4595C82.8737 84.0456 82.0788 84.3748 81.25 84.3748H25Z" stroke="#83CC49" stroke-width="2.5" stroke-linecap="round" stroke-linejoin="round"/>
</svg>
