<svg width="104" height="84" viewBox="0 0 104 84" fill="none" xmlns="http://www.w3.org/2000/svg">
<path d="M7.85786 75.9721L8.74073 75.0872L7.85786 75.9721ZM42 83.0665C42.6904 83.0665 43.25 82.5069 43.25 81.8165C43.25 81.1262 42.6904 80.5665 42 80.5665V83.0665ZM7.85786 7.84443L8.74073 8.72933V8.72933L7.85786 7.84443ZM83.9603 2.09608L84.0826 0.852076L83.9603 2.09608ZM100.75 24.4484C100.75 25.1387 101.31 25.6984 102 25.6984C102.69 25.6984 103.25 25.1387 103.25 24.4484H100.75ZM101.904 19.9983L103.148 19.8755L101.904 19.9983ZM99.75 35.9249C100.44 35.9249 101 35.3652 101 34.6749C101 33.9845 100.44 33.4249 99.75 33.4249V35.9249ZM53.5 79.5717C53.5 80.262 54.0596 80.8217 54.75 80.8217C55.4404 80.8217 56 80.262 56 79.5717H53.5ZM99.625 50.8905C100.315 50.8905 100.875 50.3308 100.875 49.6405C100.875 48.9501 100.315 48.3905 99.625 48.3905V50.8905ZM68.375 79.5717C68.375 80.262 68.9346 80.8217 69.625 80.8217C70.3153 80.8217 70.875 80.262 70.875 79.5717H68.375ZM99.75 65.8561C100.44 65.8561 101 65.2964 101 64.6061C101 63.9157 100.44 63.3561 99.75 63.3561V65.8561ZM83.5 79.5717C83.5 80.262 84.0596 80.8217 84.75 80.8217C85.4404 80.8217 86 80.262 86 79.5717H83.5ZM79.5 0.75H42V3.25H79.5V0.75ZM0.75 41.9083C0.75 51.2793 0.747333 58.4336 1.49343 63.9703C2.24441 69.5432 3.77459 73.6639 6.975 76.857L8.74073 75.0872C6.08327 72.4358 4.68452 68.9311 3.97104 63.6364C3.25267 58.3055 3.25 51.3501 3.25 41.9083H0.75ZM42 80.5665C32.5366 80.5665 25.5646 80.5639 20.2207 79.847C14.9126 79.135 11.3986 77.7389 8.74073 75.0872L6.975 76.857C10.175 80.0496 14.304 81.5758 19.8884 82.3249C25.4371 83.0691 32.6072 83.0665 42 83.0665V80.5665ZM3.25 41.9083C3.25 32.4664 3.25267 25.511 3.97104 20.1801C4.68452 14.8854 6.08327 11.3807 8.74073 8.72933L6.975 6.95953C3.77459 10.1526 2.24441 14.2733 1.49343 19.8462C0.747333 25.3829 0.75 32.5372 0.75 41.9083H3.25ZM42 0.75C32.6072 0.75 25.4371 0.747357 19.8884 1.49165C14.304 2.24073 10.175 3.76686 6.975 6.95953L8.74073 8.72933C11.3986 6.07756 14.9126 4.68149 20.2207 3.96946C25.5646 3.25264 32.5366 3.25 42 3.25V0.75ZM79.5 3.25C81.8514 3.25 82.9366 3.25151 83.8381 3.34009L84.0826 0.852076C83.0284 0.74849 81.792 0.75 79.5 0.75V3.25ZM103.25 24.4484C103.25 22.1618 103.252 20.9277 103.148 19.8755L100.66 20.1211C100.748 21.02 100.75 22.1022 100.75 24.4484H103.25ZM83.8381 3.34009C92.7421 4.21505 99.7833 11.2428 100.66 20.1211L103.148 19.8755C102.154 9.80628 94.1696 1.84328 84.0826 0.852076L83.8381 3.34009ZM99.75 33.4249C74.2095 33.4249 53.5 54.0828 53.5 79.5717H56C56 55.4689 75.5848 35.9249 99.75 35.9249V33.4249ZM99.625 48.3905C82.3688 48.3905 68.375 62.3481 68.375 79.5717H70.875C70.875 63.7342 83.7441 50.8905 99.625 50.8905V48.3905ZM99.75 63.3561C90.7781 63.3561 83.5 70.6133 83.5 79.5717H86C86 71.9995 92.1534 65.8561 99.75 65.8561V63.3561Z" fill="#E8426A"/>
</svg>
