<svg width="133" height="108" viewBox="0 0 133 108" fill="none" xmlns="http://www.w3.org/2000/svg">
<g clip-path="url(#clip0_1259_31601)">
<path d="M10.1437 102.522L11.0276 101.638L10.1437 102.522ZM55.6666 111.583C56.3569 111.583 56.9166 111.023 56.9166 110.333C56.9166 109.642 56.3569 109.083 55.6666 109.083V111.583ZM10.1437 11.4765L11.0276 12.3604L10.1437 11.4765ZM111.614 3.79442L111.736 2.55044L111.614 3.79442ZM134.417 33.666C134.417 34.3564 134.976 34.916 135.667 34.916C136.357 34.916 136.917 34.3564 136.917 33.666H134.417ZM135.538 27.7189L136.782 27.5964V27.5964L135.538 27.7189ZM132.667 48.5827C133.357 48.5827 133.917 48.023 133.917 47.3327C133.917 46.6423 133.357 46.0827 132.667 46.0827V48.5827ZM71.4166 107.333C71.4166 108.023 71.9762 108.583 72.6666 108.583C73.3569 108.583 73.9166 108.023 73.9166 107.333H71.4166ZM132.5 68.5827C133.19 68.5827 133.75 68.023 133.75 67.3327C133.75 66.6423 133.19 66.0827 132.5 66.0827V68.5827ZM91.2499 107.333C91.2499 108.023 91.8096 108.583 92.4999 108.583C93.1903 108.583 93.7499 108.023 93.7499 107.333H91.2499ZM132.667 88.5827C133.357 88.5827 133.917 88.023 133.917 87.3327C133.917 86.6423 133.357 86.0827 132.667 86.0827V88.5827ZM111.417 107.333C111.417 108.023 111.976 108.583 112.667 108.583C113.357 108.583 113.917 108.023 113.917 107.333H111.417ZM105.667 2.41602H55.6666V4.91602H105.667V2.41602ZM1.08325 56.9993C1.08325 69.5348 1.0806 79.0621 2.07071 86.4265C3.06566 93.8268 5.08365 99.2299 9.25985 103.406L11.0276 101.638C7.39334 98.004 5.50609 93.2165 4.54842 86.0934C3.58591 78.9343 3.58325 69.6055 3.58325 56.9993H1.08325ZM55.6666 109.083C43.0605 109.083 33.7316 109.08 26.5726 108.118C19.4495 107.16 14.6619 105.273 11.0276 101.638L9.25985 103.406C13.4361 107.582 18.8391 109.6 26.2394 110.595C33.6038 111.585 43.1311 111.583 55.6666 111.583V109.083ZM3.58325 56.9993C3.58325 44.3932 3.58591 35.0644 4.54842 27.9053C5.50609 20.7822 7.39334 15.9947 11.0276 12.3604L9.25985 10.5926C5.08365 14.7688 3.06566 20.1719 2.07071 27.5722C1.0806 34.9366 1.08325 44.4639 1.08325 56.9993H3.58325ZM55.6666 2.41602C43.1311 2.41602 33.6038 2.41336 26.2394 3.40347C18.8391 4.39842 13.4361 6.41641 9.25985 10.5926L11.0276 12.3604C14.6619 8.7261 19.4495 6.83885 26.5726 5.88118C33.7316 4.91867 43.0605 4.91602 55.6666 4.91602V2.41602ZM105.667 4.91602C108.792 4.91602 110.264 4.91753 111.491 5.0384L111.736 2.55044C110.356 2.4145 108.732 2.41602 105.667 2.41602V4.91602ZM136.917 33.666C136.917 30.6002 136.918 28.9766 136.782 27.5964L134.294 27.8414C134.415 29.0686 134.417 30.5407 134.417 33.666H136.917ZM111.491 5.0384C123.558 6.22692 133.106 15.7742 134.294 27.8414L136.782 27.5964C135.477 14.3422 124.99 3.85587 111.736 2.55044L111.491 5.0384ZM132.667 46.0827C98.8391 46.0827 71.4166 73.5052 71.4166 107.333H73.9166C73.9166 74.886 100.22 48.5827 132.667 48.5827V46.0827ZM132.5 66.0827C109.718 66.0827 91.2499 84.5509 91.2499 107.333H93.7499C93.7499 85.9317 111.099 68.5827 132.5 68.5827V66.0827ZM132.667 86.0827C120.931 86.0827 111.417 95.5966 111.417 107.333H113.917C113.917 96.9773 122.311 88.5827 132.667 88.5827V86.0827Z" fill="#E8426A"/>
</g>
<defs>
<clipPath id="clip0_1259_31601">
<path d="M0 0H133V28C133 65.7124 133 84.5685 121.284 96.2843C109.569 108 90.7124 108 53 108H0V0Z" fill="white"/>
</clipPath>
</defs>
</svg>
