<svg width="12" height="14" viewBox="0 0 12 14" fill="none" xmlns="http://www.w3.org/2000/svg">
<path d="M8.00033 2.99967C7.63427 3.01175 0.666992 2.99967 0.666992 2.99967V4.33301H7.33366V12.333H6.00033V13.6663H8.00033C8.19563 13.6833 8.64878 13.5 8.66699 12.9997C8.66699 12.9997 8.65151 4.00977 8.66699 3.66634C8.68248 3.32291 8.36638 2.9876 8.00033 2.99967Z" fill="white"/>
<path d="M10.667 0.333008H3.33366V1.66634H10.0003V10.9997H11.3337V0.999674C11.2961 0.631139 11.2305 0.375034 10.667 0.333008Z" fill="white"/>
<path d="M6.00033 5.66634H2.00033V6.33301H6.00033V5.66634Z" fill="white"/>
<path d="M6.00033 6.99967H1.33366V7.66634H6.00033V6.99967Z" fill="white"/>
</svg>
