<svg width="161" height="43" viewBox="0 0 161 43" fill="none" xmlns="http://www.w3.org/2000/svg">
<path d="M72.3617 27.1068C70.8918 28.5628 69.103 29.2908 66.9953 29.2908C64.8875 29.2908 63.0987 28.5628 61.6289 27.1068C60.159 25.6508 59.4241 23.8551 59.4241 21.7196C59.4241 19.5842 60.159 17.7884 61.6289 16.3324C63.0987 14.8764 64.8875 14.1484 66.9953 14.1484C69.103 14.1484 70.8918 14.8764 72.3617 16.3324C73.8315 17.7884 74.5665 19.5842 74.5665 21.7196C74.5665 23.8551 73.8315 25.6508 72.3617 27.1068ZM62.7521 21.7196C62.7521 22.9954 63.1542 24.0354 63.9585 24.8396C64.7627 25.6439 65.775 26.046 66.9953 26.046C68.2017 26.046 69.207 25.6439 70.0113 24.8396C70.8294 24.0215 71.2385 22.9815 71.2385 21.7196C71.2385 20.4578 70.8294 19.4178 70.0113 18.5996C69.207 17.7954 68.2017 17.3932 66.9953 17.3932C65.775 17.3932 64.7627 17.7954 63.9585 18.5996C63.1542 19.4039 62.7521 20.4439 62.7521 21.7196Z" fill="#828397"/>
<path d="M84.1779 22.3436V14.4396H87.5059V28.9996H85.0099L79.3939 21.0956V28.9996H76.0659V14.4396H78.5619L84.1779 22.3436Z" fill="#828397"/>
<path d="M96.573 29.2908C94.396 29.2908 92.5864 28.5698 91.1442 27.1276C89.716 25.6855 89.0018 23.8828 89.0018 21.7196C89.0018 19.5564 89.716 17.7607 91.1442 16.3324C92.5725 14.8764 94.3821 14.1484 96.573 14.1484C97.8765 14.1484 99.0829 14.4535 100.192 15.0636C101.302 15.6599 102.175 16.478 102.813 17.518L99.9426 19.182C99.6237 18.6135 99.1661 18.1767 98.5698 17.8716C97.9874 17.5527 97.3218 17.3932 96.573 17.3932C95.2696 17.3932 94.2365 17.7884 93.4738 18.5788C92.7112 19.3554 92.3298 20.4023 92.3298 21.7196C92.3298 23.037 92.7112 24.0839 93.4738 24.8604C94.2365 25.6508 95.2696 26.046 96.573 26.046C97.308 26.046 97.9736 25.8866 98.5698 25.5676C99.18 25.2487 99.6376 24.8119 99.9426 24.2572L102.813 25.9212C102.189 26.9612 101.322 27.7863 100.213 28.3964C99.1037 28.9927 97.8904 29.2908 96.573 29.2908Z" fill="#828397"/>
<path d="M107.326 14.4396V25.7964H112.526V28.9996H103.998V14.4396H107.326Z" fill="#828397"/>
<path d="M125.098 27.1068C123.629 28.5628 121.84 29.2908 119.732 29.2908C117.624 29.2908 115.836 28.5628 114.366 27.1068C112.896 25.6508 112.161 23.8551 112.161 21.7196C112.161 19.5842 112.896 17.7884 114.366 16.3324C115.836 14.8764 117.624 14.1484 119.732 14.1484C121.84 14.1484 123.629 14.8764 125.098 16.3324C126.568 17.7884 127.303 19.5842 127.303 21.7196C127.303 23.8551 126.568 25.6508 125.098 27.1068ZM115.489 21.7196C115.489 22.9954 115.891 24.0354 116.695 24.8396C117.5 25.6439 118.512 26.046 119.732 26.046C120.938 26.046 121.944 25.6439 122.748 24.8396C123.566 24.0215 123.975 22.9815 123.975 21.7196C123.975 20.4578 123.566 19.4178 122.748 18.5996C121.944 17.7954 120.938 17.3932 119.732 17.3932C118.512 17.3932 117.5 17.7954 116.695 18.5996C115.891 19.4039 115.489 20.4439 115.489 21.7196Z" fill="#828397"/>
<path d="M128.597 24.2988V14.4396H131.925V24.0076C131.925 25.3666 132.688 26.046 134.213 26.046C135.738 26.046 136.501 25.3666 136.501 24.0076V14.4396H139.829V24.2988C139.829 25.838 139.302 27.0514 138.248 27.9388C137.181 28.8402 135.835 29.2908 134.213 29.2908C132.591 29.2908 131.246 28.8402 130.178 27.9388C129.124 27.0514 128.597 25.838 128.597 24.2988Z" fill="#828397"/>
<path d="M141.855 14.4396H147.679C149.676 14.4396 151.353 15.1399 152.712 16.5404C154.071 17.941 154.751 19.6674 154.751 21.7196C154.751 23.7858 154.071 25.5191 152.712 26.9196C151.367 28.3063 149.689 28.9996 147.679 28.9996H141.855V14.4396ZM145.183 25.7964H147.679C148.83 25.7964 149.759 25.429 150.466 24.694C151.187 23.9591 151.548 22.9676 151.548 21.7196C151.548 20.4716 151.187 19.4871 150.466 18.766C149.759 18.0172 148.83 17.6428 147.679 17.6428H145.183V25.7964Z" fill="#828397"/>
<path d="M25.8862 1.11523C14.9026 1.11523 6 10.0178 6 21.0004C6 31.9809 14.9026 40.8845 25.8862 40.8845C36.8697 40.8845 45.7703 31.9809 45.7703 21.0004C45.7703 10.0178 36.8697 1.11523 25.8862 1.11523ZM25.8862 29.5911C21.1426 29.5911 17.2974 25.7429 17.2974 21.0014C17.2974 16.2588 21.1426 12.4127 25.8862 12.4127C30.6277 12.4127 34.4759 16.2588 34.4759 21.0014C34.4759 25.7429 30.6277 29.5911 25.8862 29.5911ZM40.5077 24.2147L37.7477 21.3993V24.1901H35.4677V17.5768H36.6595L39.4174 20.3932V17.6024H41.6974V24.2137H40.5077V24.2147Z" fill="#BBBEE7"/>
</svg>
