<svg width="161" height="43" viewBox="0 0 161 43" fill="none" xmlns="http://www.w3.org/2000/svg">
<path d="M72.3617 29.1068C70.8918 30.5628 69.103 31.2908 66.9953 31.2908C64.8875 31.2908 63.0987 30.5628 61.6289 29.1068C60.159 27.6508 59.4241 25.8551 59.4241 23.7196C59.4241 21.5842 60.159 19.7884 61.6289 18.3324C63.0987 16.8764 64.8875 16.1484 66.9953 16.1484C69.103 16.1484 70.8918 16.8764 72.3617 18.3324C73.8315 19.7884 74.5665 21.5842 74.5665 23.7196C74.5665 25.8551 73.8315 27.6508 72.3617 29.1068ZM62.7521 23.7196C62.7521 24.9954 63.1542 26.0354 63.9585 26.8396C64.7627 27.6439 65.775 28.046 66.9953 28.046C68.2017 28.046 69.207 27.6439 70.0113 26.8396C70.8294 26.0215 71.2385 24.9815 71.2385 23.7196C71.2385 22.4578 70.8294 21.4178 70.0113 20.5996C69.207 19.7954 68.2017 19.3932 66.9953 19.3932C65.775 19.3932 64.7627 19.7954 63.9585 20.5996C63.1542 21.4039 62.7521 22.4439 62.7521 23.7196Z" fill="white"/>
<path d="M84.1779 24.3436V16.4396H87.5059V30.9996H85.0099L79.3939 23.0956V30.9996H76.0659V16.4396H78.5619L84.1779 24.3436Z" fill="white"/>
<path d="M96.573 31.2908C94.396 31.2908 92.5864 30.5698 91.1442 29.1276C89.716 27.6855 89.0018 25.8828 89.0018 23.7196C89.0018 21.5564 89.716 19.7607 91.1442 18.3324C92.5725 16.8764 94.3821 16.1484 96.573 16.1484C97.8765 16.1484 99.0829 16.4535 100.192 17.0636C101.302 17.6599 102.175 18.478 102.813 19.518L99.9426 21.182C99.6237 20.6135 99.1661 20.1767 98.5698 19.8716C97.9874 19.5527 97.3218 19.3932 96.573 19.3932C95.2696 19.3932 94.2365 19.7884 93.4738 20.5788C92.7112 21.3554 92.3298 22.4023 92.3298 23.7196C92.3298 25.037 92.7112 26.0839 93.4738 26.8604C94.2365 27.6508 95.2696 28.046 96.573 28.046C97.308 28.046 97.9736 27.8866 98.5698 27.5676C99.18 27.2487 99.6376 26.8119 99.9426 26.2572L102.813 27.9212C102.189 28.9612 101.322 29.7863 100.213 30.3964C99.1037 30.9927 97.8904 31.2908 96.573 31.2908Z" fill="white"/>
<path d="M107.326 16.4396V27.7964H112.526V30.9996H103.998V16.4396H107.326Z" fill="white"/>
<path d="M125.098 29.1068C123.629 30.5628 121.84 31.2908 119.732 31.2908C117.624 31.2908 115.836 30.5628 114.366 29.1068C112.896 27.6508 112.161 25.8551 112.161 23.7196C112.161 21.5842 112.896 19.7884 114.366 18.3324C115.836 16.8764 117.624 16.1484 119.732 16.1484C121.84 16.1484 123.629 16.8764 125.098 18.3324C126.568 19.7884 127.303 21.5842 127.303 23.7196C127.303 25.8551 126.568 27.6508 125.098 29.1068ZM115.489 23.7196C115.489 24.9954 115.891 26.0354 116.695 26.8396C117.5 27.6439 118.512 28.046 119.732 28.046C120.938 28.046 121.944 27.6439 122.748 26.8396C123.566 26.0215 123.975 24.9815 123.975 23.7196C123.975 22.4578 123.566 21.4178 122.748 20.5996C121.944 19.7954 120.938 19.3932 119.732 19.3932C118.512 19.3932 117.5 19.7954 116.695 20.5996C115.891 21.4039 115.489 22.4439 115.489 23.7196Z" fill="white"/>
<path d="M128.597 26.2988V16.4396H131.925V26.0076C131.925 27.3666 132.688 28.046 134.213 28.046C135.738 28.046 136.501 27.3666 136.501 26.0076V16.4396H139.829V26.2988C139.829 27.838 139.302 29.0514 138.248 29.9388C137.181 30.8402 135.835 31.2908 134.213 31.2908C132.591 31.2908 131.246 30.8402 130.178 29.9388C129.124 29.0514 128.597 27.838 128.597 26.2988Z" fill="white"/>
<path d="M141.855 16.4396H147.679C149.676 16.4396 151.353 17.1399 152.712 18.5404C154.071 19.941 154.751 21.6674 154.751 23.7196C154.751 25.7858 154.071 27.5191 152.712 28.9196C151.367 30.3063 149.689 30.9996 147.679 30.9996H141.855V16.4396ZM145.183 27.7964H147.679C148.83 27.7964 149.759 27.429 150.466 26.694C151.187 25.9591 151.548 24.9676 151.548 23.7196C151.548 22.4716 151.187 21.4871 150.466 20.766C149.759 20.0172 148.83 19.6428 147.679 19.6428H145.183V27.7964Z" fill="white"/>
<path d="M25.7718 3.11426C14.8514 3.11426 6 11.9656 6 22.885C6 33.8024 14.8514 42.6548 25.7718 42.6548C36.6922 42.6548 45.5416 33.8024 45.5416 22.885C45.5416 11.9656 36.6922 3.11426 25.7718 3.11426ZM25.7718 31.4264C21.0555 31.4264 17.2325 27.6003 17.2325 22.8861C17.2325 18.1708 21.0555 14.3467 25.7718 14.3467C30.4861 14.3467 34.3122 18.1708 34.3122 22.8861C34.3122 27.6003 30.4861 31.4264 25.7718 31.4264ZM40.3093 26.0809L37.5651 23.2817V26.0564H35.2983V19.4811H36.4832L39.2253 22.2814V19.5066H41.4922V26.0799H40.3093V26.0809Z" fill="url(#paint0_linear_1709_34734)"/>
<defs>
<linearGradient id="paint0_linear_1709_34734" x1="5.01095" y1="22.885" x2="53.2007" y2="22.885" gradientUnits="userSpaceOnUse">
<stop stop-color="#09BCEF"/>
<stop offset="0.2553" stop-color="#1594CE"/>
<stop offset="0.8391" stop-color="#214591"/>
<stop offset="1" stop-color="#232F84"/>
</linearGradient>
</defs>
</svg>
