<svg width="161" height="43" viewBox="0 0 161 43" fill="none" xmlns="http://www.w3.org/2000/svg">
<path d="M67.26 15.3999H72.21C73.938 15.3999 75.372 16.0059 76.512 17.2179C77.664 18.4299 78.24 19.9239 78.24 21.6999C78.24 23.4639 77.664 24.9579 76.512 26.1819C75.372 27.3939 73.938 27.9999 72.21 27.9999H67.26V15.3999ZM69.33 26.0199H72.21C73.398 26.0199 74.364 25.6119 75.108 24.7959C75.864 23.9799 76.242 22.9479 76.242 21.6999C76.242 20.4519 75.864 19.4199 75.108 18.6039C74.364 17.7879 73.398 17.3799 72.21 17.3799H69.33V26.0199Z" fill="#A6A8C7"/>
<path d="M90.0926 27.9999H87.8606L86.9786 25.4619H81.6146L80.7326 27.9999H78.4826L83.0546 15.3999H85.5386L90.0926 27.9999ZM84.2966 17.8299L82.2986 23.5179H86.2946L84.2966 17.8299Z" fill="#A6A8C7"/>
<path d="M89.561 15.3999H98.741V17.3799H95.195V27.9999H93.125V17.3799H89.561V15.3999Z" fill="#A6A8C7"/>
<path d="M109.815 27.9999H107.583L106.701 25.4619H101.337L100.455 27.9999H98.2052L102.777 15.3999H105.261L109.815 27.9999ZM104.019 17.8299L102.021 23.5179H106.017L104.019 17.8299Z" fill="#A6A8C7"/>
<path d="M113.24 15.3999V26.0199H118.37V27.9999H111.17V15.3999H113.24Z" fill="#A6A8C7"/>
<path d="M119.906 27.9999V15.3999H121.976V27.9999H119.906Z" fill="#A6A8C7"/>
<path d="M132.054 23.9499V15.3999H134.124V27.9999H132.504L126.564 19.4499V27.9999H124.494V15.3999H126.114L132.054 23.9499Z" fill="#A6A8C7"/>
<path d="M138.711 22.6179V26.0199H144.291V27.9999H136.641V15.3999H144.201V17.3799H138.711V20.6559H143.751V22.6179H138.711Z" fill="#A6A8C7"/>
<path d="M28.898 27.4451L39.3474 25.8013L37.7242 21.6243L28.3384 23.0712V21.8759L47.6611 18.8834C48.3779 18.7718 49.0329 18.6077 49.5836 18.3907C50.1293 18.1709 50.5903 17.9064 50.9627 17.6074C51.3362 17.3087 51.6223 16.9784 51.8208 16.6258C52.0171 16.2742 52.1413 15.5254 52.1413 15.5254C52.1413 15.5254 52.1413 22.2346 52.1413 22.4458C52.1413 22.655 52.0754 23.1451 51.8268 23.5743C51.6333 23.9283 51.3409 24.2486 50.9761 24.5496C50.609 24.8519 50.1563 25.1208 49.6234 25.3407C49.0886 25.56 48.1837 25.7886 47.4622 25.887V25.8847L39.3499 27.1551V25.8436L28.898 27.4451Z" fill="#7E80A5"/>
<path d="M41.0976 6.23682L42.5868 6.06807C43.4426 5.94453 44.2108 6.01707 44.9233 6.06807C45.636 6.12167 46.2776 6.25995 46.8425 6.48006C47.4108 6.70177 47.9011 7.00468 48.3146 7.38897C48.7287 7.77281 49.0654 8.23964 49.3176 8.77954L51.8904 14.3067C52.1116 14.7848 52.189 15.2756 52.1212 15.7488C52.0547 16.225 51.8411 16.6834 51.4896 17.1016C51.1332 17.5196 50.6381 17.8973 50.0024 18.2039C49.3673 18.5118 48.7439 18.725 47.9162 18.8509L28.3396 21.8719L25.4726 13.4236L33.0688 12.2567L34.8148 16.8924L44.3026 15.4356L41.9064 9.76911L25.1075 12.3484L23.9277 8.87387L41.0976 6.23682Z" fill="#A6A8C7"/>
<path d="M23.6946 13.6455L26.875 23.2966L37.7245 21.6237L39.3476 25.8005L20.083 28.8296L16 14.825L23.6946 13.6455Z" fill="#A6A8C7"/>
<path d="M27.5023 19.4026L25.473 13.4228V19.0367L25.1079 17.9298V12.3476L41.9068 9.76855L41.8945 15.8045L34.8153 16.8917L33.0692 12.256L25.473 13.4228L27.5023 19.4026Z" fill="#BBBEE7"/>
<path d="M20.0859 35.9998V28.7948L39.353 25.8438L39.3506 33.0501L20.0859 35.9998Z" fill="#7E80A5"/>
<path d="M23.9519 29.5209L25.6889 29.2518C26.5567 29.117 27.2952 29.4405 27.2952 31.3012V31.5543C27.2952 32.6961 27.0661 34.1272 25.7462 34.3314L23.9519 34.6084V29.5209ZM24.9347 33.7036L25.5524 33.6077C26.1906 33.5097 26.291 32.6896 26.291 31.696C26.291 30.448 26.1194 29.9393 25.5808 30.0227L24.9348 30.123L24.9347 33.7036Z" fill="#A6A8C7"/>
<path d="M29.1208 28.7203L30.4412 28.5154L31.5895 33.4264L30.5271 33.5916L30.2829 32.3049L29.1709 32.4766L28.8626 33.8491L27.8081 34.0128L29.1208 28.7203ZM30.1609 31.5687L29.7668 29.2614L29.293 31.7029L30.1609 31.5687Z" fill="#A6A8C7"/>
<path d="M33.7844 33.0869L32.8016 33.2393V28.9254L31.582 29.1145V28.3389L35.004 27.8096V28.5849L33.7844 28.7742V33.0869Z" fill="#A6A8C7"/>
<path d="M36.2041 27.624L37.5248 27.4199L38.673 32.3314L37.6107 32.4952L37.3664 31.2092L36.2545 31.3809L35.9463 32.7534L34.8916 32.9171L36.2041 27.624ZM37.2443 30.4743L36.8503 28.1669L36.3764 30.6079L37.2443 30.4743Z" fill="#A6A8C7"/>
<path d="M25.1058 17.9264L23.9277 14.3523V8.875L25.1075 12.3495L25.1058 17.9264Z" fill="#6E7091"/>
<path d="M41.8948 15.8053L41.907 9.76929L44.2959 15.4361L41.8948 15.8053Z" fill="#6E7091"/>
<path d="M26.8701 23.2973L25.4668 19.0377V13.4238L28.3338 21.8722V23.0712L26.8701 23.2973Z" fill="#6E7091"/>
<path d="M20.083 36L16 21.7527V14.8262L20.083 28.8307V36Z" fill="#6E7091"/>
<path d="M40.0088 32.9486V27.8608L40.9928 27.707V32.0209L42.778 31.7455V32.5196L40.0088 32.9486Z" fill="#A6A8C7"/>
<path d="M43.3674 32.4276V27.3383L44.3506 27.1858V32.2759L43.3674 32.4276Z" fill="#A6A8C7"/>
<path d="M45.2197 32.1418V27.0543L46.2801 26.8898L47.7155 30.3675L47.7219 30.3652C47.6151 29.8132 47.6008 29.0658 47.6008 28.4905V26.6854L48.5197 26.542V31.6325L47.4579 31.7975L46.0219 28.3236L46.0162 28.3261C46.1225 28.801 46.1371 29.6803 46.1371 30.1964V31.9993L45.2197 32.1418Z" fill="#A6A8C7"/>
<path d="M49.3784 31.4972V26.4097L52.1475 25.9805V26.7546L50.3617 27.032V28.2166L51.9897 27.9652V28.7388L50.3617 28.9901V30.5693L52.1475 30.2944V31.0691L49.3784 31.4972Z" fill="#A6A8C7"/>
</svg>
