<svg width="161" height="43" viewBox="0 0 161 43" fill="none" xmlns="http://www.w3.org/2000/svg">
<path d="M67.26 15.3999H72.21C73.938 15.3999 75.372 16.0059 76.512 17.2179C77.664 18.4299 78.24 19.9239 78.24 21.6999C78.24 23.4639 77.664 24.9579 76.512 26.1819C75.372 27.3939 73.938 27.9999 72.21 27.9999H67.26V15.3999ZM69.33 26.0199H72.21C73.398 26.0199 74.364 25.6119 75.108 24.7959C75.864 23.9799 76.242 22.9479 76.242 21.6999C76.242 20.4519 75.864 19.4199 75.108 18.6039C74.364 17.7879 73.398 17.3799 72.21 17.3799H69.33V26.0199Z" fill="white"/>
<path d="M90.0926 27.9999H87.8606L86.9786 25.4619H81.6146L80.7326 27.9999H78.4826L83.0546 15.3999H85.5386L90.0926 27.9999ZM84.2966 17.8299L82.2986 23.5179H86.2946L84.2966 17.8299Z" fill="white"/>
<path d="M89.561 15.3999H98.741V17.3799H95.195V27.9999H93.125V17.3799H89.561V15.3999Z" fill="white"/>
<path d="M109.815 27.9999H107.583L106.701 25.4619H101.337L100.455 27.9999H98.2052L102.777 15.3999H105.261L109.815 27.9999ZM104.019 17.8299L102.021 23.5179H106.017L104.019 17.8299Z" fill="white"/>
<path d="M113.24 15.3999V26.0199H118.37V27.9999H111.17V15.3999H113.24Z" fill="white"/>
<path d="M119.906 27.9999V15.3999H121.976V27.9999H119.906Z" fill="white"/>
<path d="M132.054 23.9499V15.3999H134.124V27.9999H132.504L126.564 19.4499V27.9999H124.494V15.3999H126.114L132.054 23.9499Z" fill="white"/>
<path d="M138.711 22.6179V26.0199H144.291V27.9999H136.641V15.3999H144.201V17.3799H138.711V20.6559H143.751V22.6179H138.711Z" fill="white"/>
<path d="M28.8993 27.4458L39.3495 25.8018L37.7261 21.6246L28.3396 23.0715V21.8761L47.6637 18.8834C48.3806 18.7718 49.0357 18.6076 49.5864 18.3906C50.1322 18.1709 50.5932 17.9064 50.9656 17.6073C51.3392 17.3086 51.6252 16.9783 51.8238 16.6257C52.0201 16.274 52.1442 15.5251 52.1442 15.5251C52.1442 15.5251 52.1442 22.2349 52.1442 22.4461C52.1442 22.6553 52.0784 23.1454 51.8298 23.5746C51.6363 23.9287 51.3438 24.249 50.979 24.55C50.6119 24.8524 50.1591 25.1213 49.6262 25.3412C49.0913 25.5605 48.1864 25.7892 47.4648 25.8875V25.8852L39.352 27.1557V25.8441L28.8993 27.4458Z" fill="url(#paint0_linear_1709_34703)"/>
<path d="M41.0994 6.23683L42.5887 6.06808C43.4445 5.94453 44.2128 6.01707 44.9253 6.06808C45.6381 6.12168 46.2797 6.25997 46.8447 6.48009C47.413 6.70182 47.9034 7.00475 48.3169 7.38907C48.731 7.77294 49.0678 8.2398 49.32 8.77974L51.893 14.3073C52.1142 14.7854 52.1916 15.2762 52.1238 15.7495C52.0573 16.2258 51.8437 16.6842 51.4921 17.1024C51.1357 17.5204 50.6406 17.8982 50.0048 18.2048C49.3697 18.5127 48.7463 18.7259 47.9185 18.8519L28.3405 21.8731L25.4732 13.4242L33.0699 12.2572L34.8161 16.8932L44.3046 15.4363L41.9082 9.76939L25.1081 12.3488L23.9282 8.87408L41.0994 6.23683Z" fill="url(#paint1_linear_1709_34703)"/>
<path d="M23.6952 13.6465L26.8758 23.2983L37.7261 21.6252L39.3494 25.8023L20.0833 28.8317L16 14.8261L23.6952 13.6465Z" fill="url(#paint2_linear_1709_34703)"/>
<path d="M27.5037 19.4043L25.4742 13.424V19.0384L25.1091 17.9314V12.3488L41.9092 9.76953L41.897 15.806L34.8172 16.8932L33.071 12.2571L25.4742 13.424L27.5037 19.4043Z" fill="url(#paint3_linear_1709_34703)"/>
<path d="M20.0864 36.002V28.7965L39.3549 25.8452L39.3525 33.0521L20.0864 36.002Z" fill="url(#paint4_linear_1709_34703)"/>
<path d="M23.9526 29.5224L25.6897 29.2533C26.5576 29.1185 27.2962 29.442 27.2962 31.3028V31.556C27.2962 32.6978 27.0671 34.129 25.7471 34.3332L23.9526 34.6103V29.5224ZM24.9355 33.7054L25.5532 33.6095C26.1915 33.5114 26.2919 32.6913 26.2919 31.6977C26.2919 30.4496 26.1203 29.9408 25.5817 30.0243L24.9356 30.1246L24.9355 33.7054Z" fill="white"/>
<path d="M29.1216 28.7218L30.4422 28.5168L31.5906 33.4282L30.528 33.5935L30.2838 32.3067L29.1717 32.4784L28.8634 33.8509L27.8088 34.0147L29.1216 28.7218ZM30.1618 31.5704L29.7677 29.2629L29.2938 31.7046L30.1618 31.5704Z" fill="white"/>
<path d="M33.7856 33.089L32.8027 33.2414V28.9272L31.583 29.1163V28.3407L35.0052 27.8113V28.5867L33.7856 28.776V33.089Z" fill="white"/>
<path d="M36.2054 27.6255L37.5262 27.4214L38.6745 32.3333L37.6121 32.497L37.3678 31.211L36.2558 31.3827L35.9476 32.7553L34.8928 32.9189L36.2054 27.6255ZM37.2457 30.476L36.8517 28.1684L36.3777 30.6096L37.2457 30.476Z" fill="white"/>
<path d="M25.1064 17.9269L23.9282 14.3525V8.87476L25.1081 12.3495L25.1064 17.9269Z" fill="#517D28"/>
<path d="M41.897 15.8062L41.9092 9.76978L44.2983 15.437L41.897 15.8062Z" fill="#517D28"/>
<path d="M26.8712 23.2982L25.4678 19.0384V13.4241L28.335 21.8731V23.0721L26.8712 23.2982Z" fill="#517D28"/>
<path d="M20.0833 36.0018L16 21.7535V14.8264L20.0833 28.832V36.0018Z" fill="#517D28"/>
<path d="M40.0105 32.9497V27.8615L40.9946 27.7078V32.022L42.78 31.7465V32.5207L40.0105 32.9497Z" fill="#517D28"/>
<path d="M43.3696 32.4289V27.3393L44.3528 27.1868V32.2772L43.3696 32.4289Z" fill="#517D28"/>
<path d="M45.2219 32.1432V27.0553L46.2824 26.8908L47.7179 30.3687L47.7243 30.3665C47.6175 29.8144 47.6031 29.0669 47.6031 28.4916V26.6864L48.5221 26.543V31.6339L47.4603 31.7989L46.0241 28.3247L46.0184 28.3272C46.1247 28.8022 46.1394 29.6815 46.1394 30.1976V32.0007L45.2219 32.1432Z" fill="#517D28"/>
<path d="M49.3806 31.4986V26.4107L52.1499 25.9814V26.7556L50.3639 27.0331V28.2178L51.992 27.9664V28.74L50.3639 28.9913V30.5707L52.1499 30.2957V31.0705L49.3806 31.4986Z" fill="#517D28"/>
<defs>
<linearGradient id="paint0_linear_1709_34703" x1="28.3396" y1="21.4855" x2="52.1442" y2="21.4855" gradientUnits="userSpaceOnUse">
<stop stop-color="#7BA12D"/>
<stop offset="0.3096" stop-color="#749B2C"/>
<stop offset="0.7229" stop-color="#618B2B"/>
<stop offset="1" stop-color="#517D28"/>
</linearGradient>
<linearGradient id="paint1_linear_1709_34703" x1="23.9282" y1="13.9365" x2="52.1475" y2="13.9365" gradientUnits="userSpaceOnUse">
<stop stop-color="#BEC531"/>
<stop offset="1" stop-color="#E1D91E"/>
</linearGradient>
<linearGradient id="paint2_linear_1709_34703" x1="16" y1="21.2391" x2="39.3494" y2="21.2391" gradientUnits="userSpaceOnUse">
<stop stop-color="#BEC531"/>
<stop offset="1" stop-color="#E1D91E"/>
</linearGradient>
<linearGradient id="paint3_linear_1709_34703" x1="25.1091" y1="14.5869" x2="41.9093" y2="14.5869" gradientUnits="userSpaceOnUse">
<stop stop-color="#4F8A35"/>
<stop offset="1" stop-color="#819C2B"/>
</linearGradient>
<linearGradient id="paint4_linear_1709_34703" x1="20.0865" y1="30.9236" x2="39.3549" y2="30.9236" gradientUnits="userSpaceOnUse">
<stop stop-color="#559035"/>
<stop offset="1" stop-color="#6C9127"/>
</linearGradient>
</defs>
</svg>
