<svg width="161" height="43" viewBox="0 0 161 43" fill="none" xmlns="http://www.w3.org/2000/svg">
<g clip-path="url(#clip0_1709_34681)">
<path d="M120.388 26.1999L125.168 31.6341H122.063L118.366 27.4459V31.6341H115.792V21.5008H118.366V25.1779L122.002 21.5008H125.046L120.388 26.1999ZM43.3692 24.2399C45.2487 24.2399 46.1062 23.3411 46.1062 21.9929C46.1062 20.6447 45.2487 19.7459 43.3692 19.7459H39.6501V24.2399H43.3678M43.4497 17.3351C46.6767 17.3351 48.8019 18.9899 48.8019 21.9929C48.8019 24.9959 46.6767 26.65 43.4497 26.65H39.6501V31.6341H36.9551V17.3337H43.4511M54.8891 29.5082C56.4011 29.5082 57.8102 28.426 57.8102 26.5682C57.8102 24.7103 56.4011 23.6281 54.8891 23.6281C53.3771 23.6281 51.9701 24.7082 51.9701 26.5667C51.9701 28.4253 53.3799 29.5068 54.8912 29.5068M54.8912 21.2138C57.6695 21.2138 60.4268 23.0114 60.4268 26.5653C60.4268 30.1193 57.6674 31.919 54.8891 31.919C52.1108 31.919 49.3535 30.12 49.3535 26.5667C49.3535 23.0135 52.1101 21.2152 54.8891 21.2152M66.9991 29.5089C65.4465 29.5089 64.3027 28.3889 64.3027 26.5688C64.3027 24.7712 65.4878 23.6288 66.9991 23.6288C67.9182 23.6288 68.7148 24.0579 69.3483 25.0183L71.5519 23.7499C70.8162 22.177 69.223 21.2173 67.0166 21.2173C64.1361 21.2173 61.6854 23.3418 61.6854 26.5688C61.6854 29.7959 64.0143 31.919 67.0201 31.919C69.1852 31.919 70.6356 30.939 71.6576 29.2023L69.5324 28.0382C68.9199 28.8957 68.2661 29.5082 66.9998 29.5082M94.4048 27.2408C94.2823 28.7928 93.975 29.14 93.4444 29.14C93.18 29.1451 92.9163 29.1097 92.6625 29.035L92.6751 31.6572C92.6751 31.6572 92.995 31.7552 93.5851 31.7552C95.7705 31.7552 96.5875 30.3454 96.7919 27.3451L97.0375 23.8108H99.9377V31.6124H102.51V21.5008H94.8304L94.4048 27.2408ZM89.6539 25.2199C89.4089 23.9536 88.4492 23.1773 87.0191 23.1773C85.6709 23.1773 84.6496 24.0761 84.2814 25.2199H89.6539ZM87.1003 21.2166C90.0011 21.2166 92.0444 23.3208 92.0444 26.2825V27.1799H84.2401C84.4032 28.7326 85.5064 29.7126 87.0184 29.7126C88.3869 29.7126 88.9588 29.1204 89.5916 28.3238L91.6349 29.3451C90.6136 31.0811 89.2038 31.919 86.9771 31.919C84.1589 31.919 81.7684 29.7742 81.7684 26.5667C81.7684 23.3593 84.1589 21.2152 87.0996 21.2152M111.836 25.2199C111.591 23.9536 110.632 23.1773 109.201 23.1773C107.853 23.1773 106.832 24.0761 106.464 25.2199H111.836ZM109.283 21.2166C112.184 21.2166 114.227 23.3208 114.227 26.2825V27.1799H106.423C106.587 28.7326 107.69 29.7126 109.201 29.7126C110.57 29.7126 111.142 29.1204 111.775 28.3238L113.818 29.3451C112.797 31.0811 111.387 31.919 109.161 31.919C106.341 31.919 103.951 29.7742 103.951 26.5667C103.951 23.3593 106.341 21.2152 109.283 21.2152M72.4542 23.7499H75.4775V31.6334H78.0514V23.7499H81.0747V21.5015H72.4542V23.7499ZM130.278 29.511C131.79 29.511 133.2 28.4281 133.2 26.5709C133.2 24.7138 131.79 23.6309 130.278 23.6309C128.767 23.6309 127.357 24.7138 127.357 26.5709C127.357 28.4281 128.766 29.511 130.278 29.511ZM130.278 21.2173C133.056 21.2173 135.814 23.0149 135.814 26.5695C135.814 30.1242 133.056 31.9211 130.278 31.9211C127.501 31.9211 124.743 30.1235 124.743 26.5695C124.743 23.0156 127.5 21.2173 130.278 21.2173ZM146.055 21.5015L143.262 28.5975L140.468 21.5015H137.104V31.6131H139.554V25.2101L142.267 31.6131H144.265L146.976 25.2101V31.6131H149.426V21.4994L146.055 21.5015Z" fill="#A6A8C7"/>
<path d="M28.7085 36.0004H14.4285C13.3995 36.0004 12.7891 35.0785 12.7891 34.2728C12.7889 34.0459 12.8336 33.8212 12.9204 33.6116C13.0073 33.402 13.1346 33.2116 13.2952 33.0513L19.5252 26.8213L28.7085 36.0004Z" fill="#BBBEE7"/>
<path d="M14.4245 36C13.3465 36 11.9962 35.1376 11.9962 33.4233V14.2244C11.9962 11.6302 11.8639 9.8053 13.7168 7.9524L20.6706 1L32.9963 13.3473L13.2919 33.0509C13.1314 33.2112 13.004 33.4016 12.9172 33.6112C12.8303 33.8208 12.7857 34.0455 12.7858 34.2724C12.7858 35.0781 13.3962 36 14.4245 36Z" fill="#6E7090"/>
</g>
<defs>
<clipPath id="clip0_1709_34681">
<rect width="137.42" height="35" fill="white" transform="translate(12 1)"/>
</clipPath>
</defs>
</svg>
