<svg width="161" height="43" viewBox="0 0 161 43" fill="none" xmlns="http://www.w3.org/2000/svg">
<g clip-path="url(#clip0_1709_34624)">
<g clip-path="url(#clip1_1709_34624)">
<path d="M113.081 28.4257L113.281 31.6659C112.744 31.9313 111.372 32.062 110.666 32.062C107.128 32.062 104.622 29.8715 104.521 26.0253H108.247C108.305 26.7516 108.645 27.4278 109.196 27.9122C109.747 28.3966 110.466 28.6516 111.204 28.6238C111.834 28.6102 112.462 28.5439 113.081 28.4257ZM62.4383 31.8322H66.1524V11.3416H62.4383V31.8322ZM95.2159 18.8755C96.9887 18.8755 98.4607 19.7351 99.1306 21.0224L102.275 19.2716C101.072 16.895 98.3965 15.3383 95.2159 15.3383C94.0885 15.3151 92.9681 15.5173 91.9219 15.9326C90.8758 16.348 89.9255 16.9681 89.1281 17.7555C88.3308 18.5429 87.703 19.4813 87.2824 20.5145C86.8618 21.5477 86.657 22.6542 86.6805 23.7675C86.6805 28.5604 90.3987 32.161 95.2479 32.161C98.2522 32.161 100.839 30.8063 102.263 28.6594L99.1506 26.7739C98.7032 27.3743 98.1134 27.857 97.4329 28.1795C96.7524 28.5021 96.0021 28.6546 95.2479 28.6238C94.6023 28.6314 93.9617 28.5106 93.3643 28.2686C92.7669 28.0266 92.2249 27.6684 91.7705 27.2153C91.3162 26.7622 90.9589 26.2235 90.7197 25.6311C90.4806 25.0388 90.3646 24.405 90.3786 23.7675C90.3786 20.9947 92.4202 18.8755 95.2319 18.8755H95.2159ZM60.3205 23.0426C60.3292 22.0231 60.1312 21.0122 59.7382 20.0694C59.3452 19.1267 58.7652 18.2711 58.0322 17.5531C57.2992 16.8352 56.4281 16.2693 55.4703 15.8889C54.5125 15.5086 53.4872 15.3213 52.455 15.3383C51.3456 15.3266 50.245 15.5338 49.2178 15.9477C48.1905 16.3616 47.2572 16.9739 46.4727 17.7487C45.6882 18.5234 45.0682 19.4451 44.6491 20.4596C44.23 21.474 44.0202 22.561 44.032 23.6566C44.0117 24.7685 44.2166 25.8733 44.6347 26.9059C45.0528 27.9386 45.6757 28.8783 46.4668 29.6698C47.2578 30.4614 48.2011 31.0888 49.2411 31.5152C50.2812 31.9417 51.3971 32.1586 52.5232 32.1531C55.9044 32.1531 58.6479 30.8301 59.8512 28.6515L56.8751 26.766C56.105 28.0217 54.4324 28.8139 52.5914 28.8139C49.9482 28.8139 48.1392 27.2295 47.7381 24.6191H60.1721C60.2631 24.0958 60.3074 23.5656 60.3045 23.0347L60.3205 23.0426ZM47.8625 21.8186C48.432 19.7034 50.0043 18.3804 52.2464 18.3804C54.4886 18.3804 56.1972 19.8024 56.3978 21.8186H47.8625ZM84.5668 23.0426C84.5755 22.0231 84.3775 21.0122 83.9845 20.0694C83.5915 19.1267 83.0114 18.2711 82.2784 17.5531C81.5454 16.8352 80.6744 16.2693 79.7166 15.8889C78.7587 15.5086 77.7335 15.3213 76.7013 15.3383C75.5919 15.3266 74.4913 15.5338 73.464 15.9477C72.4367 16.3616 71.5035 16.9739 70.719 17.7487C69.9345 18.5234 69.3145 19.4451 68.8954 20.4596C68.4762 21.474 68.2664 22.561 68.2783 23.6566C68.2574 24.7687 68.4619 25.8737 68.8798 26.9065C69.2978 27.9394 69.9206 28.8794 70.7118 29.671C71.5029 30.4627 72.4464 31.0901 73.4867 31.5163C74.5271 31.9426 75.6432 32.1591 76.7695 32.1531C80.1507 32.1531 82.8942 30.8301 84.0975 28.6515L81.1173 26.766C80.3512 28.0217 78.6747 28.8139 76.8376 28.8139C74.1904 28.8139 72.3855 27.2295 71.9844 24.6191H84.4184C84.5106 24.0959 84.5563 23.5657 84.5547 23.0347L84.5668 23.0426ZM72.1208 21.8147C72.6903 19.6994 74.2626 18.3764 76.5047 18.3764C78.7469 18.3764 80.4555 19.7985 80.6561 21.8147H72.1208ZM131.01 23.0426C131.018 22.0234 130.819 21.013 130.426 20.0706C130.033 19.1283 129.453 18.2732 128.72 17.5557C127.987 16.8382 127.116 16.2727 126.159 15.8925C125.201 15.5124 124.176 15.3253 123.144 15.3422C122.035 15.3311 120.935 15.5387 119.908 15.9528C118.881 16.3669 117.948 16.9792 117.163 17.7538C116.379 18.5285 115.759 19.4499 115.339 20.4641C114.92 21.4784 114.71 22.5651 114.721 23.6605C114.701 24.7722 114.907 25.8765 115.325 26.9087C115.743 27.9408 116.366 28.8801 117.157 29.6712C117.948 30.4623 118.891 31.0894 119.931 31.5156C120.971 31.9418 122.087 32.1585 123.212 32.1531C126.59 32.1531 129.337 30.8301 130.54 28.6515L127.56 26.766C126.79 28.0217 125.118 28.8139 123.277 28.8139C120.633 28.8139 118.828 27.2295 118.427 24.6191H130.861C130.954 24.0959 130.999 23.5657 130.998 23.0347L131.01 23.0426ZM118.564 21.8147C119.133 19.6994 120.706 18.3764 122.948 18.3764C125.19 18.3764 126.894 19.7985 127.099 21.8147H118.564ZM133.127 31.8283H136.842V11.3416H133.127V31.8283ZM37.3377 28.0375C36.3707 28.6118 35.2568 28.8992 34.1289 28.8654C32.8807 28.8936 31.6562 28.5257 30.6354 27.8157C29.6449 27.1004 28.9531 26.0523 28.6901 24.8687L25 25.4193C25.1944 26.7193 25.7264 27.9475 26.5442 28.9842C27.3675 30.0114 28.4412 30.8154 29.6647 31.3213C31.0153 31.8864 32.4697 32.1697 33.9364 32.1531C35.3723 32.1678 36.7978 31.911 38.1359 31.3965C39.3536 30.9385 40.4177 30.1538 41.2083 29.1308C41.8903 28.2298 42.2854 27.1488 42.3434 26.0253H38.6573C38.6195 26.4413 38.4795 26.842 38.2496 27.1926C38.0196 27.5432 37.7067 27.8332 37.3377 28.0375Z" fill="white"/>
<path d="M108.224 24.6555H104.51V19.2011V11.3701H108.224V15.6995H113.113V19.2011H108.224V24.6555ZM41.4454 22.4096C40.8947 21.6762 40.1703 21.0873 39.3356 20.6945C38.4537 20.2984 37.5401 19.9751 36.6042 19.728L32.7376 18.6347C31.9217 18.4556 31.1411 18.1451 30.4273 17.7157C30.1469 17.5394 29.9188 17.293 29.7659 17.0016C29.613 16.7101 29.5409 16.3839 29.5569 16.056C29.555 15.5144 29.7581 14.9917 30.1265 14.5904C30.5408 14.1449 31.0623 13.8097 31.6426 13.616C32.2911 13.3838 32.9788 13.2776 33.6681 13.3031C34.7682 13.3041 35.8391 13.6525 36.7245 14.2973C37.5932 14.9227 38.1928 15.8471 38.4051 16.8879L42.2115 16.266C41.9373 15.032 41.3787 13.8771 40.579 12.8911C39.803 11.9572 38.8036 11.2288 37.6711 10.7719C36.4193 10.2667 35.0806 10.0045 33.7283 9.99952C32.3493 9.95917 30.9765 10.1964 29.6933 10.6967C28.5735 11.1329 27.6006 11.8714 26.8856 12.8277C26.1749 13.8166 25.8076 15.0062 25.8387 16.2184C25.8387 17.8583 26.2987 19.0783 27.2185 19.8785C28.2081 20.715 29.3784 21.3166 30.6399 21.6372L36.2311 23.2692C36.9185 23.4463 37.5518 23.7862 38.0762 24.2594C38.189 24.3807 38.2885 24.5135 38.373 24.6555H42.3077C42.2311 23.8437 41.9331 23.0675 41.4454 22.4096Z" fill="#FF0B0B"/>
</g>
</g>
<defs>
<clipPath id="clip0_1709_34624">
<rect width="111.838" height="22.19" fill="white" transform="translate(25 10)"/>
</clipPath>
<clipPath id="clip1_1709_34624">
<rect width="111.838" height="22.19" fill="white" transform="translate(25 10)"/>
</clipPath>
</defs>
</svg>
