<svg width="161" height="43" viewBox="0 0 161 43" fill="none" xmlns="http://www.w3.org/2000/svg">
<g clip-path="url(#clip0_1709_34618)">
<path d="M113.081 28.426L113.281 31.6661C112.744 31.9315 111.372 32.0622 110.666 32.0622C107.128 32.0622 104.622 29.8718 104.521 26.0255H108.247C108.305 26.7519 108.645 27.428 109.196 27.9124C109.747 28.3968 110.466 28.6518 111.204 28.624C111.834 28.6104 112.462 28.5442 113.081 28.426ZM62.4383 31.8325H66.1524V11.3418H62.4383V31.8325ZM95.2159 18.8758C96.9887 18.8758 98.4607 19.7353 99.1306 21.0227L102.275 19.2719C101.072 16.8952 98.3965 15.3385 95.2159 15.3385C94.0885 15.3153 92.9681 15.5175 91.9219 15.9329C90.8758 16.3483 89.9255 16.9683 89.1281 17.7557C88.3308 18.5431 87.703 19.4816 87.2824 20.5148C86.8618 21.5479 86.657 22.6544 86.6805 23.7677C86.6805 28.5606 90.3987 32.1613 95.2479 32.1613C98.2522 32.1613 100.839 30.8066 102.263 28.6597L99.1506 26.7742C98.7032 27.3746 98.1134 27.8572 97.4329 28.1798C96.7524 28.5023 96.0021 28.6549 95.2479 28.624C94.6023 28.6316 93.9617 28.5108 93.3643 28.2689C92.7669 28.0269 92.2249 27.6687 91.7705 27.2156C91.3162 26.7625 90.9589 26.2237 90.7197 25.6314C90.4806 25.039 90.3646 24.4052 90.3786 23.7677C90.3786 20.995 92.4202 18.8758 95.2319 18.8758H95.2159ZM60.3205 23.0428C60.3292 22.0233 60.1312 21.0124 59.7382 20.0697C59.3452 19.1269 58.7652 18.2713 58.0322 17.5534C57.2992 16.8354 56.4281 16.2696 55.4703 15.8892C54.5125 15.5088 53.4872 15.3216 52.455 15.3385C51.3456 15.3269 50.245 15.5341 49.2178 15.948C48.1905 16.3619 47.2572 16.9742 46.4727 17.7489C45.6882 18.5237 45.0682 19.4453 44.6491 20.4598C44.23 21.4743 44.0202 22.5612 44.032 23.6568C44.0117 24.7688 44.2166 25.8735 44.6347 26.9062C45.0528 27.9388 45.6757 28.8785 46.4668 29.6701C47.2578 30.4616 48.2011 31.089 49.2411 31.5155C50.2812 31.9419 51.3971 32.1588 52.5232 32.1533C55.9044 32.1533 58.6479 30.8303 59.8512 28.6517L56.8751 26.7663C56.105 28.0219 54.4324 28.8141 52.5914 28.8141C49.9482 28.8141 48.1392 27.2297 47.7381 24.6194H60.1721C60.2631 24.0961 60.3074 23.5659 60.3045 23.0349L60.3205 23.0428ZM47.8625 21.8189C48.432 19.7036 50.0043 18.3806 52.2464 18.3806C54.4886 18.3806 56.1972 19.8027 56.3978 21.8189H47.8625ZM84.5668 23.0428C84.5755 22.0233 84.3775 21.0124 83.9845 20.0697C83.5915 19.1269 83.0114 18.2713 82.2784 17.5534C81.5454 16.8354 80.6744 16.2696 79.7166 15.8892C78.7587 15.5088 77.7335 15.3216 76.7013 15.3385C75.5919 15.3269 74.4913 15.5341 73.464 15.948C72.4367 16.3619 71.5035 16.9742 70.719 17.7489C69.9345 18.5237 69.3145 19.4453 68.8954 20.4598C68.4762 21.4743 68.2664 22.5612 68.2783 23.6568C68.2574 24.7689 68.4619 25.8739 68.8798 26.9068C69.2978 27.9397 69.9206 28.8796 70.7118 29.6713C71.5029 30.4629 72.4464 31.0903 73.4867 31.5166C74.5271 31.9428 75.6432 32.1593 76.7695 32.1533C80.1507 32.1533 82.8942 30.8303 84.0975 28.6517L81.1173 26.7663C80.3512 28.0219 78.6747 28.8141 76.8376 28.8141C74.1904 28.8141 72.3855 27.2297 71.9844 24.6194H84.4184C84.5106 24.0962 84.5563 23.566 84.5547 23.0349L84.5668 23.0428ZM72.1208 21.8149C72.6903 19.6997 74.2626 18.3767 76.5047 18.3767C78.7469 18.3767 80.4555 19.7987 80.6561 21.8149H72.1208ZM131.01 23.0428C131.018 22.0237 130.819 21.0132 130.426 20.0709C130.033 19.1286 129.453 18.2735 128.72 17.5559C127.987 16.8384 127.116 16.2729 126.159 15.8928C125.201 15.5127 124.176 15.3256 123.144 15.3425C122.035 15.3314 120.935 15.5389 119.908 15.953C118.881 16.3671 117.948 16.9794 117.163 17.7541C116.379 18.5287 115.759 19.4501 115.339 20.4644C114.92 21.4786 114.71 22.5653 114.721 23.6608C114.701 24.7724 114.907 25.8767 115.325 26.9089C115.743 27.9411 116.366 28.8803 117.157 29.6714C117.948 30.4626 118.891 31.0896 119.931 31.5158C120.971 31.942 122.087 32.1588 123.212 32.1533C126.59 32.1533 129.337 30.8303 130.54 28.6517L127.56 26.7663C126.79 28.0219 125.118 28.8141 123.277 28.8141C120.633 28.8141 118.828 27.2297 118.427 24.6194H130.861C130.954 24.0962 130.999 23.566 130.998 23.0349L131.01 23.0428ZM118.564 21.8149C119.133 19.6997 120.706 18.3767 122.948 18.3767C125.19 18.3767 126.894 19.7987 127.099 21.8149H118.564ZM133.127 31.8285H136.842V11.3418H133.127V31.8285ZM37.3377 28.0378C36.3707 28.6121 35.2568 28.8995 34.1289 28.8656C32.8807 28.8938 31.6562 28.5259 30.6354 27.816C29.6449 27.1006 28.9531 26.0526 28.6901 24.8689L25 25.4195C25.1944 26.7196 25.7264 27.9478 26.5442 28.9845C27.3675 30.0116 28.4412 30.8157 29.6647 31.3215C31.0153 31.8867 32.4697 32.1699 33.9364 32.1533C35.3723 32.168 36.7978 31.9112 38.1359 31.3968C39.3536 30.9387 40.4177 30.154 41.2083 29.131C41.8903 28.23 42.2854 27.149 42.3434 26.0255H38.6573C38.6195 26.4416 38.4795 26.8423 38.2496 27.1929C38.0196 27.5435 37.7067 27.8335 37.3377 28.0378Z" fill="#73768B"/>
<path d="M108.224 24.6555H104.51V19.2011V11.3701H108.224V15.6995H113.113V19.2011H108.224V24.6555ZM41.4454 22.4096C40.8947 21.6762 40.1703 21.0873 39.3356 20.6945C38.4537 20.2984 37.5401 19.9751 36.6042 19.728L32.7376 18.6347C31.9217 18.4556 31.1411 18.1451 30.4273 17.7157C30.1469 17.5394 29.9188 17.293 29.7659 17.0016C29.613 16.7101 29.5409 16.3839 29.5569 16.056C29.555 15.5144 29.7581 14.9917 30.1265 14.5904C30.5408 14.1449 31.0623 13.8097 31.6426 13.616C32.2911 13.3838 32.9788 13.2776 33.6681 13.3031C34.7682 13.3041 35.8391 13.6525 36.7245 14.2973C37.5932 14.9227 38.1928 15.8471 38.4051 16.8879L42.2115 16.266C41.9373 15.032 41.3787 13.8771 40.579 12.8911C39.803 11.9572 38.8036 11.2288 37.6711 10.7719C36.4193 10.2667 35.0806 10.0045 33.7283 9.99952C32.3493 9.95917 30.9765 10.1964 29.6933 10.6967C28.5735 11.1329 27.6006 11.8714 26.8856 12.8277C26.1749 13.8166 25.8076 15.0062 25.8387 16.2184C25.8387 17.8583 26.2987 19.0783 27.2185 19.8785C28.2081 20.715 29.3784 21.3166 30.6399 21.6372L36.2311 23.2692C36.9185 23.4463 37.5518 23.7862 38.0762 24.2594C38.189 24.3807 38.2885 24.5135 38.373 24.6555H42.3077C42.2311 23.8437 41.9331 23.0675 41.4454 22.4096Z" fill="#A6A8C7"/>
</g>
<defs>
<clipPath id="clip0_1709_34618">
<rect width="111.838" height="22.19" fill="white" transform="translate(25 10)"/>
</clipPath>
</defs>
</svg>
