<svg width="161" height="43" viewBox="0 0 161 43" fill="none" xmlns="http://www.w3.org/2000/svg">
<path fill-rule="evenodd" clip-rule="evenodd" d="M137.315 27.6738V23.2336C137.315 22.9956 137.509 22.8014 137.747 22.8014H138.722C138.96 22.8014 139.154 22.6073 139.154 22.3691V17.8142C139.154 17.576 138.96 17.3818 138.722 17.3818H137.747C137.509 17.3818 137.315 17.1878 137.315 16.9496V10.8527L135.016 5.24055C134.988 5.17195 134.996 5.09972 135.037 5.03817C135.078 4.97662 135.142 4.94251 135.216 4.94251H136.127C136.217 4.94251 136.293 4.99377 136.327 5.07666L141.933 18.7643V27.6738C141.933 27.9118 142.127 28.1064 142.365 28.1064H147.648C147.886 28.1064 148.08 27.9118 148.08 27.6738V18.7643L153.497 5.53859C153.553 5.40119 153.538 5.25732 153.455 5.13383C153.373 5.01035 153.245 4.94251 153.097 4.94251H147.608C147.412 4.94251 147.245 5.0679 147.192 5.25656L145.199 12.2632C145.172 12.3576 145.089 12.4204 144.991 12.4201C144.892 12.4199 144.809 12.3568 144.783 12.2625L142.82 5.25808C142.767 5.06885 142.601 4.94251 142.404 4.94251H137.531C137.412 4.94251 137.315 4.84532 137.315 4.72641V2.4322C137.315 2.19419 137.121 2 136.882 2H130.26C130.096 2 129.956 2.08423 129.879 2.22887L121.871 17.2474C121.836 17.313 121.821 17.3765 121.821 17.4508V22.3691C121.821 22.6073 122.015 22.8014 122.253 22.8014H130.664C130.902 22.8014 131.097 22.9956 131.097 23.2336V27.6738C131.097 27.9118 131.291 28.1064 131.529 28.1064H136.882C137.121 28.1064 137.315 27.9118 137.315 27.6738ZM130.664 17.3818H127.725C127.648 17.3818 127.582 17.3454 127.541 17.28C127.501 17.2152 127.497 17.1398 127.53 17.0708L130.686 10.6265C130.731 10.535 130.83 10.4881 130.929 10.511C131.028 10.534 131.097 10.6198 131.097 10.7214V16.9496C131.097 17.1878 130.902 17.3818 130.664 17.3818Z" fill="#73768B"/>
<path fill-rule="evenodd" clip-rule="evenodd" d="M83.5325 28.5229C87.3525 28.5229 91.3464 26.1616 91.3464 20.6745C91.3464 17.9195 91.3464 15.1643 91.3464 12.4091C91.3464 6.92202 87.3525 4.56055 83.5325 4.56055C79.7124 4.56055 75.7188 6.92202 75.7188 12.3744C75.7188 15.1527 75.7188 17.9309 75.7188 20.7092C75.7188 26.1616 79.7124 28.5229 83.5325 28.5229ZM85.6315 21.0217C85.6315 22.5845 84.5396 23.1749 83.5325 23.1749C82.4905 23.1749 81.433 22.5845 81.433 21.0217C81.433 18.035 81.433 15.0486 81.433 12.0617C81.433 10.4991 82.4905 9.90893 83.5325 9.90893C84.5396 9.90893 85.6315 10.4993 85.6315 12.0617C85.6315 15.0486 85.6315 18.035 85.6315 21.0217Z" fill="#73768B"/>
<path fill-rule="evenodd" clip-rule="evenodd" d="M116.521 22.7581H115.73C115.611 22.7581 115.514 22.6609 115.514 22.5418V10.5067C115.514 10.3876 115.611 10.2904 115.73 10.2904H116.521C118.153 10.2904 119.265 11.8185 119.265 16.5417C119.265 20.9523 118.188 22.7581 116.521 22.7581ZM116.556 28.1062C120.649 28.1062 123.186 26.0312 124.474 22.8013H120.604V17.3426L124.413 10.1995C123.095 7.01553 120.549 4.94238 116.521 4.94238H109.799C109.561 4.94238 109.367 5.13638 109.367 5.37477V27.6737C109.367 27.9117 109.561 28.1062 109.799 28.1062H116.556Z" fill="#73768B"/>
<path fill-rule="evenodd" clip-rule="evenodd" d="M100.313 28.5226C104.133 28.5226 108.127 26.1613 108.127 20.6742V5.37477C108.127 5.13638 107.933 4.94238 107.694 4.94238H102.412C102.174 4.94238 101.98 5.13676 101.98 5.37477V21.0214C101.98 22.5843 101.32 23.1746 100.313 23.1746C99.2709 23.1746 98.6459 22.5843 98.6459 21.0214V5.37477C98.6459 5.13638 98.4517 4.94238 98.2139 4.94238H92.9314C92.6932 4.94238 92.499 5.13676 92.499 5.37477V20.7089C92.499 26.1614 96.4927 28.5226 100.313 28.5226Z" fill="#73768B"/>
<path fill-rule="evenodd" clip-rule="evenodd" d="M74.5311 27.6737V23.1903C74.5311 22.9522 74.337 22.7581 74.0987 22.7581H69.2254C69.1065 22.7581 69.0093 22.6609 69.0093 22.5418V5.37477C69.0093 5.13638 68.8148 4.94238 68.577 4.94238H63.2947C63.0569 4.94238 62.8623 5.13676 62.8623 5.37477V27.6737C62.8623 27.9117 63.0569 28.1062 63.2947 28.1062H74.0987C74.337 28.1062 74.5311 27.9117 74.5311 27.6737Z" fill="#73768B"/>
<path fill-rule="evenodd" clip-rule="evenodd" d="M32.8444 10.3282C32.7871 10.3306 32.7297 10.332 32.6722 10.332H30.5489L29.537 8.46558C28.5962 6.73011 26.7891 5.64942 24.8089 5.64942C22.8303 5.64942 21.0237 6.72954 20.0823 8.4633L19.0706 10.3263L16.9508 10.3276C13.9826 10.3297 11.5811 12.7344 11.5811 15.7025C11.5811 17.6575 12.6372 19.439 14.3366 20.3905L15.3056 20.9331L15.7952 21.9295C16.6996 23.7702 18.5561 24.9462 20.6161 24.9462C21.8151 24.9462 22.9555 24.5506 23.9016 23.8148L25.5508 22.5325L27.4758 23.3433C28.1362 23.6216 28.8399 23.7605 29.5564 23.7605C31.2687 23.7605 32.8488 22.9498 33.8664 21.58L34.3775 20.8921L35.1453 20.5114C36.9749 19.6045 38.1419 17.7531 38.1419 15.7025C38.1419 12.7586 35.7784 10.3693 32.8444 10.3282ZM41.7083 15.7025C41.7083 19.2134 39.6779 22.2449 36.7293 23.7067C35.1009 25.8984 32.4986 27.3269 29.5564 27.3269C28.3271 27.3269 27.1568 27.079 26.0912 26.6298C24.5777 27.8067 22.6814 28.5126 20.6161 28.5126C17.091 28.5126 14.0513 26.4676 12.5945 23.5023C9.86293 21.973 8.01465 19.0552 8.01465 15.7025C8.01465 10.7665 12.0127 6.76441 16.9483 6.76136C18.4616 3.97455 21.4148 2.08301 24.8089 2.08301C28.2059 2.08301 31.1598 3.97665 32.6722 6.76575C32.7042 6.76575 32.735 6.76136 32.7676 6.76136C37.705 6.76136 41.7083 10.764 41.7083 15.7025Z" fill="#73768B"/>
<path fill-rule="evenodd" clip-rule="evenodd" d="M26.0174 10.3178V16.9617C26.0174 17.1722 25.8457 17.3439 25.6352 17.3439H24.3616C24.1512 17.3439 23.9797 17.1722 23.9797 16.9617V10.3178C23.9797 10.1074 24.1512 9.93555 24.3616 9.93555H25.6352C25.8457 9.93555 26.0174 10.1074 26.0174 10.3178ZM27.3903 10.4743C27.2683 10.4161 27.136 10.424 27.0219 10.4962C26.9077 10.5682 26.8439 10.6843 26.8439 10.8192V12.2484C26.8439 12.3782 26.9028 12.4901 27.0101 12.5638C27.948 13.2058 28.5638 14.2848 28.5638 15.5076C28.5638 17.4766 26.9678 19.0727 24.9987 19.0727C23.0296 19.0727 21.4332 17.4766 21.4332 15.5076C21.4332 14.2848 22.0491 13.206 22.9869 12.5638C23.0942 12.4901 23.1532 12.3784 23.1532 12.2484V10.8192C23.1532 10.6843 23.0892 10.5684 22.9753 10.4962C22.8609 10.424 22.7289 10.4163 22.6065 10.4743C20.7266 11.3692 19.4268 13.2864 19.4268 15.5076C19.4268 18.5847 21.9214 21.0794 24.9987 21.0794C28.0757 21.0794 30.5704 18.5847 30.5704 15.5076C30.5704 13.2864 29.2707 11.3692 27.3903 10.4743Z" fill="#73768B"/>
<path fill-rule="evenodd" clip-rule="evenodd" d="M53.9966 28.5229C57.8164 28.5229 61.8105 26.1616 61.8105 20.6745V20.2594C61.8105 20.0212 61.6165 19.827 61.3781 19.827H56.5282C56.2902 19.827 56.096 20.0212 56.096 20.2594V21.0217C56.096 22.5845 55.0039 23.1749 53.9966 23.1749C52.9548 23.1749 51.8973 22.5845 51.8973 21.0217C51.8973 18.035 51.8973 15.0486 51.8973 12.0617C51.8973 10.4991 52.9548 9.90893 53.9966 9.90893C55.0039 9.90893 56.096 10.4993 56.096 12.0617V12.6799C56.096 12.9181 56.2902 13.1123 56.5282 13.1123H61.3781C61.6165 13.1123 61.8105 12.9181 61.8105 12.6799V12.4091C61.8105 6.92202 57.8164 4.56055 53.9966 4.56055C50.1765 4.56055 46.1829 6.92202 46.1829 12.3744C46.1829 15.1527 46.1829 17.9309 46.1829 20.7092C46.1829 26.1616 50.1765 28.5229 53.9966 28.5229Z" fill="#73768B"/>
<path d="M11.7551 34.7773L11.4976 36.1179H10.7251V36.864H11.3589L11.2004 37.683H10.4541V38.4291H11.055L10.8371 39.5715H11.5373L11.7551 38.4291H12.4221L12.2041 39.5715H12.9042L13.122 38.4291H13.9012V37.683H13.2806L13.4389 36.864H14.0863V36.1179H13.5578L13.8153 34.7773H13.122L12.8646 36.1179H12.1976L12.455 34.7773H11.7551ZM12.0587 36.864H12.7456L12.5739 37.683H11.9005L12.0587 36.864ZM15.7897 35.4376V39.5715H16.7605V34.5924H15.1361V35.4376H15.7897ZM21.2444 36.6925H21.2313V34.5924H20.2605V39.5715H21.2313V37.3329H21.2444L22.8358 39.5715H24.0838L22.0896 36.8906L23.9781 34.5924H22.7829L21.2444 36.6925ZM26.4476 39.7036C27.9005 39.7036 28.9106 38.5019 28.9106 37.0755C28.9106 35.6821 27.9005 34.4604 26.4476 34.4604C24.9949 34.4604 23.9847 35.6821 23.9847 37.0755C23.9847 38.5019 24.9949 39.7036 26.4476 39.7036ZM26.4476 35.4178C27.2994 35.4178 27.9069 36.2301 27.9069 37.0357C27.9069 37.7886 27.2731 38.7462 26.4476 38.7462C25.6223 38.7462 24.9885 37.7886 24.9885 37.0357C24.9885 36.2301 25.596 35.4178 26.4476 35.4178ZM30.357 37.7093H30.839C31.8558 37.7093 32.4304 37.1942 32.4304 36.1377C32.4304 35.0084 31.7504 34.5924 30.7069 34.5924H29.3863V39.5715H30.357V37.7093ZM30.357 35.3981H30.5285C31.0701 35.3981 31.4398 35.4906 31.4398 36.1311C31.4398 36.7782 31.1294 36.9038 30.5552 36.9038H30.357V35.3981ZM36.6102 34.5924H32.8729V39.5715H33.8436V35.3848H35.6397V39.5715H36.6102V34.5924ZM39.5489 39.7036C41.0016 39.7036 42.0118 38.5019 42.0118 37.0755C42.0118 35.6821 41.0016 34.4604 39.5489 34.4604C38.096 34.4604 37.0859 35.6821 37.0859 37.0755C37.0859 38.5019 38.096 39.7036 39.5489 39.7036ZM39.5489 35.4178C40.4005 35.4178 41.0081 36.2301 41.0081 37.0357C41.0081 37.7886 40.3742 38.7462 39.5489 38.7462C38.7234 38.7462 38.0896 37.7886 38.0896 37.0357C38.0896 36.2301 38.6971 35.4178 39.5489 35.4178ZM43.4581 37.7093H43.9401C44.9571 37.7093 45.5315 37.1942 45.5315 36.1377C45.5315 35.0084 44.8516 34.5924 43.808 34.5924H42.4874V39.5715H43.4581V37.7093ZM43.4581 35.3981H43.6297C44.1712 35.3981 44.5411 35.4906 44.5411 36.1311C44.5411 36.7782 44.2305 36.9038 43.6563 36.9038H43.4581V35.3981ZM49.7445 39.5715L47.9019 34.5924H47.0568L45.1618 39.5715H46.1853L46.5946 38.5217H48.3248L48.7076 39.5715H49.7445ZM48.054 37.7291H46.8719L47.42 35.9199H47.4333L48.054 37.7291ZM51.3292 35.4376H52.3329V34.5924H49.3548V35.4376H50.3585V39.5715H51.3292V35.4376ZM56.427 39.5715V34.5924H55.7271L53.6735 37.7028H53.6602V34.5924H52.6895V39.5715H53.3894L55.4433 36.4281H55.4565V39.5715H56.427ZM58.111 37.4055H58.2692C58.758 37.4055 59.2864 37.4318 59.2864 38.0792C59.2864 38.7264 58.8371 38.7923 58.3157 38.7923H58.111V37.4055ZM57.1403 39.5715H58.6654C59.5702 39.5715 60.257 39.1357 60.257 38.1583C60.257 37.6102 59.9929 37.0158 59.4051 36.9105C59.7156 36.7123 59.841 36.3029 59.841 35.9462C59.841 34.9557 59.2729 34.5924 58.3487 34.5924H57.1403V39.5715ZM58.111 35.3717H58.2362C58.6457 35.3717 58.9364 35.5039 58.9364 36.0121C58.9364 36.5274 58.7052 36.6658 58.2297 36.6658H58.111V35.3717ZM61.7626 36.5537V34.5924H60.7919V39.5715H61.7626V37.3461H63.5587V39.5715H64.5292V34.5924H63.5587V36.5537H61.7626ZM66.2132 37.3791H66.3716C66.8604 37.3791 67.3887 37.4056 67.3887 38.0525C67.3887 38.6999 66.9395 38.7658 66.4179 38.7658H66.2132V37.3791ZM68.3592 38.0659C68.3592 37.0158 67.6528 36.5735 66.7945 36.5735H66.2132V34.5924H65.2425V39.5715H66.7678C67.6726 39.5715 68.3592 39.1488 68.3592 38.0659ZM68.7356 34.5924V39.5715H69.7063V34.5924H68.7356ZM74.1571 39.5715V34.5924H73.4572L71.4037 37.7028H71.3903V34.5924H70.4196V39.5715H71.1195L73.1734 36.4281H73.1866V39.5715H74.1571ZM71.2253 33.0075C71.3572 33.5624 71.76 33.9586 72.4138 33.9586C73.0677 33.9586 73.4901 33.5491 73.6026 33.0075L72.9354 32.8623C72.8761 33.1464 72.7241 33.3643 72.4138 33.3643C72.1034 33.3643 71.9515 33.1464 71.8921 32.8623L71.2253 33.0075ZM79.0041 39.7036C80.4568 39.7036 81.4672 38.5019 81.4672 37.0755C81.4672 35.6821 80.4568 34.4604 79.0041 34.4604C77.5515 34.4604 76.5411 35.6821 76.5411 37.0755C76.5411 38.5019 77.5515 39.7036 79.0041 39.7036ZM79.0041 35.4178C79.8559 35.4178 80.4635 36.2301 80.4635 37.0357C80.4635 37.7886 79.8296 38.7462 79.0041 38.7462C78.1788 38.7462 77.5448 37.7886 77.5448 37.0357C77.5448 36.2301 78.1523 35.4178 79.0041 35.4178ZM82.9136 37.4055H83.0717C83.5605 37.4055 84.089 37.4318 84.089 38.0792C84.089 38.7264 83.6398 38.7923 83.1182 38.7923H82.9136V37.4055ZM85.0595 38.0923C85.0595 37.0822 84.3531 36.6658 83.4946 36.6658H82.9136V35.4376H84.6765V34.5924H81.9428V39.5715H83.4681C84.3729 39.5715 85.0595 39.1488 85.0595 38.0923ZM89.3318 39.5715V34.5924H86.2349V37.716C86.2349 38.3235 86.1225 38.7923 85.3962 38.7923H85.3436V39.5715H85.4886C86.8754 39.5715 87.2056 38.8649 87.2056 37.6563V35.3848H88.3612V39.5715H89.3318ZM94.2119 39.5715L92.3694 34.5924H91.5242L89.629 39.5715H90.6526L91.0621 38.5217H92.7922L93.1749 39.5715H94.2119ZM92.5212 37.7291H91.3392L91.8874 35.9199H91.9006L92.5212 37.7291ZM96.4899 37.5706V39.5715H97.4607V34.5924H96.4899V36.7782C96.4899 36.7782 95.988 36.798 95.6909 36.798C94.9843 36.798 94.8193 36.4217 94.8193 35.7151V34.5924H93.8485V35.5171C93.8485 36.6197 94.1325 37.5904 95.6181 37.5904C95.8031 37.5904 96.4899 37.5706 96.4899 37.5706ZM99.1445 36.5537V34.5924H98.1738V39.5715H99.1445V37.3461H100.941V39.5715H101.911V34.5924H100.941V36.5537H99.1445ZM103.595 37.3791H103.753C104.242 37.3791 104.771 37.4056 104.771 38.0525C104.771 38.6999 104.321 38.7658 103.8 38.7658H103.595V37.3791ZM105.741 38.0659C105.741 37.0158 105.035 36.5735 104.176 36.5735H103.595V34.5924H102.624V39.5715H104.15C105.054 39.5715 105.741 39.1488 105.741 38.0659ZM106.118 34.5924V39.5715H107.088V34.5924H106.118ZM111.539 39.5715V34.5924H110.839L108.786 37.7028H108.772V34.5924H107.802V39.5715H108.501L110.555 36.4281H110.568V39.5715H111.539ZM108.607 33.0075C108.739 33.5624 109.142 33.9586 109.796 33.9586C110.45 33.9586 110.872 33.5491 110.984 33.0075L110.317 32.8623C110.258 33.1464 110.106 33.3643 109.796 33.3643C109.485 33.3643 109.333 33.1464 109.274 32.8623L108.607 33.0075ZM117.898 34.5924H114.161V39.5715H115.132V35.3848H116.928V39.5715H117.898V34.5924ZM119.582 37.7093H120.064C121.081 37.7093 121.655 37.1942 121.655 36.1377C121.655 35.0084 120.976 34.5924 119.932 34.5924H118.611V39.5715H119.582V37.7093ZM119.582 35.3981H119.754C120.295 35.3981 120.665 35.4906 120.665 36.1311C120.665 36.7782 120.354 36.9038 119.78 36.9038H119.582V35.3981ZM124.323 39.7036C125.776 39.7036 126.786 38.5019 126.786 37.0755C126.786 35.6821 125.776 34.4604 124.323 34.4604C122.871 34.4604 121.86 35.6821 121.86 37.0755C121.86 38.5019 122.871 39.7036 124.323 39.7036ZM124.323 35.4178C125.175 35.4178 125.783 36.2301 125.783 37.0357C125.783 37.7886 125.149 38.7462 124.323 38.7462C123.498 38.7462 122.864 37.7886 122.864 37.0357C122.864 36.2301 123.472 35.4178 124.323 35.4178ZM128.233 37.4055H128.391C128.88 37.4055 129.408 37.4318 129.408 38.0792C129.408 38.7264 128.959 38.7923 128.437 38.7923H128.233V37.4055ZM127.262 39.5715H128.787C129.692 39.5715 130.379 39.1357 130.379 38.1583C130.379 37.6102 130.114 37.0158 129.527 36.9105C129.837 36.7123 129.963 36.3029 129.963 35.9462C129.963 34.9557 129.395 34.5924 128.47 34.5924H127.262V39.5715ZM128.233 35.3717H128.358C128.767 35.3717 129.058 35.5039 129.058 36.0121C129.058 36.5274 128.827 36.6658 128.351 36.6658H128.233V35.3717ZM135.08 39.5715L133.238 34.5924H132.393L130.497 39.5715H131.521L131.931 38.5217H133.661L134.044 39.5715H135.08ZM133.39 37.7291H132.208L132.756 35.9199H132.769L133.39 37.7291ZM139.115 39.5715V34.5924H138.415L136.361 37.7028H136.348V34.5924H135.377V39.5715H136.077L138.131 36.4281H138.144V39.5715H139.115ZM136.183 33.0075C136.315 33.5624 136.718 33.9586 137.372 33.9586C138.025 33.9586 138.448 33.5491 138.56 33.0075L137.893 32.8623C137.834 33.1464 137.682 33.3643 137.372 33.3643C137.061 33.3643 136.909 33.1464 136.85 32.8623L136.183 33.0075ZM144.2 40.7536V38.7791H143.645V34.5924H140.469V36.9434C140.469 37.861 140.006 38.7791 139.438 38.7791H139.419V40.7536H140.389V39.5715H143.229V40.7536H144.2ZM142.674 38.7791H140.832C141.208 38.462 141.439 37.7489 141.439 36.7452V35.3848H142.674V38.7791ZM147.085 35.4376V34.5924H144.51V39.5715H147.085V38.7264H145.481V37.3791H147.026V36.5339H145.481V35.4376H147.085ZM148.703 37.7093H149.185C150.202 37.7093 150.776 37.1942 150.776 36.1377C150.776 35.0084 150.096 34.5924 149.053 34.5924H147.732V39.5715H148.703V37.7093ZM148.703 35.3981H148.875C149.416 35.3981 149.786 35.4906 149.786 36.1311C149.786 36.7782 149.475 36.9038 148.901 36.9038H148.703V35.3981Z" fill="#73768B"/>
</svg>
