<svg width="161" height="43" viewBox="0 0 161 43" fill="none" xmlns="http://www.w3.org/2000/svg">
<path fill-rule="evenodd" clip-rule="evenodd" d="M32.8931 7.61471L20.025 12.294L19.9258 12.0211L32.7938 7.3418L32.8931 7.61471Z" fill="#A6A8C7"/>
<path fill-rule="evenodd" clip-rule="evenodd" d="M31.4509 26.7753V14.7598H34.396V26.7753H31.4509Z" fill="#A6A8C7"/>
<path fill-rule="evenodd" clip-rule="evenodd" d="M35.937 23.8104V17.7266H38.882V23.8104H35.937Z" fill="#A6A8C7"/>
<path fill-rule="evenodd" clip-rule="evenodd" d="M27.04 23.8104V17.7266H29.985V23.8104H27.04Z" fill="#A6A8C7"/>
<path fill-rule="evenodd" clip-rule="evenodd" d="M32.9716 6L47.7894 11.5367V30.2976L32.964 36L18 30.1449V11.5326L32.9716 6ZM21.0205 13.6366V28.0833L32.9733 32.7601L44.769 28.2231V13.6325L32.9658 9.2223L21.0205 13.6366Z" fill="#A6A8C7"/>
<path d="M71.9847 27.6256C71.7693 27.8843 71.4685 28.1396 71.0788 28.3915C70.6891 28.6435 70.2312 28.8719 69.7048 29.0734C69.175 29.275 68.5872 29.443 67.9342 29.5739C67.2814 29.7049 66.5841 29.7688 65.839 29.7688C64.4172 29.7688 63.1285 29.5672 61.9732 29.1607C60.8179 28.7544 59.8302 28.1733 59.0133 27.4207C58.1964 26.6683 57.5605 25.7446 57.106 24.6562C56.6514 23.5679 56.4258 22.3351 56.4258 20.9545C56.4258 19.6714 56.6479 18.4957 57.0957 17.4241C57.5434 16.3526 58.1758 15.4288 59.0029 14.6495C59.8302 13.8702 60.8248 13.2656 61.9869 12.8356C63.1524 12.4057 64.4512 12.1907 65.8903 12.1907C67.2609 12.1907 68.4333 12.3586 69.4074 12.6912C70.3816 13.0237 71.1267 13.3697 71.6359 13.7258V17.9616C71.3728 17.5887 71.0446 17.2226 70.6584 16.8665C70.2688 16.5105 69.8313 16.1947 69.3459 15.9159C68.8572 15.6405 68.3205 15.4154 67.7361 15.2474C67.1481 15.0761 66.5329 14.9921 65.8903 14.9921C64.9503 14.9921 64.0992 15.14 63.337 15.4288C62.5782 15.7211 61.9323 16.1275 61.4058 16.6448C60.876 17.1655 60.4728 17.7936 60.1924 18.5326C59.9122 19.2716 59.772 20.0879 59.772 20.9814C59.772 21.8077 59.8984 22.5836 60.1548 23.3059C60.4111 24.0281 60.7906 24.6562 61.293 25.1936C61.7955 25.7278 62.4279 26.1544 63.19 26.4734C63.9489 26.7892 64.8238 26.9572 65.815 26.974C66.5739 26.974 67.2712 26.8934 67.9069 26.7288C68.5426 26.5675 69.1203 26.3492 69.6399 26.0704C70.1593 25.795 70.6174 25.4692 71.0139 25.0963C71.4103 24.7234 71.7316 24.3169 71.9812 23.8802V27.6256H71.9847Z" fill="#73768B"/>
<path d="M78.3099 26.702H87.7264V29.5034H75.2131V12.4561H78.3099V26.702Z" fill="#73768B"/>
<path d="M88.4919 20.9545C88.4919 19.6714 88.7106 18.4957 89.1482 17.4241C89.5856 16.3526 90.2078 15.4288 91.0178 14.6495C91.8279 13.8702 92.802 13.2656 93.9402 12.8356C95.0784 12.4057 96.3602 12.1907 97.782 12.1907C99.1698 12.1907 100.438 12.3922 101.586 12.7987C102.735 13.2051 103.712 13.7862 104.522 14.5387C105.332 15.2945 105.958 16.2149 106.406 17.3032C106.85 18.3916 107.076 19.6243 107.076 21.0049C107.076 22.2881 106.857 23.4637 106.419 24.5353C105.982 25.6069 105.356 26.5306 104.55 27.3098C103.74 28.0892 102.762 28.6939 101.614 29.1238C100.465 29.5538 99.1902 29.7688 97.7855 29.7688C96.3978 29.7688 95.1297 29.5707 93.9812 29.1709C92.8328 28.7745 91.8552 28.1966 91.0451 27.441C90.2351 26.6851 89.6096 25.7614 89.1618 24.6663C88.7141 23.5712 88.4919 22.3351 88.4919 20.9545ZM91.763 20.978C91.763 21.8044 91.8894 22.5836 92.1458 23.3159C92.4021 24.0449 92.7849 24.6797 93.2976 25.2139C93.8103 25.7479 94.4427 26.1745 95.1947 26.4937C95.9466 26.8095 96.8181 26.9672 97.8095 26.9672C98.7357 26.9672 99.5628 26.8195 100.298 26.5273C101.033 26.235 101.661 25.8286 102.181 25.3112C102.701 24.7906 103.101 24.1624 103.384 23.4235C103.664 22.6845 103.805 21.8681 103.805 20.9747C103.805 20.1484 103.675 19.369 103.422 18.6368C103.166 17.9078 102.783 17.273 102.27 16.7389C101.757 16.2048 101.125 15.7782 100.373 15.4591C99.621 15.1433 98.7494 14.9854 97.7582 14.9854C96.8319 14.9854 95.9979 15.1332 95.2562 15.4221C94.5144 15.7144 93.8822 16.1242 93.3591 16.6515C92.8397 17.1789 92.4431 17.8071 92.1696 18.5393C91.8996 19.275 91.763 20.0845 91.763 20.978Z" fill="#73768B"/>
<path d="M112.287 22.5366C112.287 23.316 112.4 23.9844 112.622 24.5454C112.844 25.1064 113.155 25.5665 113.552 25.9326C113.948 26.2988 114.42 26.5641 114.963 26.7356C115.507 26.9069 116.102 26.9909 116.748 26.9909C118.053 26.9909 119.065 26.6649 119.783 26.0166C120.501 25.3683 120.86 24.3035 120.86 22.8255V12.4561H123.956V22.5131C123.956 23.7627 123.785 24.8477 123.447 25.7648C123.109 26.6817 122.62 27.4409 121.984 28.0422C121.348 28.6434 120.579 29.0868 119.68 29.369C118.781 29.6546 117.759 29.7956 116.621 29.7956C115.35 29.7956 114.249 29.6277 113.326 29.2952C112.4 28.9626 111.627 28.4889 111.009 27.8709C110.39 27.2528 109.932 26.5104 109.635 25.6439C109.337 24.7772 109.19 23.7963 109.19 22.7114V12.4561H112.287V22.5366Z" fill="#73768B"/>
<path d="M132.762 12.4561C135.982 12.4561 138.378 13.1615 139.947 14.5756C141.516 15.9865 142.302 18.0086 142.302 20.6388C142.302 22.1973 142.066 23.5377 141.595 24.6563C141.123 25.7748 140.463 26.6952 139.612 27.4073C138.761 28.1228 137.746 28.6502 136.563 28.9895C135.381 29.3321 134.089 29.5001 132.687 29.5001H126.791V12.4561H132.762ZM132.687 26.702C134.851 26.702 136.454 26.2082 137.493 25.2171C138.532 24.2262 139.055 22.7987 139.055 20.931C139.055 19.0331 138.546 17.6122 137.531 16.6683C136.515 15.7278 134.909 15.2575 132.711 15.2575H129.888V26.702H132.687Z" fill="#73768B"/>
</svg>
