<svg width="80" height="80" viewBox="0 0 80 80" fill="none" xmlns="http://www.w3.org/2000/svg">
<path d="M69.645 57.9803C70.9098 56.5215 71.6064 54.6531 71.6064 52.719C71.6064 48.2856 68 44.6787 63.567 44.6787C61.2328 44.6787 59.0175 45.6914 57.4887 47.4572C56.2241 48.9168 55.5276 50.7856 55.5276 52.719C55.5276 57.152 59.1341 60.7584 63.567 60.7584C65.9016 60.7582 68.117 59.7456 69.645 57.9803ZM57.8733 52.719C57.8733 51.3496 58.3662 50.0262 59.2617 48.9929C59.2617 48.9928 59.2619 48.9926 59.262 48.9926C60.3448 47.7417 61.9141 47.0243 63.567 47.0243C66.7067 47.0243 69.2609 49.579 69.2609 52.7192C69.2609 54.0887 68.7681 55.4117 67.8722 56.4448C66.7894 57.6957 65.2201 58.4131 63.567 58.4131C60.4275 58.4128 57.8733 55.8586 57.8733 52.719Z" fill="white" fill-opacity="0.6"/>
<path d="M74.4006 41.9702C71.5966 39.1436 67.8799 37.5357 63.9353 37.4429C59.7803 37.345 55.8595 38.8877 52.8914 41.7868C49.9225 44.6866 48.2874 48.5689 48.2874 52.7186C48.2874 54.7038 48.6656 56.6397 49.4117 58.4725C49.6558 59.0724 50.3402 59.3607 50.94 59.1166C51.5399 58.8724 51.8283 58.1882 51.5841 57.5883C50.9528 56.0377 50.633 54.3993 50.633 52.7186C50.633 49.206 52.017 45.9196 54.5303 43.4647C57.0428 41.0108 60.3645 39.7035 63.88 39.7879C67.2156 39.8663 70.3606 41.2282 72.7355 43.6222C75.1103 46.0161 76.4472 49.1722 76.5002 52.5088C76.5456 55.3869 75.6653 58.1246 73.9463 60.4374L67.5689 69.231C66.4199 70.8157 65.6275 72.5893 65.2142 74.5021L64.7369 76.711C64.6186 77.2579 64.1269 77.6544 63.5675 77.6544C63.0081 77.6544 62.5164 77.2575 62.3983 76.7108L61.9208 74.5021C61.5074 72.5891 60.715 70.8155 59.5658 69.2308L54.0558 61.6332C53.6756 61.109 52.9424 60.9921 52.4178 61.3724C51.8936 61.7527 51.7767 62.4858 52.157 63.0104L57.667 70.6079C58.6241 71.9275 59.2839 73.4044 59.6281 74.9977L60.1055 77.2065C60.4552 78.8254 61.9111 80 63.5672 80C65.2233 80 66.6792 78.825 67.0289 77.2065L67.5064 74.9975C67.8506 73.4046 68.5103 71.9277 69.4674 70.6079L75.8364 61.8254C77.8586 59.1052 78.8988 55.8707 78.845 52.4714C78.7828 48.5258 77.2044 44.7965 74.4006 41.9702Z" fill="white" fill-opacity="0.6"/>
<path d="M13.6206 19.2091C15.5575 19.2091 17.3959 18.3686 18.6636 16.9042C19.7131 15.6936 20.2913 14.1433 20.2913 12.5384C20.2913 11.5647 20.0845 10.6239 19.6767 9.74203C19.4049 9.15406 18.7078 8.89781 18.1202 9.16969C17.5322 9.44141 17.2761 10.1384 17.5478 10.7263C17.8117 11.2973 17.9458 11.9072 17.9458 12.5384C17.9458 13.5788 17.5713 14.5836 16.8908 15.3683C16.0683 16.3184 14.8764 16.8636 13.6206 16.8636C11.2358 16.8636 9.29564 14.9234 9.29564 12.5386C9.29564 11.4984 9.67017 10.4931 10.3506 9.70797C11.1731 8.75781 12.365 8.21266 13.6208 8.21266C13.8424 8.21266 14.0647 8.22953 14.2819 8.26266C14.9222 8.36109 15.5205 7.92109 15.6185 7.28078C15.7164 6.64063 15.2769 6.04203 14.6366 5.94422C14.3024 5.89313 13.9606 5.86719 13.6206 5.86719C11.6838 5.86719 9.84532 6.70766 8.57736 8.1725C7.52798 9.38375 6.95001 10.9344 6.95001 12.5386C6.95017 16.2166 9.94251 19.2091 13.6206 19.2091Z" fill="white" fill-opacity="0.6"/>
<path d="M8.70734 26.998C9.45452 28.0281 9.96952 29.1809 10.2383 30.4247L10.6205 32.1934C10.9236 33.5964 12.1853 34.6145 13.6208 34.6145C15.0562 34.6145 16.318 33.5962 16.6211 32.1934L17.0033 30.4248C17.272 29.1809 17.7872 28.0281 18.5342 26.9981L23.6322 19.9684C25.2822 17.7491 26.1311 15.1097 26.0872 12.3359C26.0362 9.11625 24.7484 6.07297 22.4608 3.76703C20.1726 1.46078 17.14 0.148904 13.9209 0.0729665C10.5309 -0.00750226 7.33155 1.25203 4.90952 3.6175C2.48702 5.98359 1.15265 9.1514 1.15265 12.5373C1.15265 15.237 2.00218 17.8067 3.60124 19.9573L8.70734 26.998ZM6.54843 5.29531C8.45593 3.43219 10.9581 2.41484 13.6191 2.41484C13.7008 2.41484 13.7834 2.41578 13.8655 2.41781C16.4755 2.47922 18.9366 3.545 20.7953 5.41875C22.6541 7.2925 23.7005 9.76203 23.7417 12.373C23.7773 14.6255 23.0884 16.768 21.7416 18.5802L16.6355 25.6208C15.6964 26.9158 15.0487 28.3653 14.7108 29.9291L14.3286 31.6977C14.257 32.0287 13.9594 32.2689 13.6209 32.2689C13.2825 32.2689 12.9847 32.0287 12.9133 31.6978L12.5311 29.9292C12.1931 28.3656 11.5456 26.9161 10.6062 25.6209L5.49202 18.5691C4.18796 16.8148 3.49859 14.7291 3.49859 12.5373C3.49812 9.78843 4.58156 7.2164 6.54843 5.29531Z" fill="white" fill-opacity="0.6"/>
<path d="M67.4011 13.432C66.9642 13.9102 66.9977 14.652 67.4758 15.0889C67.7008 15.2945 67.9839 15.3958 68.2666 15.3958C68.5844 15.3958 68.9014 15.2672 69.1327 15.0141L69.153 14.9922C69.1813 14.9617 69.2094 14.9311 69.2352 14.9011C70.1241 13.8759 70.6136 12.563 70.6136 11.2041C70.6136 8.08906 68.0795 5.55469 64.9648 5.55469C63.338 5.55469 61.7894 6.25719 60.7163 7.48219C60.2895 7.96937 60.3384 8.71031 60.8256 9.13703C61.3128 9.56391 62.0538 9.515 62.4806 9.02766C63.1084 8.31109 64.0139 7.9 64.965 7.9C66.7864 7.9 68.2683 9.38219 68.2683 11.2039C68.2683 11.9984 67.9823 12.7656 67.4619 13.3661L67.4011 13.432Z" fill="white" fill-opacity="0.6"/>
<path d="M56.1303 6.31212C56.6563 6.69008 57.3892 6.56977 57.767 6.04383C59.4789 3.66055 62.2503 2.27618 65.1792 2.3479C67.4631 2.40165 69.6167 3.33446 71.2436 4.97415C72.8703 6.61399 73.7861 8.77524 73.8222 11.0598C73.8533 13.0309 73.2505 14.906 72.0708 16.4934L70.8584 18.1651C70.4781 18.6893 70.595 19.4226 71.1192 19.8029C71.3272 19.9538 71.568 20.0263 71.8066 20.0263C72.1695 20.0263 72.5275 19.8582 72.7569 19.542L73.9611 17.8813C75.4438 15.8868 76.2067 13.5151 76.1672 11.0226C76.1216 8.12915 74.9641 5.3943 72.9086 3.32227C70.8527 1.25008 68.1273 0.0711781 65.2344 0.00305308C61.5295 -0.0831969 58.0262 1.66243 55.862 4.67555C55.7586 4.81977 55.4509 5.55446 55.9439 6.14493C55.9989 6.20587 56.0608 6.26227 56.1303 6.31212Z" fill="white" fill-opacity="0.6"/>
<path d="M54.2124 70.2284C54.2141 69.9034 54.0829 69.5795 53.8213 69.3463C53.3379 68.9152 52.5965 68.9577 52.1655 69.4412C51.4207 70.2765 50.6443 71.0421 49.8552 71.7212C48.2002 72.2937 46.5077 72.7296 44.7841 73.0309C46.0919 70.2166 47.2138 66.3471 48.0709 61.6618C48.1876 61.0248 47.7654 60.4138 47.1284 60.2973C46.4921 60.1807 45.8804 60.6026 45.7638 61.2398C44.7979 66.5204 43.4549 70.8024 41.9569 73.4005C40.978 73.4859 39.9909 73.5307 38.9955 73.5307C37.9966 73.5307 37.0088 73.484 36.0321 73.3973C34.3044 70.4082 32.8776 65.4087 31.9063 59.2926C34.2276 59.4812 36.5984 59.5785 38.9955 59.5785C41.2157 59.5785 43.4571 59.4944 45.6573 59.3287C46.303 59.2799 46.7873 58.717 46.7387 58.0712C46.6899 57.4252 46.1257 56.9423 45.4812 56.9898C43.3394 57.1512 41.1574 57.233 38.9955 57.233C36.474 57.233 33.9859 57.1221 31.5587 56.9104C30.9257 52.1727 30.5543 46.8834 30.5077 41.4068H49.5259C50.1735 41.4068 50.6987 40.8818 50.6987 40.234C50.6987 39.6915 50.3298 39.2363 49.8296 39.1024C49.7871 33.6871 49.4407 28.4949 48.8396 23.8038C52.7538 24.2627 56.4746 24.9916 59.8738 25.9599C60.5954 28.5607 61.1226 31.2902 61.4305 34.0732C61.497 34.6732 62.0049 35.117 62.5948 35.117C62.6377 35.117 62.6813 35.1146 62.7252 35.1098C63.369 35.0385 63.833 34.4588 63.7618 33.8151C63.4968 31.4204 63.0755 29.0615 62.5132 26.7818C65.7001 27.8643 68.5362 29.1732 70.8984 30.679C71.4876 32.649 71.8965 34.6816 72.1116 36.7543C72.1741 37.3574 72.6834 37.806 73.2766 37.806C73.3171 37.806 73.358 37.804 73.3993 37.7996C74.0435 37.7327 74.5115 37.1563 74.4448 36.5121C73.5399 27.7955 69.4513 19.7387 62.9326 13.826C56.3673 7.87133 47.8663 4.5918 38.9957 4.5918C35.3768 4.5918 31.8057 5.13273 28.3818 6.19945C27.7634 6.39211 27.4182 7.04961 27.6109 7.66805C27.8035 8.28633 28.4605 8.63102 29.0794 8.43898C30.4329 8.01727 31.8115 7.68461 33.2076 7.43992C31.6526 10.7905 30.3699 15.6162 29.486 21.4051C28.1502 21.5515 26.828 21.7254 25.5271 21.9338C24.8876 22.0363 24.4523 22.6379 24.5548 23.2774C24.6573 23.9171 25.2588 24.3516 25.8984 24.2498C26.9691 24.078 28.0537 23.9285 29.1495 23.8002C28.962 25.264 28.7987 26.7799 28.6619 28.3413C28.6054 28.9865 29.0826 29.5555 29.7277 29.612C29.7626 29.6151 29.7971 29.6165 29.8315 29.6165C30.4329 29.6165 30.9449 29.1565 30.9984 28.546C31.149 26.8279 31.3344 25.1618 31.5498 23.5587C33.9912 23.346 36.479 23.2349 38.9957 23.2349C41.5173 23.2349 44.0054 23.3459 46.4326 23.5576C47.0655 28.2952 47.437 33.5846 47.4835 39.0612H30.5094C30.5249 37.1932 30.5752 35.327 30.6638 33.498C30.6951 32.851 30.1962 32.3012 29.5493 32.2699C28.8996 32.2404 28.3524 32.7377 28.3212 33.3845C28.2309 35.251 28.1796 37.1552 28.1641 39.061H16.2362C16.2438 38.7205 16.2543 38.3715 16.2685 38.0071C16.2938 37.3599 15.7898 36.8148 15.1426 36.7893C14.4984 36.7615 13.9501 37.2679 13.9248 37.9152C13.9093 38.3113 13.8977 38.6912 13.8898 39.0609H5.72054C5.82851 35.9576 6.36335 32.901 7.31726 29.9587C7.51695 29.3426 7.17929 28.6812 6.5632 28.4815C5.94695 28.2818 5.2857 28.6195 5.08601 29.2355C3.93663 32.782 3.35382 36.4821 3.35382 40.2337C3.35382 49.754 7.06117 58.7045 13.793 65.4365C20.5251 72.1684 29.4754 75.8757 38.9959 75.8757C44.3737 75.8757 49.5435 74.7066 54.3615 72.4012C54.9457 72.1216 55.1927 71.4213 54.9132 70.8373C54.7679 70.5346 54.5091 70.3234 54.2124 70.2284ZM48.5038 21.4082C47.6287 15.672 46.3555 10.826 44.786 7.44461C46.5162 7.74883 48.2141 8.18898 49.8659 8.75883C52.791 11.2795 55.379 14.8401 57.3573 19.0757C57.9873 20.4246 58.5552 21.8445 59.0584 23.3179C55.7598 22.4621 52.2088 21.8171 48.5038 21.4082ZM69.6737 27.2732C67.3293 26.0496 64.6696 24.9796 61.7688 24.0841C61.127 21.9824 60.3627 19.968 59.4824 18.0832C58.3046 15.5615 56.9163 13.2596 55.371 11.2404C57.5029 12.446 59.5121 13.891 61.3565 15.564C64.9845 18.8545 67.8062 22.8552 69.6737 27.2732ZM38.9955 20.8899C36.6015 20.8899 34.231 20.9865 31.9001 21.1741C32.8857 15.0143 34.3371 10.0099 36.0348 7.06898C37.0163 6.98258 38.0038 6.93773 38.9955 6.93773C39.989 6.93773 40.9773 6.98289 41.9584 7.07008C43.6863 10.0593 45.1135 15.0596 46.0849 21.1768C43.7635 20.9884 41.393 20.8899 38.9955 20.8899ZM33.2059 73.026C31.4607 72.7188 29.7624 72.2743 28.1215 71.7059C24.1465 68.2813 20.9901 63.1863 18.9296 57.152C22.2288 58.0077 25.7818 58.6516 29.4873 59.0605C30.3626 64.7979 31.6362 69.6443 33.2059 73.026ZM29.1515 56.6646C25.2349 56.2055 21.5123 55.476 18.1115 54.507C16.9815 50.4248 16.3301 45.9918 16.2349 41.4071H28.1619C28.206 46.8076 28.5521 51.9854 29.1515 56.6646ZM5.72195 41.4071H13.8894C13.9749 45.6659 14.5241 49.808 15.4813 53.6877C12.2962 52.6062 9.46148 51.2982 7.0996 49.7938C6.29788 47.1226 5.82304 44.3118 5.72195 41.4071ZM8.32804 53.2015C10.6705 54.423 13.3294 55.4902 16.2269 56.3843C17.721 61.2701 19.8851 65.6498 22.5944 69.2021C16.2512 65.5968 11.2005 59.9695 8.32804 53.2015Z" fill="white"/>
</svg>
